<svg width="48" height="48" viewBox="0 0 48 48" fill="none" xmlns="http://www.w3.org/2000/svg">
<path d="M19.3579 1V8.61467" stroke="#B0B0B0" stroke-miterlimit="10"/>
<path d="M29.2451 1V8.61467" stroke="#B0B0B0" stroke-miterlimit="10"/>
<path d="M22.1829 1V6.02204H26.5771V1" stroke="#B0B0B0" stroke-miterlimit="10"/>
<path d="M19.3579 3.04028H29.2451" stroke="#B0B0B0" stroke-miterlimit="10"/>
<path d="M17.3994 7.99951H31.4486V12.3938H17.3994V7.99951Z" stroke="#B0B0B0" stroke-miterlimit="10"/>
<path d="M15.9869 12.3936H32.861V16.7878H15.9869V12.3936Z" stroke="#B0B0B0" stroke-miterlimit="10"/>
<path d="M14.3359 16.7881H34.4994V21.1824H14.3359V16.7881Z" stroke="#B0B0B0" stroke-miterlimit="10"/>
<path d="M12.5342 21.1821H36.3073V25.5764H12.5342V21.1821Z" stroke="#B0B0B0" stroke-miterlimit="10"/>
<path d="M11.1218 25.5767H37.7198V29.9709H11.1218V25.5767Z" stroke="#B0B0B0" stroke-miterlimit="10"/>
<path d="M39.76 46.1231H19.201H9V30.0337H39.76V46.1231Z" stroke="#B0B0B0" stroke-miterlimit="10"/>
<path d="M19.201 46.1231V34.8298H21.0089V32.7017H27.9896V34.8298H29.6406V46.1231" stroke="#B0B0B0" stroke-miterlimit="10"/>
<path d="M32.3085 35.2126V42.118" stroke="url(#paint0_linear_187_1262)" stroke-miterlimit="10"/>
<path d="M36.3074 35.2126V42.118" stroke="url(#paint1_linear_187_1262)" stroke-miterlimit="10"/>
<path d="M12.5342 35.4512V42.1179" stroke="url(#paint2_linear_187_1262)" stroke-miterlimit="10"/>
<path d="M16.7716 35.4512V42.1179" stroke="url(#paint3_linear_187_1262)" stroke-miterlimit="10"/>
<path d="M27.7573 29.9709H20.7704L23.2814 7.99951H25.2463L27.7573 29.9709Z" stroke="#B0B0B0" stroke-miterlimit="10"/>
<defs>
<linearGradient id="paint0_linear_187_1262" x1="32.4679" y1="35.7773" x2="34.9379" y2="36.4552" gradientUnits="userSpaceOnUse">
<stop stop-color="#FF2425"/>
<stop offset="0.5" stop-color="#3246FF"/>
<stop offset="1" stop-color="#3246FF"/>
</linearGradient>
<linearGradient id="paint1_linear_187_1262" x1="36.4667" y1="35.7773" x2="38.9367" y2="36.4552" gradientUnits="userSpaceOnUse">
<stop stop-color="#FF2425"/>
<stop offset="0.5" stop-color="#3246FF"/>
<stop offset="1" stop-color="#3246FF"/>
</linearGradient>
<linearGradient id="paint2_linear_187_1262" x1="12.6936" y1="35.9963" x2="15.1511" y2="36.6949" gradientUnits="userSpaceOnUse">
<stop stop-color="#FF2425"/>
<stop offset="0.5" stop-color="#3246FF"/>
<stop offset="1" stop-color="#3246FF"/>
</linearGradient>
<linearGradient id="paint3_linear_187_1262" x1="16.9309" y1="35.9963" x2="19.3884" y2="36.6949" gradientUnits="userSpaceOnUse">
<stop stop-color="#FF2425"/>
<stop offset="0.5" stop-color="#3246FF"/>
<stop offset="1" stop-color="#3246FF"/>
</linearGradient>
</defs>
</svg>
