<svg width="48" height="48" viewBox="0 0 48 48" fill="none" xmlns="http://www.w3.org/2000/svg">
<path d="M12.75 22.5C12.305 22.5 11.87 22.632 11.5 22.8792C11.13 23.1264 10.8416 23.4778 10.6713 23.889C10.501 24.3001 10.4564 24.7525 10.5432 25.189C10.6301 25.6254 10.8443 26.0263 11.159 26.341C11.4737 26.6557 11.8746 26.87 12.311 26.9568C12.7475 27.0436 13.1999 26.999 13.611 26.8287C14.0222 26.6584 14.3736 26.37 14.6208 26C14.868 25.63 15 25.195 15 24.75C14.9993 24.1535 14.762 23.5816 14.3402 23.1598C13.9184 22.738 13.3465 22.5007 12.75 22.5ZM12.75 25.5C12.6017 25.5 12.4567 25.456 12.3333 25.3736C12.21 25.2912 12.1139 25.1741 12.0571 25.037C12.0003 24.9 11.9855 24.7492 12.0144 24.6037C12.0434 24.4582 12.1148 24.3246 12.2197 24.2197C12.3246 24.1148 12.4582 24.0433 12.6037 24.0144C12.7492 23.9855 12.9 24.0003 13.037 24.0571C13.1741 24.1139 13.2912 24.21 13.3736 24.3333C13.456 24.4567 13.5 24.6017 13.5 24.75C13.4998 24.9488 13.4207 25.1395 13.2801 25.2801C13.1395 25.4207 12.9488 25.4998 12.75 25.5Z" fill="url(#paint0_linear_171_1949)"/>
<path d="M45.75 45H43.5V39C43.6989 39 43.8897 38.921 44.0303 38.7803C44.171 38.6397 44.25 38.4489 44.25 38.25C44.25 38.0511 44.171 37.8603 44.0303 37.7197C43.8897 37.579 43.6989 37.5 43.5 37.5V32.25C43.5 32.1336 43.4729 32.0187 43.4208 31.9146C43.3688 31.8104 43.2931 31.7199 43.2 31.65L40.5 29.625V20.25C40.5 20.0511 40.421 19.8603 40.2803 19.7197C40.1397 19.579 39.9489 19.5 39.75 19.5H39.5701L36 6.64781V4.5H36.75C36.9489 4.5 37.1397 4.42098 37.2803 4.28033C37.421 4.13968 37.5 3.94891 37.5 3.75C37.5 3.55109 37.421 3.36032 37.2803 3.21967C37.1397 3.07902 36.9489 3 36.75 3H36V2.25C36 2.05109 35.921 1.86032 35.7803 1.71967C35.6397 1.57902 35.4489 1.5 35.25 1.5C35.0511 1.5 34.8603 1.57902 34.7197 1.71967C34.579 1.86032 34.5 2.05109 34.5 2.25V3H33.75C33.5511 3 33.3603 3.07902 33.2197 3.21967C33.079 3.36032 33 3.55109 33 3.75C33 3.94891 33.079 4.13968 33.2197 4.28033C33.3603 4.42098 33.5511 4.5 33.75 4.5H34.5V6.64781L30.9299 19.5H30.75C30.5511 19.5 30.3603 19.579 30.2197 19.7197C30.079 19.8603 30 20.0511 30 20.25V22.1893L24.7469 16.9362C24.7485 16.916 24.75 16.8956 24.75 16.875V15H25.5C25.6989 15 25.8897 14.921 26.0303 14.7803C26.171 14.6397 26.25 14.4489 26.25 14.25C26.25 14.0511 26.171 13.8603 26.0303 13.7197C25.8897 13.579 25.6989 13.5 25.5 13.5H24.75V12.75C24.75 12.5511 24.671 12.3603 24.5303 12.2197C24.3897 12.079 24.1989 12 24 12C23.8011 12 23.6103 12.079 23.4697 12.2197C23.329 12.3603 23.25 12.5511 23.25 12.75V13.5H22.5C22.3011 13.5 22.1103 13.579 21.9697 13.7197C21.829 13.8603 21.75 14.0511 21.75 14.25C21.75 14.4489 21.829 14.6397 21.9697 14.7803C22.1103 14.921 22.3011 15 22.5 15H23.25V16.875C23.25 16.8956 23.2515 16.916 23.2531 16.9362L18 22.1893V20.25C18 20.0511 17.921 19.8603 17.7803 19.7197C17.6397 19.579 17.4489 19.5 17.25 19.5H17.0701L13.5 6.64781V4.5H14.25C14.4489 4.5 14.6397 4.42098 14.7803 4.28033C14.921 4.13968 15 3.94891 15 3.75C15 3.55109 14.921 3.36032 14.7803 3.21967C14.6397 3.07902 14.4489 3 14.25 3H13.5V2.25C13.5 2.05109 13.421 1.86032 13.2803 1.71967C13.1397 1.57902 12.9489 1.5 12.75 1.5C12.5511 1.5 12.3603 1.57902 12.2197 1.71967C12.079 1.86032 12 2.05109 12 2.25V3H11.25C11.0511 3 10.8603 3.07902 10.7197 3.21967C10.579 3.36032 10.5 3.55109 10.5 3.75C10.5 3.94891 10.579 4.13968 10.7197 4.28033C10.8603 4.42098 11.0511 4.5 11.25 4.5H12V6.64781L8.42991 19.5H8.25C8.05109 19.5 7.86032 19.579 7.71967 19.7197C7.57902 19.8603 7.5 20.0511 7.5 20.25V29.625L4.8 31.65C4.70685 31.7199 4.63125 31.8104 4.57918 31.9146C4.52711 32.0187 4.5 32.1336 4.5 32.25V37.5C4.30109 37.5 4.11032 37.579 3.96967 37.7197C3.82902 37.8603 3.75 38.0511 3.75 38.25C3.75 38.4489 3.82902 38.6397 3.96967 38.7803C4.11032 38.921 4.30109 39 4.5 39V45H2.25C2.05109 45 1.86032 45.079 1.71967 45.2197C1.57902 45.3603 1.5 45.5511 1.5 45.75C1.5 45.9489 1.57902 46.1397 1.71967 46.2803C1.86032 46.421 2.05109 46.5 2.25 46.5H45.75C45.9489 46.5 46.1397 46.421 46.2803 46.2803C46.421 46.1397 46.5 45.9489 46.5 45.75C46.5 45.5511 46.421 45.3603 46.2803 45.2197C46.1397 45.079 45.9489 45 45.75 45ZM42 32.625V37.5H40.5V31.5L42 32.625ZM36 35.25H34.5V32.8713C34.4977 31.9975 34.759 31.1434 35.25 30.4207C35.741 31.1434 36.0023 31.9975 36 32.8713V35.25ZM35.7803 28.7197C35.7107 28.65 35.628 28.5948 35.537 28.5571C35.446 28.5194 35.3485 28.5 35.25 28.5C35.1515 28.5 35.054 28.5194 34.963 28.5571C34.872 28.5948 34.7893 28.65 34.7197 28.7197C34.1728 29.2636 33.7392 29.9106 33.444 30.6232C33.1488 31.3358 32.9979 32.0999 33 32.8713V35.25H31.5V21H39V35.25H37.5V32.8713C37.5021 32.0999 37.3512 31.3358 37.056 30.6232C36.7608 29.9106 36.3272 29.2636 35.7803 28.7197ZM13.5 35.25H12V32.8713C11.9977 31.9975 12.259 31.1434 12.75 30.4207C13.241 31.1434 13.5023 31.9975 13.5 32.8713V35.25ZM13.2803 28.7197C13.2107 28.65 13.128 28.5948 13.037 28.5571C12.946 28.5194 12.8485 28.5 12.75 28.5C12.6515 28.5 12.554 28.5194 12.463 28.5571C12.372 28.5948 12.2893 28.65 12.2197 28.7197C11.6728 29.2636 11.2392 29.9106 10.944 30.6232C10.6488 31.3358 10.4979 32.0999 10.5 32.8713V35.25H9V21H16.5V35.25H15V32.8713C15.0021 32.0999 14.8512 31.3358 14.556 30.6232C14.2608 29.9106 13.8272 29.2636 13.2803 28.7197ZM18 28.0607L18.75 27.3107V29.6893L18 30.4393V28.0607ZM20.25 25.8107L21 25.0607V27.4393L20.25 28.1893V25.8107ZM22.5 23.5607L23.25 22.8107V25.1894L22.5 25.9394V23.5607ZM24.75 22.8107L25.5 23.5607V25.9393L24.75 25.1893V22.8107ZM27 25.0607L27.75 25.8107V28.1893L27 27.4393V25.0607ZM29.25 27.3107L30 28.0607V30.4393L29.25 29.6893V27.3107ZM35.25 9.55228L38.0133 19.5H32.4867L35.25 9.55228ZM24 18.3106L30 24.3106V25.9394L24.5303 20.4697C24.4607 20.4 24.378 20.3448 24.287 20.3071C24.196 20.2694 24.0985 20.25 24 20.25C23.9015 20.25 23.804 20.2694 23.713 20.3071C23.622 20.3448 23.5393 20.4 23.4697 20.4697L18 25.9394V24.3106L24 18.3106ZM12.75 9.55228L15.5133 19.5H9.98672L12.75 9.55228ZM6 32.625L7.5 31.5V37.5H6V32.625ZM6 39H7.5V45H6V39ZM9 36.75H16.5V45H15V42.6213C15.0021 41.8499 14.8512 41.0858 14.556 40.3732C14.2608 39.6606 13.8272 39.0136 13.2803 38.4697C13.2107 38.4 13.128 38.3448 13.037 38.3071C12.946 38.2694 12.8485 38.25 12.75 38.25C12.6515 38.25 12.554 38.2694 12.463 38.3071C12.372 38.3448 12.2893 38.4 12.2197 38.4697C11.6728 39.0136 11.2392 39.6606 10.944 40.3732C10.6488 41.0858 10.4979 41.8499 10.5 42.6213V45H9V36.75ZM12 45V42.6213C11.9977 41.7475 12.259 40.8934 12.75 40.1707C13.241 40.8934 13.5023 41.7475 13.5 42.6213V45H12ZM18 32.5607L24 26.5607L30 32.5607V45H28.5V41.25C28.6989 41.25 28.8897 41.171 29.0303 41.0303C29.171 40.8897 29.25 40.6989 29.25 40.5V37.5C29.25 37.3011 29.171 37.1103 29.0303 36.9697C28.8897 36.829 28.6989 36.75 28.5 36.75H28.1099C27.5291 34.0914 26.3171 31.6116 24.5762 29.5199C24.5058 29.4354 24.4177 29.3675 24.3181 29.3208C24.2186 29.2742 24.11 29.25 24 29.25C23.89 29.25 23.7814 29.2742 23.6819 29.3208C23.5823 29.3675 23.4942 29.4354 23.4238 29.5199C21.6836 31.6119 20.4717 34.0916 19.8905 36.75H19.5C19.3011 36.75 19.1103 36.829 18.9697 36.9697C18.829 37.1103 18.75 37.3011 18.75 37.5V40.5C18.75 40.6989 18.829 40.8897 18.9697 41.0303C19.1103 41.171 19.3011 41.25 19.5 41.25V45H18V32.5607ZM20.25 39.75V38.25H27.75V39.75H20.25ZM21.4293 36.75C21.9106 34.7531 22.7845 32.872 24 31.2161C25.2163 32.8716 26.0907 34.7529 26.5719 36.75H21.4293ZM21 41.25H23.25V45H21V41.25ZM24.75 45V41.25H27V45H24.75ZM31.5 36.75H39V45H37.5V42.6213C37.5021 41.8499 37.3512 41.0858 37.056 40.3732C36.7608 39.6606 36.3272 39.0136 35.7803 38.4697C35.7107 38.4 35.628 38.3448 35.537 38.3071C35.446 38.2694 35.3485 38.25 35.25 38.25C35.1515 38.25 35.054 38.2694 34.963 38.3071C34.872 38.3448 34.7893 38.4 34.7197 38.4697C34.1728 39.0136 33.7392 39.6606 33.444 40.3732C33.1488 41.0858 32.9979 41.8499 33 42.6213V45H31.5V36.75ZM34.5 45V42.6213C34.4977 41.7475 34.759 40.8934 35.25 40.1707C35.741 40.8934 36.0023 41.7475 36 42.6213V45H34.5ZM40.5 45V39H42V45H40.5Z" fill="#B0B0B0"/>
<path d="M35.25 22.5C34.805 22.5 34.37 22.632 34 22.8792C33.63 23.1264 33.3416 23.4778 33.1713 23.889C33.001 24.3001 32.9564 24.7525 33.0432 25.189C33.1301 25.6254 33.3443 26.0263 33.659 26.341C33.9737 26.6557 34.3746 26.87 34.811 26.9568C35.2475 27.0436 35.6999 26.999 36.111 26.8287C36.5222 26.6584 36.8736 26.37 37.1208 26C37.368 25.63 37.5 25.195 37.5 24.75C37.4993 24.1535 37.262 23.5816 36.8402 23.1598C36.4184 22.738 35.8465 22.5007 35.25 22.5ZM35.25 25.5C35.1017 25.5 34.9567 25.456 34.8333 25.3736C34.71 25.2912 34.6139 25.1741 34.5571 25.037C34.5003 24.9 34.4855 24.7492 34.5144 24.6037C34.5434 24.4582 34.6148 24.3246 34.7197 24.2197C34.8246 24.1148 34.9582 24.0433 35.1037 24.0144C35.2492 23.9855 35.4 24.0003 35.537 24.0571C35.6741 24.1139 35.7912 24.21 35.8736 24.3333C35.956 24.4567 36 24.6017 36 24.75C35.9998 24.9488 35.9207 25.1395 35.7801 25.2801C35.6395 25.4207 35.4488 25.4998 35.25 25.5Z" fill="url(#paint1_linear_171_1949)"/>
<defs>
<linearGradient id="paint0_linear_171_1949" x1="11.217" y1="22.8679" x2="13.8201" y2="27.8012" gradientUnits="userSpaceOnUse">
<stop stop-color="#FF2425"/>
<stop offset="0.5" stop-color="#3246FF"/>
<stop offset="1" stop-color="#3246FF"/>
</linearGradient>
<linearGradient id="paint1_linear_171_1949" x1="33.717" y1="22.8679" x2="36.3201" y2="27.8012" gradientUnits="userSpaceOnUse">
<stop stop-color="#FF2425"/>
<stop offset="0.5" stop-color="#3246FF"/>
<stop offset="1" stop-color="#3246FF"/>
</linearGradient>
</defs>
</svg>
