<svg width="48" height="48" viewBox="0 0 48 48" fill="none" xmlns="http://www.w3.org/2000/svg">
<g clip-path="url(#clip0_171_2081)">
<path d="M24 3.09668C22.7196 3.09668 21.6774 4.13889 21.6774 5.41926C21.6774 6.69963 22.7196 7.74184 24 7.74184C25.2804 7.74184 26.3226 6.69963 26.3226 5.41926C26.3226 4.13889 25.2804 3.09668 24 3.09668ZM24 6.19345C23.5728 6.19345 23.2258 5.84643 23.2258 5.41926C23.2258 4.99209 23.5728 4.64507 24 4.64507C24.4272 4.64507 24.7742 4.99209 24.7742 5.41926C24.7742 5.84643 24.4272 6.19345 24 6.19345Z" fill="url(#paint0_linear_171_2081)"/>
<path d="M17.0323 34.0646H30.9677V29.4194H17.0323V34.0646ZM18.5806 30.9678H29.4194V32.5162H18.5806V30.9678Z" fill="url(#paint1_linear_171_2081)"/>
<path d="M37.1613 17.0322V26.3225H43.3548V17.0322H37.1613ZM41.8064 24.7742H38.7097V18.5806H41.8064V24.7742Z" fill="url(#paint2_linear_171_2081)"/>
<path d="M46.4516 27.871V10.8387H35.6129V3.09677H30.9677V4.64516H29.4194V0H18.5806V4.64516H17.0323V3.09677H12.3871V10.8387H1.54839V27.871H0V48H48V27.871H46.4516ZM30.9677 46.4516H29.4194V37.1613H30.9677V46.4516ZM27.871 35.6129V46.4516H26.3226V35.6129H21.6774V46.4516H20.129V35.6129H15.4839V46.4516H13.9355V27.871H34.0645V46.4516H32.5161V35.6129H27.871ZM24.7742 46.4516H23.2258V37.1613H24.7742V46.4516ZM18.5806 46.4516H17.0323V37.1613H18.5806V46.4516ZM13.9355 24.7742H34.0645V26.3226H13.9355V24.7742ZM26.3226 23.2258H21.6774V15.4839H26.3226V23.2258ZM34.0645 23.2258H32.5161V10.8387H34.0645V23.2258ZM30.9677 23.2258H27.871V13.9355H20.129V23.2258H17.0323V10.8387H30.9677V23.2258ZM15.4839 23.2258H13.9355V10.8387H15.4839V23.2258ZM35.6129 29.4194H46.4516V31.7419H35.6129V29.4194ZM35.6129 27.871V15.4839H44.9032V27.871H35.6129ZM44.9032 12.3871V13.9355H35.6129V12.3871H44.9032ZM13.9355 4.64516H15.4839V6.19355H20.129V1.54839H27.871V6.19355H32.5161V4.64516H34.0645V9.29032H13.9355V4.64516ZM12.3871 12.3871V13.9355H3.09677V12.3871H12.3871ZM3.09677 15.4839H12.3871V27.871H3.09677V15.4839ZM12.3871 29.4194V31.7419H1.54839V29.4194H12.3871ZM1.54839 33.2903H12.3871V46.4516H10.8387V35.6129H3.09677V46.4516H1.54839V33.2903ZM9.29032 46.4516H4.64516V37.1613H9.29032V46.4516ZM43.3548 46.4516H38.7097V37.1613H43.3548V46.4516ZM44.9032 46.4516V35.6129H37.1613V46.4516H35.6129V33.2903H46.4516V46.4516H44.9032Z" fill="#B0B0B0"/>
<path d="M4.64516 17.0322V26.3225H10.8387V17.0322H4.64516ZM9.29032 24.7742H6.19354V18.5806H9.29032V24.7742Z" fill="url(#paint3_linear_171_2081)"/>
</g>
<defs>
<linearGradient id="paint0_linear_171_2081" x1="22.4175" y1="3.47649" x2="25.1046" y2="8.56891" gradientUnits="userSpaceOnUse">
<stop stop-color="#FF2425"/>
<stop offset="0.5" stop-color="#3246FF"/>
<stop offset="1" stop-color="#3246FF"/>
</linearGradient>
<linearGradient id="paint1_linear_171_2081" x1="19.2526" y1="29.7992" x2="20.3633" y2="36.1142" gradientUnits="userSpaceOnUse">
<stop stop-color="#FF2425"/>
<stop offset="0.5" stop-color="#3246FF"/>
<stop offset="1" stop-color="#3246FF"/>
</linearGradient>
<linearGradient id="paint2_linear_171_2081" x1="38.1481" y1="17.7918" x2="44.4844" y2="25.7973" gradientUnits="userSpaceOnUse">
<stop stop-color="#FF2425"/>
<stop offset="0.5" stop-color="#3246FF"/>
<stop offset="1" stop-color="#3246FF"/>
</linearGradient>
<linearGradient id="paint3_linear_171_2081" x1="5.63198" y1="17.7918" x2="11.9683" y2="25.7973" gradientUnits="userSpaceOnUse">
<stop stop-color="#FF2425"/>
<stop offset="0.5" stop-color="#3246FF"/>
<stop offset="1" stop-color="#3246FF"/>
</linearGradient>
<clipPath id="clip0_171_2081">
<rect width="48" height="48" fill="white"/>
</clipPath>
</defs>
</svg>
