<svg width="48" height="48" viewBox="0 0 48 48" fill="none" xmlns="http://www.w3.org/2000/svg">
<path d="M4.7376 37.949H43.2576" stroke="#B0B0B0" stroke-miterlimit="10"/>
<path d="M4.7376 22.2913H9.5376V37.9537H4.7376V22.2913Z" stroke="#B0B0B0" stroke-miterlimit="10"/>
<path d="M8.8176 22.2913V19.8001C8.8176 19.4105 8.66285 19.037 8.3874 18.7615C8.11195 18.486 7.73835 18.3313 7.3488 18.3313C6.95925 18.3313 6.58566 18.486 6.3102 18.7615C6.03475 19.037 5.88 19.4105 5.88 19.8001V22.2913H8.8176Z" stroke="#B0B0B0" stroke-miterlimit="10"/>
<path d="M7.4256 16.752V18.3456" stroke="url(#paint0_linear_171_2038)" stroke-miterlimit="10"/>
<path d="M4.9776 26.9089H16.9392" stroke="#B0B0B0" stroke-miterlimit="10"/>
<path d="M4.9776 32.5105H16.9392" stroke="#B0B0B0" stroke-miterlimit="10"/>
<path d="M4.7376 24.6289H9.5376" stroke="#B0B0B0" stroke-miterlimit="10"/>
<path d="M7.3488 29.7888V32.5104" stroke="url(#paint1_linear_171_2038)" stroke-miterlimit="10"/>
<path d="M11.5728 29.7888V32.5104" stroke="url(#paint2_linear_171_2038)" stroke-miterlimit="10"/>
<path d="M14.9328 29.7888V32.5104" stroke="url(#paint3_linear_171_2038)" stroke-miterlimit="10"/>
<path d="M14.9328 35.0688V37.7905" stroke="url(#paint4_linear_171_2038)" stroke-miterlimit="10"/>
<path d="M11.6688 35.0688V37.7905" stroke="url(#paint5_linear_171_2038)" stroke-miterlimit="10"/>
<path d="M7.2528 35.0688V37.7905" stroke="url(#paint6_linear_171_2038)" stroke-miterlimit="10"/>
<path d="M14.9328 26.9088V25.1712C14.9328 24.7256 14.7558 24.2983 14.4407 23.9833C14.1257 23.6682 13.6984 23.4912 13.2528 23.4912C12.8072 23.4912 12.3799 23.6682 12.0649 23.9833C11.7498 24.2983 11.5728 24.7256 11.5728 25.1712V26.9088H14.9328Z" stroke="#B0B0B0" stroke-miterlimit="10"/>
<path d="M13.2528 22.2913V23.4913" stroke="#B0B0B0" stroke-miterlimit="10"/>
<path d="M16.9392 24.6289H20.2176V37.7905H16.9392V24.6289Z" stroke="#B0B0B0" stroke-miterlimit="10"/>
<path d="M19.3776 24.6289V22.5313C19.3776 22.2767 19.2765 22.0325 19.0964 21.8525C18.9164 21.6724 18.6722 21.5713 18.4176 21.5713C18.163 21.5713 17.9188 21.6724 17.7388 21.8525C17.5587 22.0325 17.4576 22.2767 17.4576 22.5313V24.6289H19.3776Z" stroke="#B0B0B0" stroke-miterlimit="10"/>
<path d="M18.4176 19.8289V21.5713" stroke="#B0B0B0" stroke-miterlimit="10"/>
<path d="M43.2624 37.949H38.4624V22.2866H43.2624V37.949Z" stroke="#B0B0B0" stroke-miterlimit="10"/>
<path d="M39.1824 22.2913V19.8001C39.1824 19.4105 39.3371 19.037 39.6126 18.7615C39.8881 18.486 40.2616 18.3313 40.6512 18.3313C41.0407 18.3313 41.4143 18.486 41.6898 18.7615C41.9652 19.037 42.12 19.4105 42.12 19.8001V22.2913H39.1824Z" stroke="#B0B0B0" stroke-miterlimit="10"/>
<path d="M40.5744 16.752V18.3456" stroke="url(#paint7_linear_171_2038)" stroke-miterlimit="10"/>
<path d="M43.0176 26.9089H31.0608" stroke="#B0B0B0" stroke-miterlimit="10"/>
<path d="M43.0176 32.5105H31.0608" stroke="#B0B0B0" stroke-miterlimit="10"/>
<path d="M43.2624 24.6289H38.4624" stroke="#B0B0B0" stroke-miterlimit="10"/>
<path d="M40.6512 29.7888V32.5104" stroke="url(#paint8_linear_171_2038)" stroke-miterlimit="10"/>
<path d="M36.4272 29.7888V32.5104" stroke="url(#paint9_linear_171_2038)" stroke-miterlimit="10"/>
<path d="M33.0672 29.7888V32.5104" stroke="url(#paint10_linear_171_2038)" stroke-miterlimit="10"/>
<path d="M33.0672 35.0688V37.7905" stroke="url(#paint11_linear_171_2038)" stroke-miterlimit="10"/>
<path d="M36.3312 35.0688V37.7905" stroke="url(#paint12_linear_171_2038)" stroke-miterlimit="10"/>
<path d="M40.7472 35.0688V37.7905" stroke="url(#paint13_linear_171_2038)" stroke-miterlimit="10"/>
<path d="M33.0672 26.9088V25.1712C33.0672 24.7256 33.2442 24.2983 33.5593 23.9833C33.8743 23.6682 34.3016 23.4912 34.7472 23.4912C35.1928 23.4912 35.6201 23.6682 35.9351 23.9833C36.2502 24.2983 36.4272 24.7256 36.4272 25.1712V26.9088H33.0672Z" stroke="#B0B0B0" stroke-miterlimit="10"/>
<path d="M34.7472 22.2913V23.4913" stroke="#B0B0B0" stroke-miterlimit="10"/>
<path d="M31.0608 37.7905H27.7824V24.6289H31.0608V37.7905Z" stroke="#B0B0B0" stroke-miterlimit="10"/>
<path d="M28.6224 24.6289V22.5313C28.6224 22.2767 28.7235 22.0325 28.9036 21.8525C29.0836 21.6724 29.3278 21.5713 29.5824 21.5713C29.837 21.5713 30.0812 21.6724 30.2612 21.8525C30.4413 22.0325 30.5424 22.2767 30.5424 22.5313V24.6289H28.6224Z" stroke="#B0B0B0" stroke-miterlimit="10"/>
<path d="M29.5824 19.8289V21.5713" stroke="#B0B0B0" stroke-miterlimit="10"/>
<path d="M17.4624 24.6289H20.6208H30.5424" stroke="#B0B0B0" stroke-miterlimit="10"/>
<path d="M20.6208 24.6289V21.1489H27.5808V24.1921" stroke="#B0B0B0" stroke-miterlimit="10"/>
<path d="M26.88 21.1489V19.1521C26.8787 18.4098 26.5837 17.6983 26.0593 17.173C25.5349 16.6477 24.8238 16.3514 24.0816 16.3489C23.3389 16.3514 22.6274 16.6476 22.1022 17.1727C21.5771 17.6979 21.2809 18.4094 21.2784 19.1521V21.1489H26.88Z" stroke="#B0B0B0" stroke-miterlimit="10"/>
<path d="M25.3008 16.656V12.816C25.3114 12.644 25.2867 12.4717 25.2282 12.3096C25.1697 12.1475 25.0786 11.9991 24.9606 11.8735C24.8425 11.748 24.7 11.6479 24.5418 11.5795C24.3836 11.5111 24.2131 11.4758 24.0408 11.4758C23.8685 11.4758 23.698 11.5111 23.5398 11.5795C23.3816 11.6479 23.2391 11.748 23.1211 11.8735C23.003 11.9991 22.9119 12.1475 22.8534 12.3096C22.7949 12.4717 22.7702 12.644 22.7808 12.816V16.656C23.1955 16.4714 23.6305 16.3361 24.0768 16.2528C24.4979 16.3437 24.9082 16.4789 25.3008 16.656Z" stroke="#B0B0B0" stroke-miterlimit="10"/>
<path d="M24.0768 10.0513V11.5729" stroke="url(#paint14_linear_171_2038)" stroke-miterlimit="10"/>
<path d="M25.92 37.949V29.1746C25.92 28.6755 25.7218 28.1969 25.3689 27.8441C25.016 27.4912 24.5374 27.293 24.0384 27.293C23.5394 27.293 23.0608 27.4912 22.7079 27.8441C22.355 28.1969 22.1568 28.6755 22.1568 29.1746V37.949H25.92Z" stroke="#B0B0B0" stroke-miterlimit="10"/>
<defs>
<linearGradient id="paint0_linear_171_2038" x1="7.58493" y1="16.8823" x2="8.6851" y2="18.1906" gradientUnits="userSpaceOnUse">
<stop stop-color="#FF2425"/>
<stop offset="0.5" stop-color="#3246FF"/>
<stop offset="1" stop-color="#3246FF"/>
</linearGradient>
<linearGradient id="paint1_linear_171_2038" x1="7.50813" y1="30.0113" x2="9.29689" y2="31.2569" gradientUnits="userSpaceOnUse">
<stop stop-color="#FF2425"/>
<stop offset="0.5" stop-color="#3246FF"/>
<stop offset="1" stop-color="#3246FF"/>
</linearGradient>
<linearGradient id="paint2_linear_171_2038" x1="11.7321" y1="30.0113" x2="13.5209" y2="31.2569" gradientUnits="userSpaceOnUse">
<stop stop-color="#FF2425"/>
<stop offset="0.5" stop-color="#3246FF"/>
<stop offset="1" stop-color="#3246FF"/>
</linearGradient>
<linearGradient id="paint3_linear_171_2038" x1="15.0921" y1="30.0113" x2="16.8809" y2="31.2569" gradientUnits="userSpaceOnUse">
<stop stop-color="#FF2425"/>
<stop offset="0.5" stop-color="#3246FF"/>
<stop offset="1" stop-color="#3246FF"/>
</linearGradient>
<linearGradient id="paint4_linear_171_2038" x1="15.0921" y1="35.2914" x2="16.8809" y2="36.5369" gradientUnits="userSpaceOnUse">
<stop stop-color="#FF2425"/>
<stop offset="0.5" stop-color="#3246FF"/>
<stop offset="1" stop-color="#3246FF"/>
</linearGradient>
<linearGradient id="paint5_linear_171_2038" x1="11.8281" y1="35.2914" x2="13.6169" y2="36.5369" gradientUnits="userSpaceOnUse">
<stop stop-color="#FF2425"/>
<stop offset="0.5" stop-color="#3246FF"/>
<stop offset="1" stop-color="#3246FF"/>
</linearGradient>
<linearGradient id="paint6_linear_171_2038" x1="7.41213" y1="35.2914" x2="9.20089" y2="36.5369" gradientUnits="userSpaceOnUse">
<stop stop-color="#FF2425"/>
<stop offset="0.5" stop-color="#3246FF"/>
<stop offset="1" stop-color="#3246FF"/>
</linearGradient>
<linearGradient id="paint7_linear_171_2038" x1="40.7337" y1="16.8823" x2="41.8339" y2="18.1906" gradientUnits="userSpaceOnUse">
<stop stop-color="#FF2425"/>
<stop offset="0.5" stop-color="#3246FF"/>
<stop offset="1" stop-color="#3246FF"/>
</linearGradient>
<linearGradient id="paint8_linear_171_2038" x1="40.8105" y1="30.0113" x2="42.5993" y2="31.2569" gradientUnits="userSpaceOnUse">
<stop stop-color="#FF2425"/>
<stop offset="0.5" stop-color="#3246FF"/>
<stop offset="1" stop-color="#3246FF"/>
</linearGradient>
<linearGradient id="paint9_linear_171_2038" x1="36.5865" y1="30.0113" x2="38.3753" y2="31.2569" gradientUnits="userSpaceOnUse">
<stop stop-color="#FF2425"/>
<stop offset="0.5" stop-color="#3246FF"/>
<stop offset="1" stop-color="#3246FF"/>
</linearGradient>
<linearGradient id="paint10_linear_171_2038" x1="33.2265" y1="30.0113" x2="35.0153" y2="31.2569" gradientUnits="userSpaceOnUse">
<stop stop-color="#FF2425"/>
<stop offset="0.5" stop-color="#3246FF"/>
<stop offset="1" stop-color="#3246FF"/>
</linearGradient>
<linearGradient id="paint11_linear_171_2038" x1="33.2265" y1="35.2914" x2="35.0153" y2="36.5369" gradientUnits="userSpaceOnUse">
<stop stop-color="#FF2425"/>
<stop offset="0.5" stop-color="#3246FF"/>
<stop offset="1" stop-color="#3246FF"/>
</linearGradient>
<linearGradient id="paint12_linear_171_2038" x1="36.4905" y1="35.2914" x2="38.2793" y2="36.5369" gradientUnits="userSpaceOnUse">
<stop stop-color="#FF2425"/>
<stop offset="0.5" stop-color="#3246FF"/>
<stop offset="1" stop-color="#3246FF"/>
</linearGradient>
<linearGradient id="paint13_linear_171_2038" x1="40.9065" y1="35.2914" x2="42.6953" y2="36.5369" gradientUnits="userSpaceOnUse">
<stop stop-color="#FF2425"/>
<stop offset="0.5" stop-color="#3246FF"/>
<stop offset="1" stop-color="#3246FF"/>
</linearGradient>
<linearGradient id="paint14_linear_171_2038" x1="24.2361" y1="10.1757" x2="25.2772" y2="11.4724" gradientUnits="userSpaceOnUse">
<stop stop-color="#FF2425"/>
<stop offset="0.5" stop-color="#3246FF"/>
<stop offset="1" stop-color="#3246FF"/>
</linearGradient>
</defs>
</svg>
