<svg width="48" height="48" viewBox="0 0 48 48" fill="none" xmlns="http://www.w3.org/2000/svg">
<mask id="mask0_171_1834" style="mask-type:luminance" maskUnits="userSpaceOnUse" x="2" y="7" width="45" height="34">
<path d="M46.08 7.67993H2.88V40.2557H46.08V7.67993Z" fill="white"/>
</mask>
<g mask="url(#mask0_171_1834)">
<path d="M19.4213 32.6624V39.9942H29.4437V32.6624C29.4437 30.4861 28.241 28.5018 26.3701 27.3496L24.5661 26.2614C24.4993 26.1974 24.3657 26.1974 24.232 26.2614L22.428 27.3496C20.5572 28.5018 19.4213 30.4861 19.4213 32.6624Z" fill="url(#paint0_linear_171_1834)"/>
<path d="M43.7606 20.3248H5.21294C5.01356 20.3248 4.88063 20.1918 4.88063 19.9924V17.9986C4.88063 17.7992 5.01356 17.6663 5.21294 17.6663H15.1822C15.3815 17.6663 15.5145 17.7992 15.5145 17.9986C15.5145 18.198 15.3815 18.331 15.1822 18.331H5.54525V19.6602H43.4283V18.331H33.7914C33.592 18.331 33.4591 18.198 33.4591 17.9986C33.4591 17.7992 33.592 17.6663 33.7914 17.6663H43.6942C43.8935 17.6663 44.0265 17.7992 44.0265 17.9986V19.9924C44.0929 20.1918 43.96 20.3248 43.7606 20.3248Z" fill="#B0B0B0"/>
<path d="M45.7477 40.2513H3.21231C3.01293 40.2513 2.88 40.1184 2.88 39.919C2.88 39.7196 3.01293 39.5867 3.21231 39.5867H45.7477C45.947 39.5867 46.08 39.7196 46.08 39.919C46.08 40.1184 45.947 40.2513 45.7477 40.2513Z" fill="#B0B0B0"/>
<path d="M43.0895 40.2437H5.87107C5.67168 40.2437 5.53876 40.1108 5.53876 39.9114V25.2898C5.53876 25.0904 5.67168 24.9575 5.87107 24.9575C6.07045 24.9575 6.20338 25.0904 6.20338 25.2898V39.5791H42.7573V25.2898C42.7573 25.0904 42.8901 24.9575 43.0895 24.9575C43.2889 24.9575 43.4219 25.0904 43.4219 25.2898V39.9114C43.4219 40.1108 43.2889 40.2437 43.0895 40.2437ZM43.0895 23.6283C42.8901 23.6283 42.7573 23.4954 42.7573 23.296V20.3052H6.20338V23.296C6.20338 23.4954 6.07045 23.6283 5.87107 23.6283C5.67168 23.6283 5.53876 23.4954 5.53876 23.296V19.9729C5.53876 19.7735 5.67168 19.6406 5.87107 19.6406H43.0895C43.2889 19.6406 43.4219 19.7735 43.4219 19.9729V23.296C43.4219 23.4954 43.2889 23.6283 43.0895 23.6283Z" fill="#B0B0B0"/>
<path d="M18.1526 25.6248H4.5279C4.39498 25.6248 4.26206 25.5583 4.19559 25.4254L3.53098 23.4316C3.46452 23.2987 3.53098 23.2322 3.59744 23.0993C3.6639 23.0328 3.73036 22.9663 3.86328 22.9663H18.4848C18.6842 22.9663 18.8172 23.0993 18.8172 23.2987C18.8172 23.4981 18.6842 23.6309 18.4848 23.6309H4.32852L4.79375 24.9602H18.1526C18.3519 24.9602 18.4848 25.0931 18.4848 25.2925C18.4848 25.4919 18.3519 25.6248 18.1526 25.6248ZM44.4048 25.6248H30.7802C30.5808 25.6248 30.4479 25.4919 30.4479 25.2925C30.4479 25.0931 30.5808 24.9602 30.7802 24.9602H44.139L44.6042 23.6309H30.7802C30.5808 23.6309 30.4479 23.4981 30.4479 23.2987C30.4479 23.0993 30.5808 22.9663 30.7802 22.9663H45.0694C45.2024 22.9663 45.2688 23.0328 45.3352 23.0993C45.4018 23.1657 45.4018 23.2987 45.4018 23.4316L44.7372 25.4254C44.6706 25.5583 44.5378 25.6248 44.4048 25.6248Z" fill="#B0B0B0"/>
<path d="M18.496 40.2361H15.1729C14.9735 40.2361 14.8406 40.1031 14.8406 39.9038V15.313C14.8406 15.1136 14.9735 14.9807 15.1729 14.9807H18.496C18.6954 14.9807 18.8283 15.1136 18.8283 15.313V39.9038C18.8283 40.1031 18.6954 40.2361 18.496 40.2361ZM15.5052 39.5715H18.1637V15.6453H15.5052V39.5715Z" fill="#B0B0B0"/>
<path d="M17.8333 15.6581H15.8395C15.6401 15.6581 15.5072 15.5252 15.5072 15.3259V11.3381C15.5072 11.1387 15.6401 11.0059 15.8395 11.0059H17.8333C18.0327 11.0059 18.1657 11.1387 18.1657 11.3381V15.3259C18.1657 15.5252 18.0327 15.6581 17.8333 15.6581ZM16.1718 14.9935H17.501V11.6705H16.1718V14.9935Z" fill="#B0B0B0"/>
<path d="M17.8424 12.0047C17.643 12.0047 17.51 11.8718 17.51 11.6724V10.3432C17.51 9.9444 17.2442 9.67857 16.8454 9.67857C16.4466 9.67857 16.1808 9.9444 16.1808 10.3432V11.6724C16.1808 11.8718 16.0479 12.0047 15.8485 12.0047C15.6492 12.0047 15.5162 11.8718 15.5162 11.6724V10.3432C15.5162 9.61204 16.1144 9.01392 16.8454 9.01392C17.5765 9.01392 18.1746 9.61204 18.1746 10.3432V11.6724C18.1746 11.8718 18.0418 12.0047 17.8424 12.0047ZM12.1932 40.2508H9.53466C9.33528 40.2508 9.20236 40.1179 9.20236 39.9186V35.2662C9.20236 33.5382 10.731 33.0066 10.7974 32.94H10.9968C11.0632 32.94 12.5254 33.5382 12.5254 35.2662V39.9186C12.5254 40.1179 12.3925 40.2508 12.1932 40.2508ZM9.86698 39.5862H11.8608V35.2662C11.8608 34.2693 11.1962 33.804 10.8639 33.6047C10.598 33.7376 9.86698 34.2028 9.86698 35.2662V39.5862ZM29.1408 39.9186C28.9414 39.9186 28.8085 39.7856 28.8085 39.5862V32.2754C28.8085 30.2816 27.8116 28.4207 26.0836 27.2908L24.4885 26.2939L22.8934 27.3573C21.2319 28.4207 20.1685 30.2816 20.1685 32.2754V39.5862C20.1685 39.7856 20.0356 39.9186 19.8362 39.9186C19.6368 39.9186 19.5039 39.7856 19.5039 39.5862V32.3419C19.5039 30.0822 20.6338 28.022 22.4946 26.8256L24.2892 25.6958C24.422 25.6293 24.555 25.6293 24.6214 25.6958L26.4159 26.8256C28.2768 28.022 29.4732 30.0822 29.4732 32.3419V39.6527C29.4732 39.7856 29.3402 39.9186 29.1408 39.9186ZM13.5224 32.2754H8.20544C8.00604 32.2754 7.87312 32.1426 7.87312 31.9432C7.87312 31.7438 8.00604 31.6108 8.20544 31.6108H13.5224C13.7218 31.6108 13.8546 31.7438 13.8546 31.9432C13.8546 32.1426 13.7218 32.2754 13.5224 32.2754Z" fill="#B0B0B0"/>
<path d="M16.8398 9.60732C16.6405 9.60732 16.5075 9.47439 16.5075 9.27501V8.01224C16.5075 7.81285 16.6405 7.67993 16.8398 7.67993C17.0392 7.67993 17.1721 7.81285 17.1721 8.01224V9.27501C17.1721 9.47439 17.0392 9.60732 16.8398 9.60732ZM33.7875 40.2461H30.4645C30.2651 40.2461 30.1321 40.1131 30.1321 39.9138V15.323C30.1321 15.1236 30.2651 14.9907 30.4645 14.9907H33.7875C33.9869 14.9907 34.1198 15.1236 34.1198 15.323V39.9138C34.1198 40.1131 33.9869 40.2461 33.7875 40.2461ZM30.7967 39.5815H33.4552V15.6553H30.7967V39.5815Z" fill="#B0B0B0"/>
<path d="M33.1202 15.6581H31.1264C30.927 15.6581 30.794 15.5252 30.794 15.3259V11.3381C30.794 11.1387 30.927 11.0059 31.1264 11.0059H33.1202C33.3196 11.0059 33.4526 11.1387 33.4526 11.3381V15.3259C33.4526 15.5252 33.3196 15.6581 33.1202 15.6581ZM31.4587 14.9935H32.7879V11.6705H31.4587V14.9935Z" fill="#B0B0B0"/>
<path d="M33.1202 12.0047C32.9208 12.0047 32.7879 11.8718 32.7879 11.6724V10.3432C32.7879 9.9444 32.522 9.67857 32.1233 9.67857C31.7246 9.67857 31.4587 9.9444 31.4587 10.3432V11.6724C31.4587 11.8718 31.3258 12.0047 31.1264 12.0047C30.927 12.0047 30.794 11.8718 30.794 11.6724V10.3432C30.794 9.61204 31.3922 9.01392 32.1233 9.01392C32.8544 9.01392 33.4526 9.61204 33.4526 10.3432V11.6724C33.4526 11.8718 33.3196 12.0047 33.1202 12.0047Z" fill="#B0B0B0"/>
<path d="M32.1316 9.60732C31.9322 9.60732 31.7993 9.47439 31.7993 9.27501V8.01224C31.7993 7.81285 31.9322 7.67993 32.1316 7.67993C32.331 7.67993 32.4639 7.81285 32.4639 8.01224V9.27501C32.4639 9.47439 32.331 9.60732 32.1316 9.60732ZM20.5008 23.6307C20.3014 23.6307 20.1685 23.4978 20.1685 23.2984V19.9753C20.1685 19.7759 20.3014 19.643 20.5008 19.643C20.7002 19.643 20.8332 19.7759 20.8332 19.9753V23.2984C20.8332 23.4978 20.7002 23.6307 20.5008 23.6307ZM22.4946 23.6307C22.2952 23.6307 22.1624 23.4978 22.1624 23.2984V19.9753C22.1624 19.7759 22.2952 19.643 22.4946 19.643C22.694 19.643 22.827 19.7759 22.827 19.9753V23.2984C22.827 23.4978 22.694 23.6307 22.4946 23.6307ZM24.4885 23.6307C24.2892 23.6307 24.1562 23.4978 24.1562 23.2984V19.9753C24.1562 19.7759 24.2892 19.643 24.4885 19.643C24.6879 19.643 24.8208 19.7759 24.8208 19.9753V23.2984C24.8208 23.4978 24.6879 23.6307 24.4885 23.6307ZM26.4824 23.6307C26.283 23.6307 26.15 23.4978 26.15 23.2984V19.9753C26.15 19.7759 26.283 19.643 26.4824 19.643C26.6818 19.643 26.8146 19.7759 26.8146 19.9753V23.2984C26.8146 23.4978 26.6818 23.6307 26.4824 23.6307ZM28.4762 23.6307C28.2768 23.6307 28.1439 23.4978 28.1439 23.2984V19.9753C28.1439 19.7759 28.2768 19.643 28.4762 19.643C28.6756 19.643 28.8085 19.7759 28.8085 19.9753V23.2984C28.8085 23.4978 28.6756 23.6307 28.4762 23.6307ZM13.5224 40.2461C13.323 40.2461 13.19 40.1131 13.19 39.9138V32.0049C13.19 30.4098 12.326 29.0141 10.9304 28.3495H10.7974C9.40174 29.0805 8.53774 30.4763 8.53774 32.0049V39.9138C8.53774 40.1131 8.40482 40.2461 8.20544 40.2461C8.00604 40.2461 7.87312 40.1131 7.87312 39.9138V32.0049C7.87312 30.2104 8.87004 28.5489 10.5316 27.7513C10.731 27.6184 10.9968 27.6184 11.2626 27.7513C12.9242 28.5489 13.9212 30.2104 13.9212 32.0049V39.9138C13.8546 40.1131 13.7218 40.2461 13.5224 40.2461ZM39.4424 40.2461H36.7839C36.5845 40.2461 36.4516 40.1131 36.4516 39.9138V35.2615C36.4516 33.5335 37.9802 33.0018 38.0466 32.9353H38.246C38.3125 32.9353 39.7746 33.5335 39.7746 35.2615V39.9138C39.7746 40.1131 39.6418 40.2461 39.4424 40.2461ZM37.1162 39.5815H39.11V35.2615C39.11 34.2645 38.4454 33.7993 38.1132 33.5999C37.8473 33.7329 37.1162 34.1981 37.1162 35.2615V39.5815ZM40.7716 32.2707H35.5212C35.3218 32.2707 35.1888 32.1378 35.1888 31.9384C35.1888 31.739 35.3218 31.6061 35.5212 31.6061H40.7716C40.971 31.6061 41.1039 31.739 41.1039 31.9384C41.1039 32.1378 40.9045 32.2707 40.7716 32.2707Z" fill="#B0B0B0"/>
<path d="M20.5166 23.6283C20.3173 23.6283 20.1844 23.4954 20.1844 23.296V19.9729C20.1844 19.7735 20.3173 19.6406 20.5166 19.6406C20.716 19.6406 20.849 19.7735 20.849 19.9729V23.296C20.849 23.4954 20.716 23.6283 20.5166 23.6283Z" fill="url(#paint1_linear_171_1834)"/>
<path d="M24.528 23.6283C24.3175 23.6283 24.1772 23.4954 24.1772 23.296V19.9729C24.1772 19.7735 24.3175 19.6406 24.528 19.6406C24.7384 19.6406 24.8788 19.7735 24.8788 19.9729V23.296C24.8788 23.4954 24.7384 23.6283 24.528 23.6283Z" fill="url(#paint2_linear_171_1834)"/>
<path d="M28.5512 23.6896C28.3331 23.6896 28.1878 23.5567 28.1878 23.3573V20.0343C28.1878 19.8349 28.3331 19.7019 28.5512 19.7019C28.7691 19.7019 28.9144 19.8349 28.9144 20.0343V23.3573C28.9144 23.5567 28.7691 23.6896 28.5512 23.6896Z" fill="url(#paint3_linear_171_1834)"/>
<path d="M40.7609 40.2557C40.5615 40.2557 40.4286 40.1227 40.4286 39.9233V32.0143C40.4286 30.4193 39.5646 29.0237 38.1689 28.359H38.036C36.6403 29.0901 35.7763 30.4857 35.7763 32.0143V39.9233C35.7763 40.1227 35.6434 40.2557 35.444 40.2557C35.2446 40.2557 35.1117 40.1227 35.1117 39.9233V32.0143C35.1117 30.2199 36.1086 28.5583 37.7701 27.7609C37.9695 27.6279 38.2354 27.6279 38.5012 27.7609C40.1628 28.5583 41.1597 30.2199 41.1597 32.0143V39.9233C41.0932 40.1227 40.9603 40.2557 40.7609 40.2557ZM30.6588 15.6649H18.4963C18.2969 15.6649 18.164 15.5319 18.164 15.3325C18.164 15.1331 18.2969 15.0003 18.4963 15.0003H30.6588C30.8581 15.0003 30.9911 15.1331 30.9911 15.3325C30.9911 15.5319 30.8581 15.6649 30.6588 15.6649ZM30.6588 23.6403H18.4963C18.2969 23.6403 18.164 23.5073 18.164 23.3079C18.164 23.1085 18.2969 22.9757 18.4963 22.9757H30.6588C30.8581 22.9757 30.9911 23.1085 30.9911 23.3079C30.9911 23.5073 30.8581 23.6403 30.6588 23.6403ZM30.7917 13.671H17.8317C17.6323 13.671 17.4994 13.5381 17.4994 13.3387C17.4994 13.1393 17.6323 13.0063 17.8317 13.0063H30.7917C30.9911 13.0063 31.124 13.1393 31.124 13.3387C31.124 13.5381 30.9911 13.671 30.7917 13.671Z" fill="#B0B0B0"/>
</g>
<defs>
<linearGradient id="paint0_linear_171_1834" x1="21.0182" y1="27.3402" x2="30.1987" y2="39.9935" gradientUnits="userSpaceOnUse">
<stop stop-color="#FF2425"/>
<stop offset="0.5" stop-color="#3246FF"/>
<stop offset="1" stop-color="#3246FF"/>
</linearGradient>
<linearGradient id="paint1_linear_171_1834" x1="20.2903" y1="19.9667" x2="21.8954" y2="20.4737" gradientUnits="userSpaceOnUse">
<stop stop-color="#FF2425"/>
<stop offset="0.5" stop-color="#3246FF"/>
<stop offset="1" stop-color="#3246FF"/>
</linearGradient>
<linearGradient id="paint2_linear_171_1834" x1="24.289" y1="19.9667" x2="25.966" y2="20.5258" gradientUnits="userSpaceOnUse">
<stop stop-color="#FF2425"/>
<stop offset="0.5" stop-color="#3246FF"/>
<stop offset="1" stop-color="#3246FF"/>
</linearGradient>
<linearGradient id="paint3_linear_171_1834" x1="28.3036" y1="20.028" x2="30.0279" y2="20.6234" gradientUnits="userSpaceOnUse">
<stop stop-color="#FF2425"/>
<stop offset="0.5" stop-color="#3246FF"/>
<stop offset="1" stop-color="#3246FF"/>
</linearGradient>
</defs>
</svg>
