<svg width="48" height="48" viewBox="0 0 48 48" fill="none" xmlns="http://www.w3.org/2000/svg">
<mask id="mask0_171_1954" style="mask-type:luminance" maskUnits="userSpaceOnUse" x="2" y="12" width="45" height="25">
<path d="M46.08 36.48H2.88V12.7883H46.08V36.48Z" fill="white"/>
</mask>
<g mask="url(#mask0_171_1954)">
<path d="M17.2831 12.9094C17.1909 12.9785 17.1218 13.5084 17.1218 14.0614C17.1218 14.8908 17.0527 15.0521 16.661 15.0521C16.2693 15.0521 16.1311 15.2135 16.1541 15.7434C16.1541 15.8125 16.2232 16.2273 16.3154 16.665C16.4767 17.3793 16.4536 17.4253 16.1311 17.1719C15.0481 16.2733 10.1405 15.8817 7.79033 16.5268C7.16823 16.6881 6.03923 17.218 5.30193 17.6788L3.98861 18.5314V27.0333V35.5354L3.48172 35.6045C3.18219 35.6506 2.92874 35.8579 2.88266 36.0883C2.81354 36.457 3.94253 36.48 24.3335 36.48C36.1534 36.48 45.8996 36.4109 45.9918 36.3418C46.2683 36.0653 45.8535 35.5584 45.3236 35.5584H44.7706V27.1946C44.7706 20.8354 44.7014 18.7387 44.4941 18.4622C43.9872 17.8631 41.9365 16.7572 40.8076 16.4807C38.5496 15.9047 33.9184 16.2503 32.9968 17.0337C32.3978 17.5636 32.2596 17.4023 32.4439 16.2964C32.5821 15.3748 32.536 15.2365 32.1213 15.1213C31.7526 15.0292 31.6374 14.7756 31.5913 13.9232L31.5222 12.8633L24.4717 12.7942C20.6009 12.7712 17.3752 12.8172 17.2831 12.9094ZM30.6006 14.3609V14.9369L24.3335 15.006L18.0434 15.0521V14.3609V13.6697L24.3335 13.7158L30.6006 13.7849V14.3609ZM31.2918 16.9415C31.1996 17.4945 31.0153 18.3009 30.854 18.7387L30.6006 19.5451L24.7252 19.6142C21.4995 19.6373 18.6424 19.6142 18.389 19.5682C18.0204 19.476 17.836 19.1304 17.6287 18.0935C17.1448 15.7434 16.4076 15.9738 24.4026 15.9738H31.4531L31.2918 16.9415ZM13.9422 17.3793C14.6103 17.5405 15.532 17.9092 16.0159 18.2087C16.7762 18.7157 16.8914 18.923 17.0296 20.029C17.0988 20.6971 17.0988 21.4344 17.0296 21.6418C16.8914 21.9874 16.8453 21.9875 16.4306 21.6187C15.7394 20.9966 13.0667 20.3515 11.1773 20.3515C9.24188 20.3515 7.00694 20.8584 5.90099 21.5496L5.14065 22.0105V20.5128C5.14065 19.0382 5.16369 18.9922 5.99315 18.4622C8.02073 17.1949 11.0621 16.7802 13.9422 17.3793ZM42.2362 18.1857L43.5034 18.9L43.5725 20.4667L43.6416 22.0105L42.8813 21.5496C40.3468 20.0059 34.9092 19.9829 32.3978 21.5496L31.6374 22.0105V20.8814C31.6374 19.2917 31.7987 18.877 32.6282 18.3701C34.0336 17.5175 34.8861 17.3793 37.9736 17.4253C40.8537 17.4714 41.0149 17.4945 42.2362 18.1857ZM30.4854 21.1579V21.734H24.2644H18.0434V21.1579V20.5819H24.2644H30.4854V21.1579ZM14.4491 21.8262C15.0481 22.0105 15.9007 22.4252 16.3384 22.7708L17.1218 23.3698L17.0757 29.4065L17.0066 35.4432L11.0851 35.5123L5.14065 35.5584V29.3604V23.1625L5.97011 22.6326C6.43093 22.3561 7.19127 21.9874 7.65208 21.8262C8.78108 21.4114 13.0897 21.4114 14.4491 21.8262ZM42.144 22.333L43.5034 23.0473L43.5725 29.3144L43.6186 35.5584H37.628H31.6374V29.4296C31.6374 22.6556 31.5452 23.1395 33.1351 22.2639C34.264 21.6419 35.0704 21.5266 37.9966 21.5726C40.6233 21.6188 40.8537 21.6649 42.144 22.333ZM30.4854 29.2222V35.5584H28.9878H27.4901V33.1391C27.4901 30.282 27.2366 29.4987 25.9694 28.4388C24.6561 27.3789 24.2183 27.3328 23.0433 28.1623C21.4534 29.3144 21.2 29.9595 21.0848 32.9548L20.9696 35.5584H19.5181H18.0434V29.2222V22.886H24.2644H30.4854V29.2222Z" fill="#B0B0B0"/>
<path d="M18.735 17.5865C18.735 18.3468 18.8041 18.5081 19.1958 18.5081C19.5876 18.5081 19.6567 18.3468 19.6567 17.5865C19.6567 16.8261 19.5876 16.6648 19.1958 16.6648C18.8041 16.6648 18.735 16.8261 18.735 17.5865Z" fill="#B0B0B0"/>
<path d="M20.4393 16.9876C20.2089 17.5637 20.4393 18.3931 20.877 18.4623C21.1996 18.5314 21.2687 18.3701 21.2687 17.6098C21.2687 16.9185 21.1765 16.665 20.9231 16.665C20.7157 16.665 20.5084 16.8033 20.4393 16.9876Z" fill="url(#paint0_linear_171_1954)"/>
<path d="M22.1906 17.5865C22.1906 18.3468 22.2597 18.5081 22.6514 18.5081C23.0432 18.5081 23.1123 18.3468 23.1123 17.5865C23.1123 16.8261 23.0432 16.6648 22.6514 16.6648C22.2597 16.6648 22.1906 16.8261 22.1906 17.5865Z" fill="#B0B0B0"/>
<path d="M23.8958 16.9876C23.6654 17.5637 23.8958 18.3931 24.3336 18.4623C24.6561 18.5314 24.7253 18.3701 24.7253 17.6098C24.7253 16.9185 24.6331 16.665 24.3797 16.665C24.1723 16.665 23.9649 16.8033 23.8958 16.9876Z" fill="url(#paint1_linear_171_1954)"/>
<path d="M25.6472 17.6098C25.6472 18.3701 25.7163 18.5314 26.0619 18.4623C26.3384 18.4162 26.4766 18.1397 26.5227 17.5176C26.5918 16.7802 26.5227 16.665 26.131 16.665C25.7163 16.665 25.6472 16.8033 25.6472 17.6098Z" fill="#B0B0B0"/>
<path d="M27.3515 16.9876C27.1211 17.5637 27.3515 18.3931 27.7892 18.4623C28.1118 18.5314 28.1809 18.3701 28.1809 17.6098C28.1809 16.9185 28.0887 16.665 27.8353 16.665C27.6279 16.665 27.4206 16.8033 27.3515 16.9876Z" fill="url(#paint2_linear_171_1954)"/>
<path d="M29.1028 17.5865C29.1028 18.3468 29.1719 18.5081 29.5636 18.5081C29.9554 18.5081 30.0245 18.3468 30.0245 17.5865C30.0245 16.8261 29.9554 16.6648 29.5636 16.6648C29.1719 16.6648 29.1028 16.8261 29.1028 17.5865Z" fill="#B0B0B0"/>
<path d="M10.8319 17.9552C10.7397 18.0473 10.6706 18.5312 10.6706 19.015C10.6706 19.7524 10.7397 19.9137 11.0853 19.8445C11.3849 19.7985 11.4771 19.545 11.4771 18.8768C11.4771 18.0243 11.1775 17.6096 10.8319 17.9552Z" fill="url(#paint3_linear_171_1954)"/>
<path d="M8.06724 18.1859C7.97507 18.278 7.90594 18.762 7.90594 19.2458C7.90594 19.9831 7.97507 20.1444 8.32068 20.0752C8.6202 20.0292 8.71237 19.7757 8.71237 19.1076C8.71237 18.255 8.41284 17.8403 8.06724 18.1859Z" fill="#B0B0B0"/>
<path d="M13.5042 18.2089C13.0665 18.3701 13.1356 19.8678 13.5734 20.0522C13.9881 20.2134 14.3567 19.7757 14.3567 19.0613C14.3567 18.4853 13.919 18.0706 13.5042 18.2089Z" fill="#B0B0B0"/>
<path d="M37.2594 18.1168C37.029 18.7388 37.2594 19.7756 37.6281 19.7756C37.8815 19.7756 37.9737 19.5222 37.9737 18.8771C37.9737 17.9555 37.5129 17.4715 37.2594 18.1168Z" fill="url(#paint4_linear_171_1954)"/>
<path d="M34.4949 18.3472C34.2414 19.0155 34.4949 20.0062 34.9327 20.0753C35.3013 20.1444 35.3474 20.0292 35.2783 19.1768C35.2092 18.186 34.7484 17.7021 34.4949 18.3472Z" fill="#B0B0B0"/>
<path d="M40.0241 18.3469C39.7937 18.969 40.0241 20.0059 40.3928 20.0059C40.6462 20.0059 40.7384 19.7524 40.7384 19.1073C40.7384 18.1857 40.2776 17.7018 40.0241 18.3469Z" fill="#B0B0B0"/>
<path d="M10.578 22.7708C10.3707 23.3468 10.4168 26.1808 10.6472 26.5495C10.7624 26.7338 11.0158 26.8029 11.2232 26.7338C11.7761 26.5034 11.6609 22.5865 11.108 22.4713C10.9006 22.4252 10.6702 22.5634 10.578 22.7708Z" fill="#B0B0B0"/>
<path d="M7.95169 25.4667C7.99777 27.1948 8.08993 27.6095 8.36642 27.6095C8.64291 27.6095 8.71203 27.2178 8.71203 25.5358C8.71203 23.7386 8.66595 23.4621 8.2973 23.393C7.92865 23.3239 7.88257 23.5082 7.95169 25.4667Z" fill="#B0B0B0"/>
<path d="M13.366 23.5078C13.2738 23.577 13.2047 24.5217 13.2047 25.5815C13.2047 27.1253 13.2738 27.54 13.5734 27.6552C13.7807 27.7243 14.0342 27.6552 14.1494 27.4709C14.3798 27.1023 14.4258 24.2682 14.2185 23.7153C14.0802 23.3466 13.6194 23.2314 13.366 23.5078Z" fill="#B0B0B0"/>
<path d="M37.3285 22.5866C37.2363 22.6557 37.1672 23.6464 37.1672 24.7755C37.1672 26.6417 37.2133 26.803 37.628 26.803C38.0657 26.803 38.0888 26.6417 38.0888 24.6142C38.0888 22.9552 38.0197 22.4253 37.7893 22.4253C37.6049 22.4253 37.3976 22.4944 37.3285 22.5866Z" fill="#B0B0B0"/>
<path d="M34.4942 23.6464C34.425 23.8308 34.402 24.7755 34.4481 25.7893C34.5172 27.3099 34.5863 27.6095 34.9319 27.6786C35.2775 27.7478 35.3236 27.5404 35.3236 25.5589C35.3236 23.7156 35.2545 23.3469 34.978 23.3469C34.7706 23.3469 34.5633 23.4852 34.4942 23.6464Z" fill="#B0B0B0"/>
<path d="M40.0467 23.6464C39.9776 23.8078 39.9315 24.7755 39.9776 25.7892C40.0236 27.2178 40.1158 27.6095 40.3924 27.6095C40.6689 27.6095 40.738 27.2178 40.738 25.5588C40.738 24.1073 40.6458 23.4621 40.4615 23.416C40.3002 23.3469 40.1158 23.4621 40.0467 23.6464Z" fill="#B0B0B0"/>
<path d="M19.1953 26.3419C19.1953 28.7151 19.2184 28.8764 19.6561 28.8764C20.0939 28.8764 20.1169 28.7151 20.1169 26.3419C20.1169 23.9687 20.0939 23.8074 19.6561 23.8074C19.2184 23.8074 19.1953 23.9687 19.1953 26.3419Z" fill="#B0B0B0"/>
<path d="M28.6425 26.3419C28.6425 28.7151 28.6655 28.8764 29.1034 28.8764C29.5411 28.8764 29.5642 28.7151 29.5642 26.3419C29.5642 23.9687 29.5411 23.8074 29.1034 23.8074C28.6655 23.8074 28.6425 23.9687 28.6425 26.3419Z" fill="#B0B0B0"/>
<path d="M21.5978 30.7288C21.8611 29.668 22.907 28.8 24 28.8C24.48 28.8 25.6214 29.8396 25.9178 30.7288C26.3977 32.1685 25.9178 35.5288 25.9178 35.5288L21.5966 35.5276C21.5966 35.5276 21.2407 32.1676 21.5978 30.7288Z" fill="url(#paint5_linear_171_1954)"/>
</g>
<defs>
<linearGradient id="paint0_linear_171_1954" x1="20.495" y1="16.8132" x2="21.7637" y2="18.0345" gradientUnits="userSpaceOnUse">
<stop stop-color="#FF2425"/>
<stop offset="0.5" stop-color="#3246FF"/>
<stop offset="1" stop-color="#3246FF"/>
</linearGradient>
<linearGradient id="paint1_linear_171_1954" x1="23.9516" y1="16.8132" x2="25.2203" y2="18.0345" gradientUnits="userSpaceOnUse">
<stop stop-color="#FF2425"/>
<stop offset="0.5" stop-color="#3246FF"/>
<stop offset="1" stop-color="#3246FF"/>
</linearGradient>
<linearGradient id="paint2_linear_171_1954" x1="27.4072" y1="16.8132" x2="28.6759" y2="18.0345" gradientUnits="userSpaceOnUse">
<stop stop-color="#FF2425"/>
<stop offset="0.5" stop-color="#3246FF"/>
<stop offset="1" stop-color="#3246FF"/>
</linearGradient>
<linearGradient id="paint3_linear_171_1954" x1="10.7991" y1="17.9989" x2="12.1642" y2="19.0288" gradientUnits="userSpaceOnUse">
<stop stop-color="#FF2425"/>
<stop offset="0.5" stop-color="#3246FF"/>
<stop offset="1" stop-color="#3246FF"/>
</linearGradient>
<linearGradient id="paint4_linear_171_1954" x1="37.2957" y1="17.9813" x2="38.6247" y2="19.0208" gradientUnits="userSpaceOnUse">
<stop stop-color="#FF2425"/>
<stop offset="0.5" stop-color="#3246FF"/>
<stop offset="1" stop-color="#3246FF"/>
</linearGradient>
<linearGradient id="paint5_linear_171_1954" x1="22.1864" y1="29.3502" x2="26.7241" y2="35.3472" gradientUnits="userSpaceOnUse">
<stop stop-color="#FF2425"/>
<stop offset="0.5" stop-color="#3246FF"/>
<stop offset="1" stop-color="#3246FF"/>
</linearGradient>
</defs>
</svg>
