<svg width="48" height="48" viewBox="0 0 48 48" fill="none" xmlns="http://www.w3.org/2000/svg">
<path d="M14.3664 39.9792V30.8256C14.3664 29.6875 13.9143 28.596 13.1095 27.7913C12.3048 26.9865 11.2133 26.5344 10.0752 26.5344C8.9371 26.5344 7.84562 26.9865 7.04086 27.7913C6.2361 28.596 5.784 29.6875 5.784 30.8256V39.9792H14.3664Z" stroke="#B0B0B0" stroke-miterlimit="10"/>
<path d="M12.48 39.9792V34.4256C12.4985 33.7645 12.2578 33.1225 11.8094 32.6364C11.361 32.1503 10.7404 31.8588 10.08 31.824C9.41324 31.849 8.78338 32.1365 8.32758 32.6237C7.87177 33.111 7.62694 33.7586 7.6464 34.4256V39.9792H12.48Z" stroke="url(#paint0_linear_171_2001)" stroke-miterlimit="10"/>
<path d="M6.12 29.2319H14.0304" stroke="#B0B0B0" stroke-miterlimit="10"/>
<path d="M9.95999 24.3408V26.4576" stroke="#B0B0B0" stroke-miterlimit="10"/>
<path d="M12.8784 19.6033H20.424" stroke="#B0B0B0" stroke-miterlimit="10"/>
<path d="M14.3664 16.9631H19.1088V39.9791H14.3664V16.9631Z" stroke="#B0B0B0" stroke-miterlimit="10"/>
<path d="M13.944 11.7407H19.4064H13.944Z" fill="white"/>
<path d="M13.944 11.7407H19.4064" stroke="#B0B0B0" stroke-miterlimit="10"/>
<path d="M16.8864 8.02075V9.58555V8.02075Z" fill="white"/>
<path d="M16.8864 8.02075V9.58555" stroke="url(#paint1_linear_171_2001)" stroke-miterlimit="10"/>
<path d="M8.9424 27.9167V28.7567V27.9167Z" fill="white"/>
<path d="M8.9424 27.9167V28.7567" stroke="#B0B0B0" stroke-miterlimit="10"/>
<path d="M11.1504 27.9167V28.7567V27.9167Z" fill="white"/>
<path d="M11.1504 27.9167V28.7567" stroke="#B0B0B0" stroke-miterlimit="10"/>
<path d="M18.0864 16.9632V10.7232C18.0864 10.4049 17.96 10.0997 17.7349 9.87467C17.5099 9.64962 17.2047 9.52319 16.8864 9.52319C16.5681 9.52319 16.2629 9.64962 16.0379 9.87467C15.8128 10.0997 15.6864 10.4049 15.6864 10.7232V16.9632H18.0864Z" stroke="#B0B0B0" stroke-miterlimit="10"/>
<path d="M14.3664 23.76H19.104" stroke="#B0B0B0" stroke-miterlimit="10"/>
<path d="M19.104 26.04L14.3664 28.4688" stroke="#B0B0B0" stroke-miterlimit="10"/>
<path d="M19.104 30.936L14.3664 33.3648" stroke="#B0B0B0" stroke-miterlimit="10"/>
<path d="M19.104 35.832L14.3664 38.2608" stroke="#B0B0B0" stroke-miterlimit="10"/>
<path d="M33.6336 39.9792V30.8256C33.6336 29.6875 34.0857 28.596 34.8905 27.7913C35.6952 26.9865 36.7867 26.5344 37.9248 26.5344C39.0629 26.5344 40.1544 26.9865 40.9591 27.7913C41.7639 28.596 42.216 29.6875 42.216 30.8256V39.9792H33.6336Z" stroke="#B0B0B0" stroke-miterlimit="10"/>
<path d="M35.52 39.9792V34.4256C35.4942 34.0899 35.538 33.7525 35.6487 33.4346C35.7594 33.1167 35.9346 32.8251 36.1633 32.5781C36.3921 32.3311 36.6694 32.134 36.9779 31.9993C37.2863 31.8645 37.6193 31.7949 37.956 31.7949C38.2926 31.7949 38.6256 31.8645 38.9341 31.9993C39.2426 32.134 39.5199 32.3311 39.7486 32.5781C39.9774 32.8251 40.1526 33.1167 40.2633 33.4346C40.374 33.7525 40.4178 34.0899 40.392 34.4256V39.9792H35.52Z" stroke="url(#paint2_linear_171_2001)" stroke-miterlimit="10"/>
<path d="M41.88 29.2319H33.9696" stroke="#B0B0B0" stroke-miterlimit="10"/>
<path d="M38.04 24.3408V26.4576" stroke="#B0B0B0" stroke-miterlimit="10"/>
<path d="M35.1264 19.6033H27.576" stroke="#B0B0B0" stroke-miterlimit="10"/>
<path d="M28.896 16.9631H33.6384V39.9791H28.896V16.9631Z" stroke="#B0B0B0" stroke-miterlimit="10"/>
<path d="M34.056 11.7407H28.5984H34.056Z" fill="white"/>
<path d="M34.056 11.7407H28.5984" stroke="#B0B0B0" stroke-miterlimit="10"/>
<path d="M31.1184 8.02075V9.58555V8.02075Z" fill="white"/>
<path d="M31.1184 8.02075V9.58555" stroke="url(#paint3_linear_171_2001)" stroke-miterlimit="10"/>
<path d="M39.0576 27.9167V28.7567V27.9167Z" fill="white"/>
<path d="M39.0576 27.9167V28.7567" stroke="#B0B0B0" stroke-miterlimit="10"/>
<path d="M36.8496 27.9167V28.7567V27.9167Z" fill="white"/>
<path d="M36.8496 27.9167V28.7567" stroke="#B0B0B0" stroke-miterlimit="10"/>
<path d="M29.9184 16.9632V10.7232C29.9184 10.4049 30.0448 10.0997 30.2699 9.87467C30.4949 9.64962 30.8001 9.52319 31.1184 9.52319C31.4367 9.52319 31.7419 9.64962 31.9669 9.87467C32.192 10.0997 32.3184 10.4049 32.3184 10.7232V16.9632H29.9184Z" stroke="#B0B0B0" stroke-miterlimit="10"/>
<path d="M33.6384 23.76H28.896" stroke="#B0B0B0" stroke-miterlimit="10"/>
<path d="M33.6336 26.04L28.896 28.4688" stroke="#B0B0B0" stroke-miterlimit="10"/>
<path d="M33.6336 30.936L28.896 33.3648" stroke="#B0B0B0" stroke-miterlimit="10"/>
<path d="M33.6336 35.832L28.896 38.2608" stroke="#B0B0B0" stroke-miterlimit="10"/>
<path d="M28.8864 39.9792V25.1712C28.8864 23.874 28.3711 22.6299 27.4538 21.7126C26.5365 20.7954 25.2924 20.28 23.9952 20.28C22.698 20.28 21.4539 20.7954 20.5366 21.7126C19.6193 22.6299 19.104 23.874 19.104 25.1712V39.9792H28.8864Z" stroke="#B0B0B0" stroke-miterlimit="10"/>
<path d="M19.1376 24.5999H28.848" stroke="#B0B0B0" stroke-miterlimit="10"/>
<path d="M23.9952 18.7632V20.28" stroke="#B0B0B0" stroke-miterlimit="10"/>
<path d="M25.6656 39.8831V29.6975C25.6656 29.2253 25.478 28.7723 25.144 28.4383C24.8101 28.1044 24.3571 27.9167 23.8848 27.9167C23.4125 27.9167 22.9596 28.1044 22.6256 28.4383C22.2916 28.7723 22.104 29.2253 22.104 29.6975V39.8831H25.6656Z" stroke="url(#paint4_linear_171_2001)" stroke-miterlimit="10"/>
<defs>
<linearGradient id="paint0_linear_171_2001" x1="8.41579" y1="32.4908" x2="14.092" y2="38.8693" gradientUnits="userSpaceOnUse">
<stop stop-color="#FF2425"/>
<stop offset="0.5" stop-color="#3246FF"/>
<stop offset="1" stop-color="#3246FF"/>
</linearGradient>
<linearGradient id="paint1_linear_171_2001" x1="17.0457" y1="8.1487" x2="18.1225" y2="9.45275" gradientUnits="userSpaceOnUse">
<stop stop-color="#FF2425"/>
<stop offset="0.5" stop-color="#3246FF"/>
<stop offset="1" stop-color="#3246FF"/>
</linearGradient>
<linearGradient id="paint2_linear_171_2001" x1="36.2913" y1="32.4641" x2="41.983" y2="38.9043" gradientUnits="userSpaceOnUse">
<stop stop-color="#FF2425"/>
<stop offset="0.5" stop-color="#3246FF"/>
<stop offset="1" stop-color="#3246FF"/>
</linearGradient>
<linearGradient id="paint3_linear_171_2001" x1="31.2777" y1="8.1487" x2="32.3545" y2="9.45275" gradientUnits="userSpaceOnUse">
<stop stop-color="#FF2425"/>
<stop offset="0.5" stop-color="#3246FF"/>
<stop offset="1" stop-color="#3246FF"/>
</linearGradient>
<linearGradient id="paint4_linear_171_2001" x1="22.6715" y1="28.8952" x2="29.8481" y2="32.9432" gradientUnits="userSpaceOnUse">
<stop stop-color="#FF2425"/>
<stop offset="0.5" stop-color="#3246FF"/>
<stop offset="1" stop-color="#3246FF"/>
</linearGradient>
</defs>
</svg>
