<svg width="48" height="48" viewBox="0 0 48 48" fill="none" xmlns="http://www.w3.org/2000/svg">
<path d="M14.9764 42.432H7.58438C7.29638 42.432 7.10438 42.24 7.10438 41.952V26.784C7.10438 26.496 7.29638 26.304 7.58438 26.304H14.9764C15.2644 26.304 15.4564 26.496 15.4564 26.784V41.856C15.4564 42.144 15.2644 42.432 14.9764 42.432ZM8.06438 41.472H14.4964V27.264H8.06438V41.472Z" fill="#B0B0B0"/>
<path d="M33.6966 42.4322H14.9766C14.6886 42.4322 14.4966 42.2402 14.4966 41.9522V28.0322C14.4966 27.7442 14.6886 27.5522 14.9766 27.5522H33.6966C33.9846 27.5522 34.1766 27.7442 34.1766 28.0322V41.9522C34.1766 42.1442 33.9846 42.4322 33.6966 42.4322ZM15.4566 41.4722H33.2166V28.5122H15.4566V41.4722Z" fill="#B0B0B0"/>
<path d="M14.2082 27.2642H8.35219C8.06419 27.2642 7.87219 27.0722 7.87219 26.7842V24.1922C7.87219 23.9042 8.06419 23.7122 8.35219 23.7122H14.2082C14.4962 23.7122 14.6882 23.9042 14.6882 24.1922V26.7842C14.6882 27.0722 14.4962 27.2642 14.2082 27.2642ZM8.83219 26.3042H13.7282V24.6722H8.83219V26.3042Z" fill="#B0B0B0"/>
<path d="M13.5364 24.6722H9.02437C8.73637 24.6722 8.54437 24.4802 8.54437 24.1922V23.1362C8.54437 21.8882 9.02437 20.8322 9.88838 19.9682L10.9444 18.9122C11.0404 18.8162 11.1364 18.8162 11.3284 18.8162C11.4244 18.8162 11.6164 18.9122 11.7124 18.9122L12.7684 19.9682C13.6324 20.8322 14.1124 21.9842 14.1124 23.1362V24.1922C14.0164 24.4802 13.8244 24.6722 13.5364 24.6722ZM9.50437 23.7122H12.9604V23.1362C12.9604 22.1762 12.5764 21.3122 11.9044 20.6402L11.2324 19.9682L10.5604 20.6402C9.88838 21.3122 9.50437 22.1762 9.50437 23.1362V23.7122Z" fill="#B0B0B0"/>
<path d="M11.3288 19.6799C11.0408 19.6799 10.8488 19.4879 10.8488 19.1999V17.0879C10.8488 16.7999 11.0408 16.6079 11.3288 16.6079C11.6168 16.6079 11.8088 16.7999 11.8088 17.0879V19.1999C11.8088 19.4879 11.5208 19.6799 11.3288 19.6799Z" fill="#B0B0B0"/>
<path d="M41.0886 42.432H33.6966C33.4086 42.432 33.2166 42.24 33.2166 41.952V26.784C33.2166 26.496 33.4086 26.304 33.6966 26.304H41.0886C41.3766 26.304 41.5686 26.496 41.5686 26.784V41.856C41.5686 42.144 41.3766 42.432 41.0886 42.432ZM34.1766 41.472H40.6086V27.264H34.1766V41.472Z" fill="#B0B0B0"/>
<path d="M40.3204 27.2642H34.4644C34.1764 27.2642 33.9844 27.0722 33.9844 26.7842V24.1922C33.9844 23.9042 34.1764 23.7122 34.4644 23.7122H40.3204C40.6084 23.7122 40.8004 23.9042 40.8004 24.1922V26.7842C40.8004 27.0722 40.6084 27.2642 40.3204 27.2642ZM34.9444 26.3042H39.8404V24.6722H34.9444V26.3042Z" fill="#B0B0B0"/>
<path d="M39.6482 24.6718H35.2322C34.9442 24.6718 34.7522 24.4798 34.7522 24.1918V23.1358C34.7522 21.8878 35.2322 20.8318 36.0962 19.9678L37.1522 18.9118C37.3442 18.7198 37.6322 18.7198 37.8242 18.9118L38.8802 19.9678C39.7442 20.8318 40.2242 21.9838 40.2242 23.1358V24.1918C40.1282 24.4798 39.9362 24.6718 39.6482 24.6718ZM35.7122 23.7118H39.1682V23.1358C39.1682 22.1758 38.7842 21.3118 38.1122 20.6398L37.4402 19.9678L36.7682 20.6398C36.0962 21.3118 35.7122 22.1758 35.7122 23.1358V23.7118Z" fill="#B0B0B0"/>
<path d="M30.7202 18.7203H17.9522V17.4723C17.9522 14.6883 19.3922 12.0963 21.6962 10.5603L24.3842 8.83228L27.0722 10.5603C29.3762 12.0963 30.8162 14.6883 30.8162 17.4723V18.7203H30.7202Z" fill="url(#paint0_linear_171_1761)"/>
<path d="M30.7202 19.2H17.9522C17.6642 19.2 17.4722 19.008 17.4722 18.72V17.472C17.4722 14.496 18.9122 11.808 21.4082 10.08L24.0962 8.35203C24.2882 8.25603 24.4802 8.25603 24.6722 8.35203L27.2642 10.176C29.7602 11.808 31.2002 14.592 31.2002 17.568V18.816C31.2002 19.008 31.0082 19.2 30.7202 19.2ZM18.4322 18.24H30.2402V17.472C30.2402 14.784 28.8962 12.384 26.6882 10.944L24.3842 9.40803L21.9842 10.944C19.7762 12.384 18.4322 14.88 18.4322 17.472V18.24Z" fill="#B0B0B0"/>
<path d="M37.44 19.6799C37.152 19.6799 36.96 19.4879 36.96 19.1999V17.0879C36.96 16.7999 37.152 16.6079 37.44 16.6079C37.728 16.6079 37.92 16.7999 37.92 17.0879V19.1999C37.92 19.4879 37.728 19.6799 37.44 19.6799Z" fill="#B0B0B0"/>
<path d="M24.3844 9.31199C24.0964 9.31199 23.9044 9.11999 23.9044 8.83199V6.71999C23.9044 6.43199 24.0964 6.23999 24.3844 6.23999C24.6724 6.23999 24.8644 6.43199 24.8644 6.71999V8.83199C24.8644 9.11999 24.5764 9.31199 24.3844 9.31199Z" fill="#B0B0B0"/>
<path d="M31.7762 31.4878H16.9922C16.7042 31.4878 16.5122 31.2958 16.5122 31.0078C16.5122 30.7198 16.7042 30.5278 16.9922 30.5278H31.7762C32.0642 30.5278 32.2562 30.7198 32.2562 31.0078C32.2562 31.2958 31.9682 31.4878 31.7762 31.4878Z" fill="url(#paint1_linear_171_1761)"/>
<path d="M18.72 39.9359C18.432 39.9359 18.24 39.7439 18.24 39.4559V33.0239C18.24 32.7359 18.432 32.5439 18.72 32.5439C19.008 32.5439 19.2 32.7359 19.2 33.0239V39.4559C19.2 39.7439 19.008 39.9359 18.72 39.9359Z" fill="#B0B0B0"/>
<path d="M22.1766 39.9359C21.8886 39.9359 21.6966 39.7439 21.6966 39.4559V33.0239C21.6966 32.7359 21.8886 32.5439 22.1766 32.5439C22.4646 32.5439 22.6566 32.7359 22.6566 33.0239V39.4559C22.6566 39.7439 22.4646 39.9359 22.1766 39.9359Z" fill="url(#paint2_linear_171_1761)"/>
<path d="M26.2088 39.9359C25.9208 39.9359 25.7288 39.7439 25.7288 39.4559V33.0239C25.7288 32.7359 25.9208 32.5439 26.2088 32.5439C26.4968 32.5439 26.6888 32.7359 26.6888 33.0239V39.4559C26.6888 39.7439 26.4968 39.9359 26.2088 39.9359Z" fill="url(#paint3_linear_171_1761)"/>
<path d="M29.6644 39.9359C29.3764 39.9359 29.1844 39.7439 29.1844 39.4559V33.0239C29.1844 32.7359 29.3764 32.5439 29.6644 32.5439C29.9524 32.5439 30.1444 32.7359 30.1444 33.0239V39.4559C30.1444 39.7439 29.9524 39.9359 29.6644 39.9359Z" fill="#B0B0B0"/>
<path d="M38.88 33.5039H36C35.712 33.5039 35.52 33.3119 35.52 33.0239C35.52 32.7359 35.712 32.5439 36 32.5439H38.88C39.168 32.5439 39.36 32.7359 39.36 33.0239C39.36 33.3119 39.168 33.5039 38.88 33.5039Z" fill="url(#paint4_linear_171_1761)"/>
<path d="M38.88 37.824H36C35.712 37.824 35.52 37.632 35.52 37.344C35.52 37.056 35.712 36.864 36 36.864H38.88C39.168 36.864 39.36 37.056 39.36 37.344C39.36 37.632 39.168 37.824 38.88 37.824Z" fill="#B0B0B0"/>
<path d="M12.7688 33.5039H9.88877C9.60077 33.5039 9.40875 33.3119 9.40875 33.0239C9.40875 32.7359 9.60077 32.5439 9.88877 32.5439H12.7688C13.0568 32.5439 13.2488 32.7359 13.2488 33.0239C13.2488 33.3119 12.9608 33.5039 12.7688 33.5039Z" fill="url(#paint5_linear_171_1761)"/>
<path d="M12.7688 37.824H9.88877C9.60077 37.824 9.40875 37.632 9.40875 37.344C9.40875 37.056 9.60077 36.864 9.88877 36.864H12.7688C13.0568 36.864 13.2488 37.056 13.2488 37.344C13.2488 37.632 12.9608 37.824 12.7688 37.824Z" fill="#B0B0B0"/>
<path d="M31.392 28.5117H17.28C16.992 28.5117 16.8 28.3197 16.8 28.0317V21.4077C16.8 21.1197 16.992 20.9277 17.28 20.9277H31.392C31.68 20.9277 31.872 21.1197 31.872 21.4077V28.0317C31.872 28.3197 31.68 28.5117 31.392 28.5117ZM17.76 27.5517H30.912V21.8877H17.76V27.5517Z" fill="#B0B0B0"/>
<path d="M32.1608 21.888H16.6088C16.3208 21.888 16.1288 21.696 16.1288 21.408V18.72C16.1288 18.432 16.3208 18.24 16.6088 18.24H32.1608C32.4488 18.24 32.6408 18.432 32.6408 18.72V21.408C32.6408 21.696 32.3528 21.888 32.1608 21.888ZM17.0888 20.928H31.6808V19.2H17.0888V20.928Z" fill="#B0B0B0"/>
<path d="M43.9688 42.4322H41.0888C40.8008 42.4322 40.6088 42.2402 40.6088 41.9522C40.6088 41.6642 40.8008 41.4722 41.0888 41.4722H43.9688C44.2568 41.4722 44.4488 41.6642 44.4488 41.9522C44.4488 42.2402 44.2568 42.4322 43.9688 42.4322Z" fill="#B0B0B0"/>
<path d="M7.58437 42.4322H4.70437C4.41637 42.4322 4.22437 42.2402 4.22437 41.9522C4.22437 41.6642 4.41637 41.4722 4.70437 41.4722H7.58437C7.87237 41.4722 8.06437 41.6642 8.06437 41.9522C8.06437 42.2402 7.87237 42.4322 7.58437 42.4322Z" fill="#B0B0B0"/>
<defs>
<linearGradient id="paint0_linear_171_1761" x1="20.0018" y1="9.64077" x2="24.8286" y2="21.5413" gradientUnits="userSpaceOnUse">
<stop stop-color="#FF2425"/>
<stop offset="0.5" stop-color="#3246FF"/>
<stop offset="1" stop-color="#3246FF"/>
</linearGradient>
<linearGradient id="paint1_linear_171_1761" x1="19.0207" y1="30.6063" x2="19.0639" y2="31.9504" gradientUnits="userSpaceOnUse">
<stop stop-color="#FF2425"/>
<stop offset="0.5" stop-color="#3246FF"/>
<stop offset="1" stop-color="#3246FF"/>
</linearGradient>
<linearGradient id="paint2_linear_171_1761" x1="21.8495" y1="33.1484" x2="24.2537" y2="33.7401" gradientUnits="userSpaceOnUse">
<stop stop-color="#FF2425"/>
<stop offset="0.5" stop-color="#3246FF"/>
<stop offset="1" stop-color="#3246FF"/>
</linearGradient>
<linearGradient id="paint3_linear_171_1761" x1="25.8817" y1="33.1484" x2="28.2859" y2="33.7401" gradientUnits="userSpaceOnUse">
<stop stop-color="#FF2425"/>
<stop offset="0.5" stop-color="#3246FF"/>
<stop offset="1" stop-color="#3246FF"/>
</linearGradient>
<linearGradient id="paint4_linear_171_1761" x1="36.1318" y1="32.6224" x2="36.3063" y2="33.9449" gradientUnits="userSpaceOnUse">
<stop stop-color="#FF2425"/>
<stop offset="0.5" stop-color="#3246FF"/>
<stop offset="1" stop-color="#3246FF"/>
</linearGradient>
<linearGradient id="paint5_linear_171_1761" x1="10.0206" y1="32.6224" x2="10.195" y2="33.9449" gradientUnits="userSpaceOnUse">
<stop stop-color="#FF2425"/>
<stop offset="0.5" stop-color="#3246FF"/>
<stop offset="1" stop-color="#3246FF"/>
</linearGradient>
</defs>
</svg>
