<svg width="48" height="48" viewBox="0 0 48 48" fill="none" xmlns="http://www.w3.org/2000/svg">
<path d="M46.6098 41.4352H43.3709V38.3512C43.3709 37.9628 43.0562 37.6481 42.6678 37.6481C42.2794 37.6481 41.9647 37.9628 41.9647 38.3512V41.4352C40.8121 41.4352 32.5411 41.4352 31.4171 41.4352V32.5836H41.9647V35.07C41.9647 35.4584 42.2794 35.7731 42.6678 35.7731C43.0562 35.7731 43.3709 35.4584 43.3709 35.07C43.3709 34.4807 43.3709 29.5613 43.3709 28.9727H43.6174C44.2992 28.9727 44.854 28.4179 44.854 27.736V26.2238C44.854 25.542 44.2992 24.9872 43.6174 24.9872H43.3709V23.6446C43.3709 22.9628 42.8161 22.4079 42.1343 22.4079H40.9287V19.1885C41.3746 19.0015 41.6887 18.5606 41.6887 18.0476V16.5354C41.6887 15.8534 41.1339 15.2987 40.452 15.2987H40.2057V13.9561C40.2057 13.2742 39.6508 12.7195 38.969 12.7195H34.5771V10.1924C35.1264 10.0665 35.5379 9.57474 35.5379 8.98778V7.47559C35.5379 6.79366 34.9831 6.23894 34.3012 6.23894H33.101V5.05573C33.101 4.02805 32.2649 3.19189 31.2372 3.19189H30.0554C30.0288 1.42743 28.586 0 26.8153 0H25.6406C25.2522 0 24.9375 0.314811 24.9375 0.703122C24.9375 1.09143 25.2522 1.40624 25.6406 1.40624H26.8153C27.8106 1.40624 28.6234 2.20274 28.6496 3.19189H19.3504C19.3767 2.20274 20.1895 1.40624 21.1848 1.40624H22.3594C22.7478 1.40624 23.0625 1.09143 23.0625 0.703122C23.0625 0.314811 22.7478 0 22.3594 0H21.1848C19.4141 0 17.9714 1.42743 17.9448 3.19189H16.7629C15.7352 3.19189 14.8991 4.02795 14.8991 5.05573V6.23876H13.6989C13.017 6.23876 12.4622 6.79347 12.4622 7.47541V8.98759C12.4622 9.57456 12.8737 10.0664 13.4231 10.1922V12.7192H9.03118C8.34934 12.7192 7.79453 13.2739 7.79453 13.9559V15.2984H7.54806C6.86622 15.2984 6.31151 15.8532 6.31151 16.5351V18.0473C6.31151 18.5603 6.62557 19.0012 7.07144 19.1882V22.4077H5.86591C5.18407 22.4077 4.62926 22.9625 4.62926 23.6443V24.9869H4.3828C3.70095 24.9869 3.14614 25.5417 3.14614 26.2236V27.7357C3.14614 28.4176 3.70095 28.9724 4.3828 28.9724H4.62926V41.435H1.39031C0.623623 41.435 0 42.0586 0 42.8252V46.6095C0 47.3762 0.623623 47.9998 1.39031 47.9998H46.6098C47.3764 47.9998 48 47.3762 48 46.6095V42.8252C48 42.0588 47.3764 41.4352 46.6098 41.4352ZM31.3659 44.0144H16.6343V42.8414H31.3659V44.0144ZM16.3053 26.3933H31.6947V27.5664C30.7427 27.5664 16.8046 27.5664 16.3053 27.5664V26.3933ZM11.8791 19.2841H13.7181V22.4078H11.8791V19.2841ZM15.1243 19.2841H17.1195V22.4078H15.1243V19.2841ZM17.6594 16.7048H30.3406V17.8779C29.6843 17.8779 18.0532 17.8779 17.6594 17.8779V16.7048ZM19.1426 14.1254H28.8575V15.2985H19.1426V14.1254ZM20.944 10.2243H27.0561V12.7193H20.944V10.2243ZM36.121 22.4078H34.2819V19.2841H36.121V22.4078ZM32.8757 22.4078H30.8806V19.2841H32.8757V22.4078ZM18.5259 22.4078V19.2841H29.4743V22.4078H18.5259ZM17.7884 23.814H30.1774H30.2116V24.9871H17.7884V23.814ZM26.0554 41.4352H21.9447V33.3436H26.0554V41.4352ZM27.4616 41.4352V33.3088C27.4616 32.5526 26.8464 31.9373 26.0901 31.9373H21.9099C21.1538 31.9373 20.5385 32.5525 20.5385 33.3088V41.4352H17.9892C17.9892 40.9401 17.9892 29.8039 17.9892 28.9726H30.0109V41.4352H27.4616ZM41.9647 31.1774H31.4171V28.9726H41.9647V31.1774ZM43.4478 27.5663H42.6679H33.1009V26.3933H42.6678H43.4477L43.4478 27.5663ZM41.9647 24.9871C41.0273 24.9871 32.5549 24.9871 31.6179 24.9871V23.814H41.9647V24.9871ZM37.5272 22.4078V19.2841H39.5223V22.4078H37.5272ZM40.2824 17.8779H40.2255C39.2594 17.8779 32.7829 17.8779 31.7469 17.8779V16.7048H39.5026H40.2825L40.2824 17.8779ZM38.7994 15.2985C37.8565 15.2985 31.0778 15.2985 30.2638 15.2985V14.1254H38.7994V15.2985ZM29.027 12.7192H28.4624V10.2243H33.1709V12.7193L29.027 12.7192ZM16.3053 5.05573C16.3053 4.80767 16.5148 4.59814 16.7629 4.59814H31.2372C31.4853 4.59814 31.6948 4.80767 31.6948 5.05573V6.23876H16.3053V5.05573ZM13.8685 7.64491H34.1316V8.81809C33.3444 8.81809 18.2298 8.81809 13.8685 8.81809V7.64491ZM14.8293 10.2243H19.5378V12.7193H18.9731H14.8294L14.8293 10.2243ZM9.20078 14.1254H17.7364V15.2985C16.9224 15.2985 10.1439 15.2985 9.20078 15.2985V14.1254ZM7.71775 16.7048H8.49765H16.2533V17.8779C15.2154 17.8779 8.74056 17.8779 7.77466 17.8779H7.71784L7.71775 16.7048ZM8.47769 19.2841H10.4729V22.4078H8.47769V19.2841ZM6.03541 23.814H16.3822V24.9871C15.445 24.9871 6.97338 24.9871 6.03541 24.9871V23.814ZM4.55229 26.3933H14.8991V27.5664C12.7171 27.5664 6.73376 27.5664 4.55229 27.5664V26.3933ZM16.583 28.9726V31.1774H6.03541V28.9726H16.583ZM6.03541 32.5836H16.583V41.4352C15.459 41.4352 7.18797 41.4352 6.03541 41.4352V32.5836ZM1.40624 42.8414H15.228V44.0144H14.7733C14.0698 44.0144 13.4973 44.5869 13.4973 45.2904V46.5938H1.40624V42.8414ZM14.9036 46.5938V45.4206L33.0966 45.4207V46.5938H14.9036ZM46.5938 46.5938H34.5028V45.2904C34.5028 44.5869 33.9303 44.0145 33.2267 44.0145H32.7721V42.8414H46.5938V46.5938Z" fill="#B0B0B0"/>
<path d="M26.0554 41.4352H21.9447V33.3436H26.0554V41.4352Z" fill="white"/>
<path d="M13.8685 7.64491H34.1316V8.81809H13.8685V7.64491Z" fill="white"/>
<path d="M14.9036 46.5938V45.4206L33.0966 45.4207V46.5938H14.9036Z" fill="white"/>
</svg>
