<svg width="48" height="48" viewBox="0 0 48 48" fill="none" xmlns="http://www.w3.org/2000/svg">
<path d="M14.04 12.4802C14.04 12.4802 15 26.3186 22.7616 22.637C30.5232 18.9554 35.64 19.3586 32.6784 16.9586C29.7168 14.5586 16.728 20.1602 16.728 20.1602C16.728 20.1602 17.9616 15.413 26.1984 14.6162V8.37622H20.6784V11.6546C20.6784 11.6546 20.8416 16.133 18.2016 13.6562L15.5616 11.1746C15.5616 11.1746 13.7904 10.4978 14.04 12.4802Z" fill="#E7E7E7" stroke="#B0B0B0" stroke-miterlimit="10"/>
<path d="M26.1984 14.6306L27.3216 16.709" stroke="#B0B0B0" stroke-miterlimit="10"/>
<path d="M24.8016 7.73291H25.5984" stroke="#B0B0B0" stroke-miterlimit="10"/>
<path d="M22.8816 7.73291H23.6784" stroke="#B0B0B0" stroke-miterlimit="10"/>
<path d="M20.9616 7.73291H21.7584" stroke="#B0B0B0" stroke-miterlimit="10"/>
<path d="M14.52 26.4673H33.528V37.5073H14.52V26.4673Z" stroke="#B0B0B0" stroke-miterlimit="10"/>
<path d="M21.36 23.2512V34.2288" stroke="#B0B0B0" stroke-miterlimit="10"/>
<path d="M19.8816 34.229H22.7616V37.5074H19.8816V34.229Z" stroke="#B0B0B0" stroke-miterlimit="10"/>
<path d="M27.72 31.1472H33.528V37.5072H27.72V31.1472Z" fill="url(#paint0_linear_171_1937)" stroke="#B0B0B0" stroke-miterlimit="10"/>
<path d="M10.1616 37.5073H37.8432V40.2673H10.1616V37.5073Z" stroke="#B0B0B0" stroke-miterlimit="10"/>
<defs>
<linearGradient id="paint0_linear_171_1937" x1="28.6454" y1="31.6672" x2="32.5067" y2="38.3498" gradientUnits="userSpaceOnUse">
<stop stop-color="#FF2425"/>
<stop offset="0.5" stop-color="#3246FF"/>
<stop offset="1" stop-color="#3246FF"/>
</linearGradient>
</defs>
</svg>
