<svg width="48" height="48" viewBox="0 0 48 48" fill="none" xmlns="http://www.w3.org/2000/svg">
<path d="M27.5156 35.4746H20.4844C19.9148 35.4746 19.4531 35.9363 19.4531 36.5059V46.4999C19.4531 47.0694 19.9148 47.5311 20.4844 47.5311C21.0539 47.5311 21.5156 47.0694 21.5156 46.4999V37.5371H26.4844V46.4999C26.4844 47.0694 26.9461 47.5311 27.5156 47.5311C28.0852 47.5311 28.5469 47.0694 28.5469 46.4999V36.5059C28.5469 35.9363 28.0852 35.4746 27.5156 35.4746Z" fill="url(#paint0_linear_171_2088)"/>
<path d="M10.7344 38.718C8.87663 38.718 7.36519 40.2295 7.36519 42.0872V46.5001C7.36519 47.0696 7.82691 47.5314 8.39644 47.5314C8.96597 47.5314 9.42769 47.0696 9.42769 46.5001V42.0872C9.42769 41.3666 10.0139 40.7805 10.7344 40.7805C11.4548 40.7805 12.0411 41.3666 12.0411 42.0872V46.5001C12.0411 47.0696 12.5028 47.5314 13.0723 47.5314C13.6418 47.5314 14.1036 47.0696 14.1036 46.5001V42.0872C14.1036 40.2295 12.5921 38.718 10.7344 38.718Z" fill="url(#paint1_linear_171_2088)"/>
<path d="M37.2656 38.718C35.4079 38.718 33.8964 40.2295 33.8964 42.0872V46.5001C33.8964 47.0696 34.3582 47.5314 34.9277 47.5314C35.4972 47.5314 35.9589 47.0696 35.9589 46.5001V42.0872C35.9589 41.3666 36.5452 40.7805 37.2656 40.7805C37.9861 40.7805 38.5723 41.3666 38.5723 42.0872V46.5001C38.5723 47.0696 39.034 47.5314 39.6036 47.5314C40.1731 47.5314 40.6348 47.0696 40.6348 46.5001V42.0872C40.6348 40.2295 39.1234 38.718 37.2656 38.718Z" fill="url(#paint2_linear_171_2088)"/>
<path d="M24 4.875C24.5695 4.875 25.0312 4.41328 25.0312 3.84375V1.03125C25.0312 0.461719 24.5695 0 24 0C23.4305 0 22.9688 0.461719 22.9688 1.03125V3.84375C22.9688 4.41328 23.4305 4.875 24 4.875Z" fill="url(#paint3_linear_171_2088)"/>
<path d="M18.2798 1.40625C17.7102 1.40625 17.2485 1.86797 17.2485 2.4375V3.84375C17.2485 4.41328 17.7102 4.875 18.2798 4.875C18.8493 4.875 19.311 4.41328 19.311 3.84375V2.4375C19.311 1.86797 18.8494 1.40625 18.2798 1.40625Z" fill="url(#paint4_linear_171_2088)"/>
<path d="M29.7202 1.40625C29.1507 1.40625 28.689 1.86797 28.689 2.4375V3.84375C28.689 4.41328 29.1507 4.875 29.7202 4.875C30.2898 4.875 30.7515 4.41328 30.7515 3.84375V2.4375C30.7515 1.86797 30.2898 1.40625 29.7202 1.40625Z" fill="url(#paint5_linear_171_2088)"/>
<path d="M24 23.6593C24.5695 23.6593 25.0312 23.1976 25.0312 22.628V9.70703C25.0312 9.1375 24.5695 8.67578 24 8.67578C23.4305 8.67578 22.9688 9.1375 22.9688 9.70703V22.628C22.9688 23.1976 23.4305 23.6593 24 23.6593Z" fill="url(#paint6_linear_171_2088)"/>
<path d="M44.625 32.8125H41.1784V28.9417C41.1784 28.3722 40.7167 27.9105 40.1471 27.9105H39.5636V24.0159C39.5636 23.4464 39.1019 22.9847 38.5324 22.9847H37.9489V19.0901C37.9489 18.5206 37.4872 18.0589 36.9176 18.0589H36.3341V14.1643C36.3341 13.5948 35.8724 13.1331 35.3029 13.1331H34.7194V9.23831C34.7194 8.66878 34.2577 8.20706 33.6881 8.20706H33.1047V4.3125C33.1047 3.74297 32.643 3.28125 32.0735 3.28125H15.9264C15.3569 3.28125 14.8952 3.74297 14.8952 4.3125V8.20706H14.3117C13.7422 8.20706 13.2804 8.66878 13.2804 9.23831V13.1329H12.697C12.1275 13.1329 11.6658 13.5946 11.6658 14.1641V18.0587H11.0823C10.5127 18.0587 10.051 18.5204 10.051 19.0899V22.9845H9.46762C8.89809 22.9845 8.43637 23.4462 8.43637 24.0158V27.9103H7.85287C7.28334 27.9103 6.82162 28.372 6.82162 28.9416V32.8125H3.375C2.80547 32.8125 2.34375 33.2742 2.34375 33.8438V46.9688C2.34375 47.5383 2.80547 48 3.375 48H44.625C45.1945 48 45.6562 47.5383 45.6562 46.9688V33.8438C45.6562 33.2742 45.1945 32.8125 44.625 32.8125ZM35.5215 32.8125C35.3472 31.755 34.9093 30.7852 34.278 29.973H39.1159V32.8125H35.5215ZM31.4606 27.9105C31.072 27.7677 30.6657 27.6621 30.2459 27.5979C30.1034 26.6654 29.7563 25.7993 29.252 25.0472H37.5011V27.9105H31.4606ZM16.9577 5.34375H31.0423V8.20706H16.9577V5.34375ZM15.3429 10.2696H32.6571V13.1329H15.3429V10.2696ZM13.7283 15.1955H34.2717V18.0588H13.7283V15.1955ZM12.1135 20.1213H35.8865V22.9846H26.9775C26.0899 22.5084 25.076 22.2382 24.0001 22.2382C22.9242 22.2382 21.9103 22.5084 21.0227 22.9846H12.1135V20.1213ZM10.4989 25.0471H18.7481C18.2438 25.7993 17.8967 26.6654 17.7542 27.5978C17.3344 27.662 16.9281 27.7676 16.5395 27.9104H10.4989V25.0471ZM8.88412 29.973H13.7221C13.0907 30.7852 12.6529 31.755 12.4786 32.8125H8.88412V29.973ZM43.5938 45.9375H4.40625V34.875H13.4257C13.9953 34.875 14.457 34.4133 14.457 33.8438C14.457 31.497 16.3662 29.5879 18.7129 29.5879C19.2824 29.5879 19.7441 29.1262 19.7441 28.5566C19.7441 26.2099 21.6533 24.3008 24 24.3008C26.3467 24.3008 28.256 26.21 28.256 28.5566C28.256 29.1262 28.7177 29.5879 29.2872 29.5879C31.6339 29.5879 33.5431 31.4971 33.5431 33.8438C33.5431 34.4133 34.0048 34.875 34.5743 34.875H43.5938V45.9375Z" fill="#B0B0B0"/>
<defs>
<linearGradient id="paint0_linear_171_2088" x1="20.902" y1="36.4604" x2="28.8388" y2="47.8055" gradientUnits="userSpaceOnUse">
<stop stop-color="#FF2425"/>
<stop offset="0.5" stop-color="#3246FF"/>
<stop offset="1" stop-color="#3246FF"/>
</linearGradient>
<linearGradient id="paint1_linear_171_2088" x1="8.43882" y1="39.4386" x2="14.2132" y2="47.8055" gradientUnits="userSpaceOnUse">
<stop stop-color="#FF2425"/>
<stop offset="0.5" stop-color="#3246FF"/>
<stop offset="1" stop-color="#3246FF"/>
</linearGradient>
<linearGradient id="paint2_linear_171_2088" x1="34.9701" y1="39.4386" x2="40.7445" y2="47.8055" gradientUnits="userSpaceOnUse">
<stop stop-color="#FF2425"/>
<stop offset="0.5" stop-color="#3246FF"/>
<stop offset="1" stop-color="#3246FF"/>
</linearGradient>
<linearGradient id="paint3_linear_171_2088" x1="23.2974" y1="0.398603" x2="26.6319" y2="3.07219" gradientUnits="userSpaceOnUse">
<stop stop-color="#FF2425"/>
<stop offset="0.5" stop-color="#3246FF"/>
<stop offset="1" stop-color="#3246FF"/>
</linearGradient>
<linearGradient id="paint4_linear_171_2088" x1="17.5771" y1="1.68987" x2="19.9907" y2="4.40955" gradientUnits="userSpaceOnUse">
<stop stop-color="#FF2425"/>
<stop offset="0.5" stop-color="#3246FF"/>
<stop offset="1" stop-color="#3246FF"/>
</linearGradient>
<linearGradient id="paint5_linear_171_2088" x1="29.0176" y1="1.68987" x2="31.4312" y2="4.40955" gradientUnits="userSpaceOnUse">
<stop stop-color="#FF2425"/>
<stop offset="0.5" stop-color="#3246FF"/>
<stop offset="1" stop-color="#3246FF"/>
</linearGradient>
<linearGradient id="paint6_linear_171_2088" x1="23.2974" y1="9.9009" x2="28.4265" y2="11.2389" gradientUnits="userSpaceOnUse">
<stop stop-color="#FF2425"/>
<stop offset="0.5" stop-color="#3246FF"/>
<stop offset="1" stop-color="#3246FF"/>
</linearGradient>
</defs>
</svg>
