<svg width="48" height="48" viewBox="0 0 48 48" fill="none" xmlns="http://www.w3.org/2000/svg">
<mask id="mask0_171_1736" style="mask-type:luminance" maskUnits="userSpaceOnUse" x="2" y="3" width="45" height="41">
<path d="M46.08 3.84009H2.88V43.9675H46.08V3.84009Z" fill="white"/>
</mask>
<g mask="url(#mask0_171_1736)">
<path d="M11.25 19.0444L11.115 43.4276H18.27V34.645L18.473 28.3032L19.6535 25.3333L21.8816 23.9044L24.683 23.0037L28.0915 23.9044L30.0485 26.3452L30.825 29.4503V38.7987V43.4276L37.8784 43.2883V32.2182L38.0481 22.4982V19.0444H11.25Z" fill="white"/>
<path d="M38.0481 9.23584H11.115V14.1855H38.0481V9.23584Z" fill="url(#paint0_linear_171_1736)"/>
<path d="M40.3772 14.1855H8.78719V19.0433H40.3772V14.1855Z" fill="white"/>
<path d="M34.2132 4.41992H14.6381V9.27776H34.2132V4.41992Z" fill="white"/>
<path d="M37.9572 14.6401H10.9453C10.8021 14.6401 10.6647 14.5832 10.5635 14.4819C10.4622 14.3806 10.4053 14.2433 10.4053 14.1001V9.31783C10.4053 9.17462 10.4622 9.03727 10.5635 8.936C10.6647 8.83473 10.8021 8.77783 10.9453 8.77783H37.9572C38.1004 8.77783 38.2378 8.83473 38.339 8.936C38.4403 9.03727 38.4972 9.17462 38.4972 9.31783V14.1001C38.4972 14.2433 38.4403 14.3806 38.339 14.4819C38.2378 14.5832 38.1004 14.6401 37.9572 14.6401ZM11.4853 13.5601H37.4172V9.85788H11.4853V13.5601Z" fill="#B0B0B0"/>
<path d="M40.2711 19.4277H8.63251C8.48929 19.4277 8.35194 19.3708 8.25067 19.2696C8.1494 19.1683 8.09251 19.0309 8.09251 18.8877V14.1001C8.09251 13.9568 8.1494 13.8195 8.25067 13.7183C8.35194 13.617 8.48929 13.5601 8.63251 13.5601H40.2765C40.4198 13.5601 40.557 13.617 40.6583 13.7183C40.7596 13.8195 40.8165 13.9568 40.8165 14.1001V18.8845C40.8169 18.9561 40.8031 19.0271 40.7758 19.0934C40.7486 19.1596 40.7083 19.2197 40.6576 19.2703C40.6069 19.3209 40.5466 19.3609 40.4801 19.3878C40.4138 19.4149 40.3428 19.4284 40.2711 19.4277ZM9.17251 18.3477H39.7365V14.6401H9.17251V18.3477Z" fill="#B0B0B0"/>
<path d="M37.9574 43.9677H30.6276C30.4843 43.9677 30.347 43.9108 30.2457 43.8095C30.1444 43.7082 30.0876 43.5708 30.0876 43.4277V29.1349C30.0672 27.6748 29.4729 26.2813 28.4331 25.256C27.3933 24.2307 25.9917 23.6558 24.5315 23.6558C23.0712 23.6558 21.6696 24.2307 20.6298 25.256C19.5901 26.2813 18.9958 27.6748 18.9754 29.1349L18.997 43.4266C18.997 43.5698 18.9401 43.7072 18.8389 43.8084C18.7376 43.9097 18.6002 43.9666 18.457 43.9666H11.1281C10.9849 43.9666 10.8475 43.9097 10.7462 43.8084C10.6451 43.7072 10.5881 43.5698 10.5881 43.4266V18.8879C10.5881 18.7447 10.6451 18.6073 10.7462 18.5061C10.8475 18.4048 10.9849 18.3479 11.1281 18.3479C11.2714 18.3479 11.4087 18.4048 11.5099 18.5061C11.6112 18.6073 11.6681 18.7447 11.6681 18.8879V42.8877H17.9159L17.8922 29.136C17.9145 27.3907 18.6234 25.7244 19.8655 24.498C21.1075 23.2717 22.7827 22.5841 24.5282 22.5841C26.2737 22.5841 27.9489 23.2717 29.191 24.498C30.4331 25.7244 31.142 27.3907 31.1643 29.136V42.8877H37.4143V18.8879C37.4143 18.7447 37.4711 18.6073 37.5724 18.5061C37.6737 18.4048 37.811 18.3479 37.9543 18.3479C38.0975 18.3479 38.2348 18.4048 38.3361 18.5061C38.4373 18.6073 38.4943 18.7447 38.4943 18.8879V43.4277C38.4943 43.5704 38.4378 43.7072 38.3372 43.8083C38.2367 43.9095 38.1001 43.9668 37.9574 43.9677Z" fill="#B0B0B0"/>
<path d="M34.1108 9.85785H14.7928C14.6496 9.85785 14.5122 9.80092 14.411 9.69964C14.3097 9.59842 14.2528 9.46106 14.2528 9.31785V4.38009C14.2528 4.23688 14.3097 4.09952 14.411 3.99825C14.5122 3.89698 14.6496 3.84009 14.7928 3.84009H34.1108C34.254 3.84009 34.3913 3.89698 34.4926 3.99825C34.5939 4.09952 34.6508 4.23688 34.6508 4.38009V9.31785C34.6508 9.46106 34.5939 9.59842 34.4926 9.69964C34.3913 9.80092 34.254 9.85785 34.1108 9.85785ZM15.3328 8.77785H33.5708V4.92009H15.3328V8.77785Z" fill="#B0B0B0"/>
<path d="M35.2217 27.2887H33.1125C32.9693 27.2887 32.8319 27.2318 32.7306 27.1305C32.6294 27.0293 32.5725 26.892 32.5725 26.7487C32.5725 26.6055 32.6294 26.4681 32.7306 26.3669C32.8319 26.2656 32.9693 26.2087 33.1125 26.2087H35.2217C35.365 26.2087 35.5023 26.2656 35.6036 26.3669C35.7048 26.4681 35.7617 26.6055 35.7617 26.7487C35.7617 26.892 35.7048 27.0293 35.6036 27.1305C35.5023 27.2318 35.365 27.2887 35.2217 27.2887Z" fill="#B0B0B0"/>
<path d="M35.2217 31.6974H33.1125C32.9693 31.6974 32.8319 31.6405 32.7306 31.5392C32.6294 31.4379 32.5725 31.3007 32.5725 31.1574C32.5725 31.0142 32.6294 30.8768 32.7306 30.7755C32.8319 30.6743 32.9693 30.6174 33.1125 30.6174H35.2217C35.365 30.6174 35.5023 30.6743 35.6036 30.7755C35.7048 30.8768 35.7617 31.0142 35.7617 31.1574C35.7617 31.3007 35.7048 31.4379 35.6036 31.5392C35.5023 31.6405 35.365 31.6974 35.2217 31.6974Z" fill="url(#paint1_linear_171_1736)"/>
<path d="M35.2217 35.725H33.1125C32.9693 35.725 32.8319 35.6681 32.7306 35.5668C32.6294 35.4655 32.5725 35.3283 32.5725 35.185C32.5725 35.0418 32.6294 34.9044 32.7306 34.8031C32.8319 34.7019 32.9693 34.645 33.1125 34.645H35.2217C35.365 34.645 35.5023 34.7019 35.6036 34.8031C35.7048 34.9044 35.7617 35.0418 35.7617 35.185C35.7617 35.3283 35.7048 35.4655 35.6036 35.5668C35.5023 35.6681 35.365 35.725 35.2217 35.725Z" fill="url(#paint2_linear_171_1736)"/>
<path d="M35.2217 40.1279H33.1125C32.9693 40.1279 32.8319 40.0709 32.7306 39.9697C32.6294 39.8685 32.5725 39.7311 32.5725 39.5879C32.5725 39.4446 32.6294 39.3072 32.7306 39.2061C32.8319 39.1048 32.9693 39.0479 33.1125 39.0479H35.2217C35.365 39.0479 35.5023 39.1048 35.6036 39.2061C35.7048 39.3072 35.7617 39.4446 35.7617 39.5879C35.7617 39.7311 35.7048 39.8685 35.6036 39.9697C35.5023 40.0709 35.365 40.1279 35.2217 40.1279Z" fill="url(#paint3_linear_171_1736)"/>
<path d="M15.8462 27.2887H13.7381C13.595 27.2887 13.4576 27.2318 13.3563 27.1305C13.255 27.0293 13.1981 26.892 13.1981 26.7487C13.1981 26.6055 13.255 26.4681 13.3563 26.3669C13.4576 26.2656 13.595 26.2087 13.7381 26.2087H15.8462C15.9895 26.2087 16.1269 26.2656 16.2281 26.3669C16.3294 26.4681 16.3862 26.6055 16.3862 26.7487C16.3862 26.892 16.3294 27.0293 16.2281 27.1305C16.1269 27.2318 15.9895 27.2887 15.8462 27.2887Z" fill="#B0B0B0"/>
<path d="M15.8462 31.6974H13.7381C13.595 31.6974 13.4576 31.6405 13.3563 31.5392C13.255 31.4379 13.1981 31.3007 13.1981 31.1574C13.1981 31.0142 13.255 30.8768 13.3563 30.7755C13.4576 30.6743 13.595 30.6174 13.7381 30.6174H15.8462C15.9895 30.6174 16.1269 30.6743 16.2281 30.7755C16.3294 30.8768 16.3862 31.0142 16.3862 31.1574C16.3862 31.3007 16.3294 31.4379 16.2281 31.5392C16.1269 31.6405 15.9895 31.6974 15.8462 31.6974Z" fill="url(#paint4_linear_171_1736)"/>
<path d="M15.8462 35.725H13.7381C13.595 35.725 13.4576 35.6681 13.3563 35.5668C13.255 35.4655 13.1981 35.3283 13.1981 35.185C13.1981 35.0418 13.255 34.9044 13.3563 34.8031C13.4576 34.7019 13.595 34.645 13.7381 34.645H15.8462C15.9895 34.645 16.1269 34.7019 16.2281 34.8031C16.3294 34.9044 16.3862 35.0418 16.3862 35.185C16.3862 35.3283 16.3294 35.4655 16.2281 35.5668C16.1269 35.6681 15.9895 35.725 15.8462 35.725Z" fill="url(#paint5_linear_171_1736)"/>
<path d="M15.8462 40.1279H13.7381C13.595 40.1279 13.4576 40.0709 13.3563 39.9697C13.255 39.8685 13.1981 39.7311 13.1981 39.5879C13.1981 39.4446 13.255 39.3072 13.3563 39.2061C13.4576 39.1048 13.595 39.0479 13.7381 39.0479H15.8462C15.9895 39.0479 16.1269 39.1048 16.2281 39.2061C16.3294 39.3072 16.3862 39.4446 16.3862 39.5879C16.3862 39.7311 16.3294 39.8685 16.2281 39.9697C16.1269 40.0709 15.9895 40.1279 15.8462 40.1279Z" fill="url(#paint6_linear_171_1736)"/>
<path d="M45.5396 43.9675H34.1672C34.0239 43.9675 33.8867 43.9106 33.7854 43.8093C33.6841 43.7081 33.6272 43.5707 33.6272 43.4275C33.6272 43.2842 33.6841 43.1469 33.7854 43.0457C33.8867 42.9444 34.0239 42.8875 34.1672 42.8875H45.5396C45.6828 42.8875 45.8201 42.9444 45.9214 43.0457C46.0227 43.1469 46.0796 43.2842 46.0796 43.4275C46.0796 43.5707 46.0227 43.7081 45.9214 43.8093C45.8201 43.9106 45.6828 43.9675 45.5396 43.9675Z" fill="#B0B0B0"/>
<path d="M14.7924 43.9675H3.42C3.27679 43.9675 3.13944 43.9106 3.03816 43.8093C2.93689 43.7081 2.88 43.5707 2.88 43.4275C2.88 43.2842 2.93689 43.1469 3.03816 43.0457C3.13944 42.9444 3.27679 42.8875 3.42 42.8875H14.7924C14.9356 42.8875 15.073 42.9444 15.1742 43.0457C15.2755 43.1469 15.3324 43.2842 15.3324 43.4275C15.3324 43.5707 15.2755 43.7081 15.1742 43.8093C15.073 43.9106 14.9356 43.9675 14.7924 43.9675Z" fill="#B0B0B0"/>
<path d="M42.1922 43.7082C42.049 43.7082 41.9116 43.6513 41.8103 43.55C41.7091 43.4487 41.6522 43.3115 41.6522 43.1682V39.0254C41.6522 38.8821 41.7091 38.7447 41.8103 38.6435C41.9116 38.5422 42.049 38.4854 42.1922 38.4854C42.3354 38.4854 42.4728 38.5422 42.574 38.6435C42.6753 38.7447 42.7322 38.8821 42.7322 39.0254V43.1682C42.7322 43.3115 42.6753 43.4487 42.574 43.55C42.4728 43.6513 42.3354 43.7082 42.1922 43.7082Z" fill="#B0B0B0"/>
<path d="M6.89625 43.7082C6.75303 43.7082 6.61569 43.6513 6.51442 43.55C6.41315 43.4487 6.35625 43.3115 6.35625 43.1682V39.0254C6.35625 38.8821 6.41315 38.7447 6.51442 38.6435C6.61569 38.5422 6.75303 38.4854 6.89625 38.4854C7.03947 38.4854 7.17682 38.5422 7.27809 38.6435C7.37936 38.7447 7.43625 38.8821 7.43625 39.0254V43.1682C7.43625 43.3115 7.37936 43.4487 7.27809 43.55C7.17682 43.6513 7.03947 43.7082 6.89625 43.7082Z" fill="#B0B0B0"/>
</g>
<defs>
<linearGradient id="paint0_linear_171_1736" x1="15.4062" y1="9.64055" x2="16.0727" y2="16.513" gradientUnits="userSpaceOnUse">
<stop stop-color="#FF2425"/>
<stop offset="0.5" stop-color="#3246FF"/>
<stop offset="1" stop-color="#3246FF"/>
</linearGradient>
<linearGradient id="paint1_linear_171_1736" x1="33.0806" y1="30.7057" x2="33.3428" y2="32.1725" gradientUnits="userSpaceOnUse">
<stop stop-color="#FF2425"/>
<stop offset="0.5" stop-color="#3246FF"/>
<stop offset="1" stop-color="#3246FF"/>
</linearGradient>
<linearGradient id="paint2_linear_171_1736" x1="33.0806" y1="34.7333" x2="33.3428" y2="36.2001" gradientUnits="userSpaceOnUse">
<stop stop-color="#FF2425"/>
<stop offset="0.5" stop-color="#3246FF"/>
<stop offset="1" stop-color="#3246FF"/>
</linearGradient>
<linearGradient id="paint3_linear_171_1736" x1="33.0806" y1="39.1362" x2="33.3428" y2="40.603" gradientUnits="userSpaceOnUse">
<stop stop-color="#FF2425"/>
<stop offset="0.5" stop-color="#3246FF"/>
<stop offset="1" stop-color="#3246FF"/>
</linearGradient>
<linearGradient id="paint4_linear_171_1736" x1="13.7061" y1="30.7057" x2="13.9682" y2="32.1725" gradientUnits="userSpaceOnUse">
<stop stop-color="#FF2425"/>
<stop offset="0.5" stop-color="#3246FF"/>
<stop offset="1" stop-color="#3246FF"/>
</linearGradient>
<linearGradient id="paint5_linear_171_1736" x1="13.7061" y1="34.7333" x2="13.9682" y2="36.2001" gradientUnits="userSpaceOnUse">
<stop stop-color="#FF2425"/>
<stop offset="0.5" stop-color="#3246FF"/>
<stop offset="1" stop-color="#3246FF"/>
</linearGradient>
<linearGradient id="paint6_linear_171_1736" x1="13.7061" y1="39.1362" x2="13.9682" y2="40.6029" gradientUnits="userSpaceOnUse">
<stop stop-color="#FF2425"/>
<stop offset="0.5" stop-color="#3246FF"/>
<stop offset="1" stop-color="#3246FF"/>
</linearGradient>
</defs>
</svg>
