<svg width="48" height="48" viewBox="0 0 48 48" fill="none" xmlns="http://www.w3.org/2000/svg">
<path d="M45 44.3232H44.2907V31.5643L45.4707 29.071C45.5107 28.9775 45.5306 28.8843 45.5306 28.7842V25.7842C45.5306 25.4176 45.2306 25.1175 44.8639 25.1175H44.4707C44.4707 21.2535 44.4974 20.6909 44.464 20.6242L45.5573 18.3175C45.5973 18.231 45.624 18.1309 45.624 18.0309V15.0309C45.624 14.6642 45.3239 14.3643 44.9574 14.3643H44.084V11.3193H44.9219C45.29 11.3193 45.5885 11.0208 45.5885 10.6527C45.5885 10.2845 45.29 9.986 44.9219 9.986H44.5299L44.5306 9.98421C44.8372 8.63086 44.4307 6.89762 41.9974 5.01758C41.8107 4.87093 41.6107 4.72428 41.3906 4.57096L41.3883 4.56934V2.66667C41.3883 2.2985 41.0898 2 40.7217 2C40.3535 2 40.055 2.2985 40.055 2.66667V4.57259C39.8428 4.72526 39.6367 4.86491 39.4507 5.0109C37.0039 6.89762 36.5973 8.63086 36.9173 9.98421L36.918 9.986H36.5218C36.1536 9.986 35.8551 10.2845 35.8551 10.6527C35.8551 11.0208 36.1536 11.3193 36.5218 11.3193H37.3574V14.3643H36.4906C36.1174 14.3643 35.8239 14.6642 35.8239 15.0309V18.0309C35.8239 18.2483 35.9101 18.3576 35.9507 18.4642H13.1839C13.2113 18.3921 13.3107 18.2351 13.3107 18.0309V15.0309C13.3107 14.6642 13.0173 14.3643 12.644 14.3643H11.7773V11.3193H12.6139C12.9821 11.3193 13.2806 11.0208 13.2806 10.6527C13.2806 10.2845 12.9821 9.986 12.6139 9.986H12.2166L12.2173 9.98421C12.7491 7.68722 10.9513 5.92556 9.0804 4.56657V2.66667C9.0804 2.2985 8.7819 2 8.41374 2C8.04557 2 7.74707 2.2985 7.74707 2.66667V4.57552L7.74398 4.57764C5.84592 5.8821 4.08273 7.74367 4.604 9.98421L4.60466 9.986H4.21387C3.8457 9.986 3.5472 10.2845 3.5472 10.6527C3.5472 11.0208 3.8457 11.3193 4.21387 11.3193H5.05062V14.3643H4.18392C3.81071 14.3643 3.51725 14.6642 3.51725 15.0309V18.0309C3.51725 18.1309 3.53727 18.231 3.57731 18.3175L4.67741 20.6242C4.64324 20.6909 4.67057 21.2314 4.67057 25.1175H4.09066C3.72396 25.1175 3.42399 25.4176 3.42399 25.7842V28.7842C3.42399 28.8843 3.44401 28.9842 3.49056 29.071L4.67057 31.5509V44.3232H3.66667C3.2985 44.3232 3 44.6217 3 44.9899C3 45.3581 3.2985 45.6566 3.66667 45.6566C26.9658 45.657 24.3852 45.6579 45 45.6566C45.3682 45.6566 45.6667 45.3581 45.6667 44.9899C45.6667 44.6217 45.3682 44.3232 45 44.3232ZM4.85059 15.6976H11.9774V17.8843C11.8841 18.0821 10.9493 20.0646 10.984 19.9909C10.8087 19.9909 5.60727 19.9909 5.85059 19.9909L4.85059 17.8843V15.6976ZM35.7306 25.8376V27.7043H13.224V25.8376H35.7306ZM37.1572 17.8843V15.6976H44.2907V17.8843L43.2907 19.9909C43.1682 19.9909 37.8685 19.9909 38.1572 19.9909C38.1255 19.924 37.0925 17.7479 37.1572 17.8843ZM44.1973 26.4508V28.6375L43.2039 30.7376C43.0786 30.7376 37.97 30.7376 38.064 30.7376C36.1919 26.7921 38.2173 31.0606 37.064 28.6309C37.064 28.0916 37.064 27.0069 37.064 26.4508H44.1973ZM15.1706 39.8509C16.0635 39.8935 16.7106 40.6509 16.7106 41.4709V43.1042C16.7106 43.3309 16.5241 43.5176 16.2907 43.5176H13.884C13.6507 43.5176 13.464 43.3309 13.464 43.1042V41.5576C13.464 40.6175 14.2306 39.8042 15.1706 39.8509ZM13.464 38.0977V36.5576C13.464 35.6175 14.2306 34.7975 15.1706 34.8509C16.0928 34.8949 16.7106 35.678 16.7106 36.4642V38.0977C16.7106 38.3309 16.5241 38.5176 16.2907 38.5176H13.884C13.6507 38.5176 13.464 38.3309 13.464 38.0977ZM16.7106 33.0977C16.7106 33.3242 16.5241 33.5109 16.2907 33.5109H13.884C13.6507 33.5109 13.464 33.3242 13.464 33.0977V31.5509C13.464 30.611 14.2306 29.7975 15.1706 29.8442C16.0635 29.8868 16.7106 30.6443 16.7106 31.4642V33.0977ZM35.0907 38.5176H32.6839C32.4507 38.5176 32.264 38.3309 32.264 38.0977V36.5576C32.264 35.6175 33.0306 34.7975 33.9707 34.8509C34.8555 34.8931 35.5107 35.6251 35.5107 36.4642V38.0977C35.5107 38.3309 35.3239 38.5176 35.0907 38.5176ZM35.5107 41.4709V43.1042C35.5107 43.3309 35.3239 43.5176 35.0907 43.5176H32.6839C32.4507 43.5176 32.264 43.3309 32.264 43.1042V41.5576C32.264 40.6175 33.0306 39.8042 33.9707 39.8509C34.8284 39.8918 35.5107 40.6008 35.5107 41.4709ZM35.0907 33.5109H32.6839C32.4507 33.5109 32.264 33.3242 32.264 33.0977V31.5509C32.264 30.611 33.0306 29.7975 33.9707 29.8442C34.8295 29.8852 35.5107 30.5951 35.5107 31.4642V33.0977C35.5107 33.3242 35.3239 33.5109 35.0907 33.5109ZM38.3574 32.1842H42.9574V44.2909H38.3574V32.1842ZM38.3107 25.1175C38.3107 24.9976 38.3107 21.2246 38.3107 21.3242C38.415 21.3242 43.3035 21.3242 43.1374 21.3242V25.1175C41.3222 25.1175 39.2834 25.1175 38.3107 25.1175ZM6.00391 21.3242C6.11923 21.3242 11.0006 21.3242 10.8239 21.3242C10.8239 21.4327 10.8239 25.2798 10.8239 25.1175C10.6705 25.1175 5.90861 25.1175 6.00391 25.1175V21.3242ZM4.75732 26.4508C4.91458 26.4508 12.189 26.4508 11.8906 26.4508V28.6375C11.8589 28.7044 11.1456 30.2126 10.8973 30.7376C10.5903 30.7376 5.58116 30.7376 5.75732 30.7376L4.75732 28.6309V26.4508ZM6.00391 32.1842H10.624V44.2909H6.00391V32.1842ZM20.0439 37.8109C20.0439 35.9976 20.9707 34.3909 22.3372 33.8175C22.8365 33.6525 23.8145 33.1515 24.3307 32.6709C25.0054 33.2886 26.2502 33.8109 26.3174 33.8109C27.6908 34.3909 28.6174 35.9976 28.6174 37.8109V44.3232H20.0439V37.8109ZM38.6908 11.4976L42.7507 11.5109V14.3643H38.6908V11.4976ZM36.5907 19.7975L36.9841 20.6242C36.9506 20.6911 36.9774 21.2709 36.9774 24.5042H35.3693V22.6509C35.3693 21.5829 34.5216 20.6723 33.4416 20.6227C32.265 20.5605 31.3035 21.5843 31.3035 22.7609V24.5042H29.4705V22.6509C29.4705 21.5832 28.6227 20.6723 27.5426 20.6227C26.366 20.5605 25.4048 21.5843 25.4048 22.7609V24.5042H23.5716V22.6509C23.5716 21.583 22.7239 20.6723 21.6439 20.6227C20.4673 20.5605 19.5059 21.5843 19.5059 22.7609V24.5042H17.6729V22.6509C17.6729 21.5832 16.8251 20.6723 15.7451 20.6227C14.5684 20.5605 13.6071 21.5843 13.6071 22.7609V24.5042H12.1572V20.6309L12.5506 19.7975H36.5907ZM6.38395 11.4976L10.444 11.5109V14.3643H6.38395V11.4976Z" fill="#B0B0B0"/>
<path d="M10.1107 18.7888C10.4694 18.7888 10.7773 18.5027 10.7773 18.1222V16.9023C10.7773 16.5299 10.4694 16.2356 10.1107 16.2356C9.75212 16.2356 9.444 16.5298 9.444 16.9023V18.1222C9.444 18.5008 9.74814 18.7888 10.1107 18.7888Z" fill="#B0B0B0"/>
<path d="M8.01725 18.7888C8.38395 18.7888 8.68392 18.4955 8.68392 18.1222V16.9023C8.68392 16.5299 8.37594 16.2356 8.01725 16.2356C7.66359 16.2356 7.35059 16.5253 7.35059 16.9023V18.1222C7.35059 18.4955 7.65072 18.7888 8.01725 18.7888Z" fill="#B0B0B0"/>
<path d="M6.59731 18.1222V16.9023C6.59731 16.5299 6.28933 16.2356 5.93064 16.2356C5.5721 16.2356 5.26398 16.5298 5.26398 16.9023V18.1222C5.26398 18.4955 5.56394 18.7888 5.93064 18.7888C6.29734 18.7888 6.59731 18.4955 6.59731 18.1222Z" fill="#B0B0B0"/>
<path d="M10.1107 29.5356C10.4711 29.5356 10.7773 29.2433 10.7773 28.8689C10.7773 28.7995 10.7773 27.5533 10.7773 27.6488C10.7773 27.2717 10.4622 26.9822 10.1107 26.9822C9.73729 26.9822 9.444 27.2823 9.444 27.6488V28.8689C9.444 29.2105 9.72293 29.5356 10.1107 29.5356Z" fill="#B0B0B0"/>
<path d="M8.01725 29.5356C8.38395 29.5356 8.68392 29.2356 8.68392 28.8689V27.6488C8.68392 27.2823 8.38395 26.9822 8.01725 26.9822C7.65072 26.9822 7.35059 27.2823 7.35059 27.6488V28.8689C7.35059 29.2356 7.65072 29.5356 8.01725 29.5356Z" fill="#B0B0B0"/>
<path d="M5.93064 29.5356C6.29734 29.5356 6.59731 29.2356 6.59731 28.8689V27.6488C6.59731 27.2823 6.29734 26.9822 5.93064 26.9822C5.56394 26.9822 5.26398 27.2823 5.26398 27.6488V28.8689C5.26398 29.2356 5.56394 29.5356 5.93064 29.5356Z" fill="#B0B0B0"/>
<path d="M42.4173 18.7888C42.784 18.7888 43.084 18.4955 43.084 18.1222V16.9023C43.084 16.5299 42.776 16.2356 42.4173 16.2356C42.0588 16.2356 41.7506 16.5298 41.7506 16.9023V18.1222C41.7506 18.4955 42.0506 18.7888 42.4173 18.7888Z" fill="#B0B0B0"/>
<path d="M40.3239 18.7888C40.6973 18.7888 40.9906 18.4955 40.9906 18.1222V16.9023C40.9906 16.5293 40.6819 16.2356 40.3239 16.2356C39.9704 16.2356 39.6572 16.5253 39.6572 16.9023V18.1222C39.6572 18.4955 39.9574 18.7888 40.3239 18.7888Z" fill="#B0B0B0"/>
<path d="M38.904 18.1222V16.9023C38.904 16.5299 38.596 16.2356 38.2373 16.2356C37.8787 16.2356 37.5706 16.5298 37.5706 16.9023V18.1222C37.5706 18.5189 37.8957 18.7888 38.2373 18.7888C38.5864 18.7888 38.904 18.5116 38.904 18.1222Z" fill="#B0B0B0"/>
<path d="M42.4173 29.5356C42.784 29.5356 43.084 29.2356 43.084 28.8689V27.6488C43.084 27.2823 42.784 26.9822 42.4173 26.9822C42.0506 26.9822 41.7506 27.2823 41.7506 27.6488V28.8689C41.7506 29.2356 42.0506 29.5356 42.4173 29.5356Z" fill="#B0B0B0"/>
<path d="M40.3239 29.5356C40.6973 29.5356 40.9906 29.2356 40.9906 28.8689V27.6488C40.9906 27.2823 40.6973 26.9822 40.3239 26.9822C39.9574 26.9822 39.6572 27.2823 39.6572 27.6488V28.8689C39.6572 29.2356 39.9574 29.5356 40.3239 29.5356Z" fill="#B0B0B0"/>
<path d="M38.2373 26.9822C37.8892 26.9822 37.5706 27.2642 37.5706 27.6488C37.5706 27.829 37.5706 28.9374 37.5706 28.8689C37.5706 29.2451 37.882 29.5356 38.2373 29.5356C38.6246 29.5356 38.904 29.2157 38.904 28.8689V27.6488C38.904 27.2823 38.604 26.9822 38.2373 26.9822Z" fill="#B0B0B0"/>
<path d="M18.847 12.7049C18.9163 12.7174 19.5312 12.8507 19.7821 13.7109C19.8666 13.9933 20.1394 14.2182 20.4583 14.2215C20.4603 14.2215 20.4619 14.2221 20.4637 14.2221C20.4655 14.2221 20.4678 14.2215 20.4697 14.2215C20.8 14.2181 21.0697 13.9704 21.146 13.7109C21.3947 12.8576 22.0013 12.7195 22.0794 12.7054C22.4616 12.6474 22.7283 12.2936 22.6769 11.9087C22.625 11.5198 22.2638 11.2457 21.8789 11.2988C21.5114 11.3481 20.9406 11.5705 20.464 12.0832C19.9875 11.5705 19.4167 11.3481 19.0491 11.2988C18.6704 11.2482 18.3211 11.5132 18.2615 11.8947C18.2021 12.2762 18.4665 12.637 18.847 12.7049Z" fill="url(#paint0_linear_179_2528)"/>
<path d="M24.5653 9.21142C24.6409 9.22607 25.028 9.32909 25.1976 9.9108C25.2749 10.1735 25.5441 10.4172 25.8739 10.4214C25.8756 10.4214 25.8773 10.422 25.8792 10.422C25.881 10.422 25.8833 10.4214 25.8851 10.4214C26.221 10.4171 26.4839 10.1741 26.5614 9.9108C26.7288 9.3356 27.109 9.22883 27.1912 9.21223C27.5718 9.1525 27.8367 8.79947 27.7855 8.41584C27.7331 8.02701 27.3755 7.75634 26.9873 7.80598C26.6982 7.84455 26.2638 8.01317 25.8796 8.3758C25.4954 8.01317 25.0609 7.84455 24.7723 7.80598C24.3887 7.75683 24.0505 8.01838 23.9884 8.39696C23.9264 8.77652 24.1881 9.13785 24.5653 9.21142Z" fill="url(#paint1_linear_179_2528)"/>
<path d="M25.021 13.4522C24.6426 13.4023 24.293 13.6666 24.2334 14.0481C24.174 14.4296 24.4383 14.7905 24.8188 14.8583C24.8882 14.8709 25.5031 15.0042 25.7539 15.8642C25.8276 16.1116 26.079 16.3705 26.4302 16.3749C26.4319 16.3749 26.4336 16.3756 26.4355 16.3756C26.4373 16.3756 26.4396 16.3749 26.4414 16.3749C26.7722 16.3707 27.0423 16.1225 27.1178 15.8642C27.3665 15.011 27.9731 14.873 28.0511 14.8587C28.4334 14.8007 28.7002 14.447 28.6487 14.0621C28.5967 13.6731 28.2363 13.401 27.8506 13.4522C27.4832 13.5016 26.9124 13.7239 26.4359 14.2364C25.9593 13.7239 25.3883 13.5016 25.021 13.4522Z" fill="url(#paint2_linear_179_2528)"/>
<defs>
<linearGradient id="paint0_linear_179_2528" x1="18.959" y1="11.5318" x2="20.2365" y2="15.1923" gradientUnits="userSpaceOnUse">
<stop stop-color="#FF2425"/>
<stop offset="0.5" stop-color="#3246FF"/>
<stop offset="1" stop-color="#3246FF"/>
</linearGradient>
<linearGradient id="paint1_linear_179_2528" x1="24.5868" y1="8.01443" x2="25.7652" y2="11.2616" gradientUnits="userSpaceOnUse">
<stop stop-color="#FF2425"/>
<stop offset="0.5" stop-color="#3246FF"/>
<stop offset="1" stop-color="#3246FF"/>
</linearGradient>
<linearGradient id="paint2_linear_179_2528" x1="24.9309" y1="13.6856" x2="26.2081" y2="17.3457" gradientUnits="userSpaceOnUse">
<stop stop-color="#FF2425"/>
<stop offset="0.5" stop-color="#3246FF"/>
<stop offset="1" stop-color="#3246FF"/>
</linearGradient>
</defs>
</svg>
