<svg width="48" height="48" viewBox="0 0 48 48" fill="none" xmlns="http://www.w3.org/2000/svg">
<path d="M27.8438 40.0312H20.25C20.1257 40.0312 20.0065 39.9819 19.9185 39.894C19.8306 39.806 19.7813 39.6868 19.7812 39.5625V13.3594C19.7812 12.2281 20.2307 11.1431 21.0306 10.3431C21.8306 9.54316 22.9156 9.09375 24.0469 9.09375C25.1782 9.09375 26.2632 9.54316 27.0631 10.3431C27.8631 11.1431 28.3125 12.2281 28.3125 13.3594V39.5625C28.3125 39.6868 28.2631 39.806 28.1752 39.894C28.0873 39.9819 27.9681 40.0312 27.8438 40.0312ZM20.7188 39.0938H27.375V13.3594C27.375 12.4767 27.0244 11.6302 26.4002 11.006C25.7761 10.3819 24.9295 10.0312 24.0469 10.0312C23.1642 10.0312 22.3177 10.3819 21.6935 11.006C21.0694 11.6302 20.7188 12.4767 20.7188 13.3594V39.0938Z" fill="#B0B0B0"/>
<path d="M16.6875 40.0313H9.09375C8.96943 40.0313 8.8502 39.9819 8.76229 39.894C8.67439 39.8061 8.625 39.6869 8.625 39.5625V19.3782C8.625 18.2469 9.07441 17.1619 9.87437 16.3619C10.6743 15.562 11.7593 15.1125 12.8906 15.1125C14.0219 15.1125 15.1069 15.562 15.9069 16.3619C16.7068 17.1619 17.1562 18.2469 17.1562 19.3782V39.5625C17.1562 39.6869 17.1069 39.8061 17.019 39.894C16.931 39.9819 16.8118 40.0313 16.6875 40.0313ZM9.5625 39.0938H16.2188V19.3782C16.2188 18.4955 15.8681 17.649 15.244 17.0248C14.6198 16.4007 13.7733 16.05 12.8906 16.05C12.008 16.05 11.1614 16.4007 10.5373 17.0248C9.91314 17.649 9.5625 18.4955 9.5625 19.3782V39.0938Z" fill="#B0B0B0"/>
<path d="M31.4062 40.0312H27.8438C27.7194 40.0312 27.6002 39.9819 27.5123 39.894C27.4244 39.806 27.375 39.6868 27.375 39.5625V12.75C27.375 12.1533 27.6121 11.581 28.034 11.159C28.456 10.7371 29.0283 10.5 29.625 10.5C30.2217 10.5 30.794 10.7371 31.216 11.159C31.6379 11.581 31.875 12.1533 31.875 12.75V39.5625C31.875 39.6868 31.8256 39.806 31.7377 39.894C31.6498 39.9819 31.5306 40.0312 31.4062 40.0312ZM28.3125 39.0938H30.9375V12.75C30.9375 12.4019 30.7992 12.0681 30.5531 11.8219C30.3069 11.5758 29.9731 11.4375 29.625 11.4375C29.2769 11.4375 28.9431 11.5758 28.6969 11.8219C28.4508 12.0681 28.3125 12.4019 28.3125 12.75V39.0938Z" fill="#B0B0B0"/>
<path d="M9.09375 40.0312H5.53125C5.40693 40.0312 5.2877 39.9819 5.19979 39.894C5.11189 39.806 5.0625 39.6868 5.0625 39.5625V18.4688C5.0625 17.872 5.29955 17.2997 5.72151 16.8778C6.14347 16.4558 6.71576 16.2188 7.3125 16.2188C7.90924 16.2188 8.48153 16.4558 8.90349 16.8778C9.32545 17.2997 9.5625 17.872 9.5625 18.4688V39.5625C9.5625 39.6868 9.51311 39.806 9.42521 39.894C9.3373 39.9819 9.21807 40.0312 9.09375 40.0312ZM6 39.0938H8.625V18.4688C8.625 18.1207 8.48672 17.7868 8.24058 17.5407C7.99444 17.2945 7.6606 17.1562 7.3125 17.1562C6.9644 17.1562 6.63056 17.2945 6.38442 17.5407C6.13828 17.7868 6 18.1207 6 18.4688V39.0938Z" fill="#B0B0B0"/>
<path d="M42.5625 40.0312H39C38.8757 40.0312 38.7565 39.9819 38.6685 39.894C38.5806 39.806 38.5312 39.6868 38.5312 39.5625V18.4688C38.5312 17.872 38.7683 17.2997 39.1903 16.8778C39.6122 16.4558 40.1845 16.2188 40.7812 16.2188C41.378 16.2188 41.9503 16.4558 42.3722 16.8778C42.7942 17.2997 43.0312 17.872 43.0312 18.4688V39.5625C43.0312 39.6868 42.9819 39.806 42.894 39.894C42.806 39.9819 42.6868 40.0312 42.5625 40.0312ZM39.4688 39.0938H42.0938V18.4688C42.0938 18.1207 41.9555 17.7868 41.7093 17.5407C41.4632 17.2945 41.1293 17.1562 40.7812 17.1562C40.4332 17.1562 40.0993 17.2945 39.8532 17.5407C39.607 17.7868 39.4688 18.1207 39.4688 18.4688V39.0938Z" fill="#B0B0B0"/>
<path d="M20.25 40.0312H16.6875C16.5632 40.0312 16.444 39.9819 16.356 39.894C16.2681 39.806 16.2188 39.6868 16.2188 39.5625V12.75C16.2188 12.1533 16.4558 11.581 16.8778 11.159C17.2997 10.7371 17.872 10.5 18.4688 10.5C19.0655 10.5 19.6378 10.7371 20.0597 11.159C20.4817 11.581 20.7188 12.1533 20.7188 12.75V39.5625C20.7188 39.6868 20.6694 39.806 20.5815 39.894C20.4935 39.9819 20.3743 40.0312 20.25 40.0312ZM17.1562 39.0938H19.7812V12.75C19.7812 12.4019 19.643 12.0681 19.3968 11.8219C19.1507 11.5758 18.8168 11.4375 18.4688 11.4375C18.1207 11.4375 17.7868 11.5758 17.5407 11.8219C17.2945 12.0681 17.1562 12.4019 17.1562 12.75V39.0938Z" fill="#B0B0B0"/>
<path d="M42.5625 40.0312H5.53125C5.40693 40.0312 5.2877 39.9819 5.19979 39.894C5.11189 39.806 5.0625 39.6868 5.0625 39.5625C5.0625 39.4382 5.11189 39.319 5.19979 39.231C5.2877 39.1431 5.40693 39.0938 5.53125 39.0938H42.5625C42.6868 39.0938 42.806 39.1431 42.894 39.231C42.9819 39.319 43.0312 39.4382 43.0312 39.5625C43.0312 39.6868 42.9819 39.806 42.894 39.894C42.806 39.9819 42.6868 40.0312 42.5625 40.0312Z" fill="#B0B0B0"/>
<path d="M25.875 16.0312H22.3125C22.1882 16.0312 22.069 15.9819 21.981 15.894C21.8931 15.806 21.8438 15.6868 21.8438 15.5625V14.0625C21.8438 13.4658 22.0808 12.8935 22.5028 12.4715C22.9247 12.0496 23.497 11.8125 24.0938 11.8125C24.6905 11.8125 25.2628 12.0496 25.6847 12.4715C26.1067 12.8935 26.3438 13.4658 26.3438 14.0625V15.5625C26.3438 15.6868 26.2944 15.806 26.2065 15.894C26.1185 15.9819 25.9993 16.0312 25.875 16.0312ZM22.7812 15.0938H25.4062V14.0625C25.4062 13.7144 25.268 13.3806 25.0218 13.1344C24.7757 12.8883 24.4418 12.75 24.0938 12.75C23.7457 12.75 23.4118 12.8883 23.1657 13.1344C22.9195 13.3806 22.7812 13.7144 22.7812 14.0625V15.0938Z" fill="#B0B0B0"/>
<path d="M25.875 22.0312H22.3125C22.1882 22.0312 22.069 21.9819 21.981 21.894C21.8931 21.806 21.8438 21.6868 21.8438 21.5625V20.0625C21.8438 19.4658 22.0808 18.8935 22.5028 18.4715C22.9247 18.0496 23.497 17.8125 24.0938 17.8125C24.6905 17.8125 25.2628 18.0496 25.6847 18.4715C26.1067 18.8935 26.3438 19.4658 26.3438 20.0625V21.5625C26.3438 21.6868 26.2944 21.806 26.2065 21.894C26.1185 21.9819 25.9993 22.0312 25.875 22.0312ZM22.7812 21.0938H25.4062V20.0625C25.4062 19.7144 25.268 19.3806 25.0218 19.1344C24.7757 18.8883 24.4418 18.75 24.0938 18.75C23.7457 18.75 23.4118 18.8883 23.1657 19.1344C22.9195 19.3806 22.7812 19.7144 22.7812 20.0625V21.0938Z" fill="#B0B0B0"/>
<path d="M25.875 28.0312H22.3125C22.1882 28.0312 22.069 27.9819 21.981 27.894C21.8931 27.806 21.8438 27.6868 21.8438 27.5625V26.0625C21.8438 25.4658 22.0808 24.8935 22.5028 24.4715C22.9247 24.0496 23.497 23.8125 24.0938 23.8125C24.6905 23.8125 25.2628 24.0496 25.6847 24.4715C26.1067 24.8935 26.3438 25.4658 26.3438 26.0625V27.5625C26.3438 27.6868 26.2944 27.806 26.2065 27.894C26.1185 27.9819 25.9993 28.0312 25.875 28.0312ZM22.7812 27.0938H25.4062V26.0625C25.4062 25.7144 25.268 25.3806 25.0218 25.1344C24.7757 24.8883 24.4418 24.75 24.0938 24.75C23.7457 24.75 23.4118 24.8883 23.1657 25.1344C22.9195 25.3806 22.7812 25.7144 22.7812 26.0625V27.0938Z" fill="#B0B0B0"/>
<path d="M25.875 34.0312H22.3125C22.1882 34.0312 22.069 33.9819 21.981 33.894C21.8931 33.806 21.8438 33.6868 21.8438 33.5625V32.0625C21.8438 31.4658 22.0808 30.8935 22.5028 30.4715C22.9247 30.0496 23.497 29.8125 24.0938 29.8125C24.6905 29.8125 25.2628 30.0496 25.6847 30.4715C26.1067 30.8935 26.3438 31.4658 26.3438 32.0625V33.5625C26.3438 33.6868 26.2944 33.806 26.2065 33.894C26.1185 33.9819 25.9993 34.0312 25.875 34.0312ZM22.7812 33.0938H25.4062V32.0625C25.4062 31.7144 25.268 31.3806 25.0218 31.1344C24.7757 30.8883 24.4418 30.75 24.0938 30.75C23.7457 30.75 23.4118 30.8883 23.1657 31.1344C22.9195 31.3806 22.7812 31.7144 22.7812 32.0625V33.0938Z" fill="#B0B0B0"/>
<path d="M25.875 40.0312H22.3125C22.1882 40.0312 22.069 39.9819 21.981 39.894C21.8931 39.806 21.8438 39.6868 21.8438 39.5625V38.0625C21.8438 37.4658 22.0808 36.8935 22.5028 36.4715C22.9247 36.0496 23.497 35.8125 24.0938 35.8125C24.6905 35.8125 25.2628 36.0496 25.6847 36.4715C26.1067 36.8935 26.3438 37.4658 26.3438 38.0625V39.5625C26.3438 39.6868 26.2944 39.806 26.2065 39.894C26.1185 39.9819 25.9993 40.0312 25.875 40.0312ZM22.7812 39.0938H25.4062V38.0625C25.4062 37.7144 25.268 37.3806 25.0218 37.1344C24.7757 36.8883 24.4418 36.75 24.0938 36.75C23.7457 36.75 23.4118 36.8883 23.1657 37.1344C22.9195 37.3806 22.7812 37.7144 22.7812 38.0625V39.0938Z" fill="#B0B0B0"/>
<path d="M27.8438 16.0312H20.25C20.1257 16.0312 20.0065 15.9819 19.9185 15.894C19.8306 15.806 19.7813 15.6868 19.7812 15.5625C19.7813 15.4382 19.8306 15.319 19.9185 15.231C20.0065 15.1431 20.1257 15.0938 20.25 15.0938H27.8438C27.9681 15.0938 28.0873 15.1431 28.1752 15.231C28.2631 15.319 28.3125 15.4382 28.3125 15.5625C28.3125 15.6868 28.2631 15.806 28.1752 15.894C28.0873 15.9819 27.9681 16.0312 27.8438 16.0312Z" fill="#B0B0B0"/>
<path d="M27.8438 22.0312H20.25C20.1257 22.0312 20.0065 21.9819 19.9185 21.894C19.8306 21.806 19.7813 21.6868 19.7812 21.5625C19.7813 21.4382 19.8306 21.319 19.9185 21.231C20.0065 21.1431 20.1257 21.0938 20.25 21.0938H27.8438C27.9681 21.0938 28.0873 21.1431 28.1752 21.231C28.2631 21.319 28.3125 21.4382 28.3125 21.5625C28.3125 21.6868 28.2631 21.806 28.1752 21.894C28.0873 21.9819 27.9681 22.0312 27.8438 22.0312Z" fill="#B0B0B0"/>
<path d="M27.8438 28.0312H20.25C20.1257 28.0312 20.0065 27.9819 19.9185 27.894C19.8306 27.806 19.7813 27.6868 19.7812 27.5625C19.7813 27.4382 19.8306 27.319 19.9185 27.231C20.0065 27.1431 20.1257 27.0938 20.25 27.0938H27.8438C27.9681 27.0938 28.0873 27.1431 28.1752 27.231C28.2631 27.319 28.3125 27.4382 28.3125 27.5625C28.3125 27.6868 28.2631 27.806 28.1752 27.894C28.0873 27.9819 27.9681 28.0312 27.8438 28.0312Z" fill="#B0B0B0"/>
<path d="M27.8438 34.0312H20.25C20.1257 34.0312 20.0065 33.9819 19.9185 33.894C19.8306 33.806 19.7813 33.6868 19.7812 33.5625C19.7813 33.4382 19.8306 33.319 19.9185 33.231C20.0065 33.1431 20.1257 33.0938 20.25 33.0938H27.8438C27.9681 33.0938 28.0873 33.1431 28.1752 33.231C28.2631 33.319 28.3125 33.4382 28.3125 33.5625C28.3125 33.6868 28.2631 33.806 28.1752 33.894C28.0873 33.9819 27.9681 34.0312 27.8438 34.0312Z" fill="#B0B0B0"/>
<path d="M39 40.0313H31.4062C31.2819 40.0313 31.1627 39.9819 31.0748 39.894C30.9869 39.8061 30.9375 39.6869 30.9375 39.5625V19.3782C30.9375 18.2469 31.3869 17.1619 32.1869 16.3619C32.9868 15.562 34.0718 15.1125 35.2031 15.1125C36.3344 15.1125 37.4194 15.562 38.2194 16.3619C39.0193 17.1619 39.4688 18.2469 39.4688 19.3782V39.5625C39.4688 39.6869 39.4194 39.8061 39.3315 39.894C39.2435 39.9819 39.1243 40.0313 39 40.0313ZM31.875 39.0938H38.5312V19.3782C38.5312 18.4955 38.1806 17.649 37.5565 17.0248C36.9323 16.4007 36.0858 16.05 35.2031 16.05C34.3205 16.05 33.4739 16.4007 32.8498 17.0248C32.2256 17.649 31.875 18.4955 31.875 19.3782V39.0938Z" fill="#B0B0B0"/>
<path d="M37.0312 22.0312H33.4688C33.3444 22.0312 33.2252 21.9819 33.1373 21.894C33.0494 21.806 33 21.6868 33 21.5625V20.0625C33 19.4658 33.2371 18.8935 33.659 18.4715C34.081 18.0496 34.6533 17.8125 35.25 17.8125C35.8467 17.8125 36.419 18.0496 36.841 18.4715C37.2629 18.8935 37.5 19.4658 37.5 20.0625V21.5625C37.5 21.6868 37.4506 21.806 37.3627 21.894C37.2748 21.9819 37.1556 22.0312 37.0312 22.0312ZM33.9375 21.0938H36.5625V20.0625C36.5625 19.7144 36.4242 19.3806 36.1781 19.1344C35.9319 18.8883 35.5981 18.75 35.25 18.75C34.9019 18.75 34.5681 18.8883 34.3219 19.1344C34.0758 19.3806 33.9375 19.7144 33.9375 20.0625V21.0938Z" fill="#B0B0B0"/>
<path d="M37.0312 28.0312H33.4688C33.3444 28.0312 33.2252 27.9819 33.1373 27.894C33.0494 27.806 33 27.6868 33 27.5625V26.0625C33 25.4658 33.2371 24.8935 33.659 24.4715C34.081 24.0496 34.6533 23.8125 35.25 23.8125C35.8467 23.8125 36.419 24.0496 36.841 24.4715C37.2629 24.8935 37.5 25.4658 37.5 26.0625V27.5625C37.5 27.6868 37.4506 27.806 37.3627 27.894C37.2748 27.9819 37.1556 28.0312 37.0312 28.0312ZM33.9375 27.0938H36.5625V26.0625C36.5625 25.7144 36.4242 25.3806 36.1781 25.1344C35.9319 24.8883 35.5981 24.75 35.25 24.75C34.9019 24.75 34.5681 24.8883 34.3219 25.1344C34.0758 25.3806 33.9375 25.7144 33.9375 26.0625V27.0938Z" fill="#B0B0B0"/>
<path d="M37.0312 34.0312H33.4688C33.3444 34.0312 33.2252 33.9819 33.1373 33.894C33.0494 33.806 33 33.6868 33 33.5625V32.0625C33 31.4658 33.2371 30.8935 33.659 30.4715C34.081 30.0496 34.6533 29.8125 35.25 29.8125C35.8467 29.8125 36.419 30.0496 36.841 30.4715C37.2629 30.8935 37.5 31.4658 37.5 32.0625V33.5625C37.5 33.6868 37.4506 33.806 37.3627 33.894C37.2748 33.9819 37.1556 34.0312 37.0312 34.0312ZM33.9375 33.0938H36.5625V32.0625C36.5625 31.7144 36.4242 31.3806 36.1781 31.1344C35.9319 30.8883 35.5981 30.75 35.25 30.75C34.9019 30.75 34.5681 30.8883 34.3219 31.1344C34.0758 31.3806 33.9375 31.7144 33.9375 32.0625V33.0938Z" fill="#B0B0B0"/>
<path d="M37.0312 40.0312H33.4688C33.3444 40.0312 33.2252 39.9819 33.1373 39.894C33.0494 39.806 33 39.6868 33 39.5625V38.0625C33 37.4658 33.2371 36.8935 33.659 36.4715C34.081 36.0496 34.6533 35.8125 35.25 35.8125C35.8467 35.8125 36.419 36.0496 36.841 36.4715C37.2629 36.8935 37.5 37.4658 37.5 38.0625V39.5625C37.5 39.6868 37.4506 39.806 37.3627 39.894C37.2748 39.9819 37.1556 40.0312 37.0312 40.0312ZM33.9375 39.0938H36.5625V38.0625C36.5625 37.7144 36.4242 37.3806 36.1781 37.1344C35.9319 36.8883 35.5981 36.75 35.25 36.75C34.9019 36.75 34.5681 36.8883 34.3219 37.1344C34.0758 37.3806 33.9375 37.7144 33.9375 38.0625V39.0938Z" fill="#B0B0B0"/>
<path d="M39 22.0312H31.4062C31.2819 22.0312 31.1627 21.9819 31.0748 21.894C30.9869 21.806 30.9375 21.6868 30.9375 21.5625C30.9375 21.4382 30.9869 21.319 31.0748 21.231C31.1627 21.1431 31.2819 21.0938 31.4062 21.0938H39C39.1243 21.0938 39.2435 21.1431 39.3315 21.231C39.4194 21.319 39.4688 21.4382 39.4688 21.5625C39.4688 21.6868 39.4194 21.806 39.3315 21.894C39.2435 21.9819 39.1243 22.0312 39 22.0312Z" fill="#B0B0B0"/>
<path d="M39 28.0312H31.4062C31.2819 28.0312 31.1627 27.9819 31.0748 27.894C30.9869 27.806 30.9375 27.6868 30.9375 27.5625C30.9375 27.4382 30.9869 27.319 31.0748 27.231C31.1627 27.1431 31.2819 27.0938 31.4062 27.0938H39C39.1243 27.0938 39.2435 27.1431 39.3315 27.231C39.4194 27.319 39.4688 27.4382 39.4688 27.5625C39.4688 27.6868 39.4194 27.806 39.3315 27.894C39.2435 27.9819 39.1243 28.0312 39 28.0312Z" fill="#B0B0B0"/>
<path d="M39 34.0312H31.4062C31.2819 34.0312 31.1627 33.9819 31.0748 33.894C30.9869 33.806 30.9375 33.6868 30.9375 33.5625C30.9375 33.4382 30.9869 33.319 31.0748 33.231C31.1627 33.1431 31.2819 33.0938 31.4062 33.0938H39C39.1243 33.0938 39.2435 33.1431 39.3315 33.231C39.4194 33.319 39.4688 33.4382 39.4688 33.5625C39.4688 33.6868 39.4194 33.806 39.3315 33.894C39.2435 33.9819 39.1243 34.0312 39 34.0312Z" fill="#B0B0B0"/>
<path d="M14.7188 22.0312H11.1562C11.0319 22.0312 10.9127 21.9819 10.8248 21.894C10.7369 21.806 10.6875 21.6868 10.6875 21.5625V20.0625C10.6875 19.4658 10.9246 18.8935 11.3465 18.4715C11.7685 18.0496 12.3408 17.8125 12.9375 17.8125C13.5342 17.8125 14.1065 18.0496 14.5285 18.4715C14.9504 18.8935 15.1875 19.4658 15.1875 20.0625V21.5625C15.1875 21.6868 15.1381 21.806 15.0502 21.894C14.9623 21.9819 14.8431 22.0312 14.7188 22.0312ZM11.625 21.0938H14.25V20.0625C14.25 19.7144 14.1117 19.3806 13.8656 19.1344C13.6194 18.8883 13.2856 18.75 12.9375 18.75C12.5894 18.75 12.2556 18.8883 12.0094 19.1344C11.7633 19.3806 11.625 19.7144 11.625 20.0625V21.0938Z" fill="#B0B0B0"/>
<path d="M14.7188 28.0312H11.1562C11.0319 28.0312 10.9127 27.9819 10.8248 27.894C10.7369 27.806 10.6875 27.6868 10.6875 27.5625V26.0625C10.6875 25.4658 10.9246 24.8935 11.3465 24.4715C11.7685 24.0496 12.3408 23.8125 12.9375 23.8125C13.5342 23.8125 14.1065 24.0496 14.5285 24.4715C14.9504 24.8935 15.1875 25.4658 15.1875 26.0625V27.5625C15.1875 27.6868 15.1381 27.806 15.0502 27.894C14.9623 27.9819 14.8431 28.0312 14.7188 28.0312ZM11.625 27.0938H14.25V26.0625C14.25 25.7144 14.1117 25.3806 13.8656 25.1344C13.6194 24.8883 13.2856 24.75 12.9375 24.75C12.5894 24.75 12.2556 24.8883 12.0094 25.1344C11.7633 25.3806 11.625 25.7144 11.625 26.0625V27.0938Z" fill="#B0B0B0"/>
<path d="M14.7188 34.0312H11.1562C11.0319 34.0312 10.9127 33.9819 10.8248 33.894C10.7369 33.806 10.6875 33.6868 10.6875 33.5625V32.0625C10.6875 31.4658 10.9246 30.8935 11.3465 30.4715C11.7685 30.0496 12.3408 29.8125 12.9375 29.8125C13.5342 29.8125 14.1065 30.0496 14.5285 30.4715C14.9504 30.8935 15.1875 31.4658 15.1875 32.0625V33.5625C15.1875 33.6868 15.1381 33.806 15.0502 33.894C14.9623 33.9819 14.8431 34.0312 14.7188 34.0312ZM11.625 33.0938H14.25V32.0625C14.25 31.7144 14.1117 31.3806 13.8656 31.1344C13.6194 30.8883 13.2856 30.75 12.9375 30.75C12.5894 30.75 12.2556 30.8883 12.0094 31.1344C11.7633 31.3806 11.625 31.7144 11.625 32.0625V33.0938Z" fill="#B0B0B0"/>
<path d="M14.7188 40.0312H11.1562C11.0319 40.0312 10.9127 39.9819 10.8248 39.894C10.7369 39.806 10.6875 39.6868 10.6875 39.5625V38.0625C10.6875 37.4658 10.9246 36.8935 11.3465 36.4715C11.7685 36.0496 12.3408 35.8125 12.9375 35.8125C13.5342 35.8125 14.1065 36.0496 14.5285 36.4715C14.9504 36.8935 15.1875 37.4658 15.1875 38.0625V39.5625C15.1875 39.6868 15.1381 39.806 15.0502 39.894C14.9623 39.9819 14.8431 40.0312 14.7188 40.0312ZM11.625 39.0938H14.25V38.0625C14.25 37.7144 14.1117 37.3806 13.8656 37.1344C13.6194 36.8883 13.2856 36.75 12.9375 36.75C12.5894 36.75 12.2556 36.8883 12.0094 37.1344C11.7633 37.3806 11.625 37.7144 11.625 38.0625V39.0938Z" fill="#B0B0B0"/>
<path d="M16.6875 22.0312H9.09375C8.96943 22.0312 8.8502 21.9819 8.76229 21.894C8.67439 21.806 8.625 21.6868 8.625 21.5625C8.625 21.4382 8.67439 21.319 8.76229 21.231C8.8502 21.1431 8.96943 21.0938 9.09375 21.0938H16.6875C16.8118 21.0938 16.931 21.1431 17.019 21.231C17.1069 21.319 17.1562 21.4382 17.1562 21.5625C17.1562 21.6868 17.1069 21.806 17.019 21.894C16.931 21.9819 16.8118 22.0312 16.6875 22.0312Z" fill="#B0B0B0"/>
<path d="M16.6875 28.0312H9.09375C8.96943 28.0312 8.8502 27.9819 8.76229 27.894C8.67439 27.806 8.625 27.6868 8.625 27.5625C8.625 27.4382 8.67439 27.319 8.76229 27.231C8.8502 27.1431 8.96943 27.0938 9.09375 27.0938H16.6875C16.8118 27.0938 16.931 27.1431 17.019 27.231C17.1069 27.319 17.1562 27.4382 17.1562 27.5625C17.1562 27.6868 17.1069 27.806 17.019 27.894C16.931 27.9819 16.8118 28.0312 16.6875 28.0312Z" fill="#B0B0B0"/>
<path d="M16.6875 34.0312H9.09375C8.96943 34.0312 8.8502 33.9819 8.76229 33.894C8.67439 33.806 8.625 33.6868 8.625 33.5625C8.625 33.4382 8.67439 33.319 8.76229 33.231C8.8502 33.1431 8.96943 33.0938 9.09375 33.0938H16.6875C16.8118 33.0938 16.931 33.1431 17.019 33.231C17.1069 33.319 17.1562 33.4382 17.1562 33.5625C17.1562 33.6868 17.1069 33.806 17.019 33.894C16.931 33.9819 16.8118 34.0312 16.6875 34.0312Z" fill="#B0B0B0"/>
<path d="M24 10.0312C23.8757 10.0312 23.7565 9.98186 23.6685 9.89396C23.5806 9.80605 23.5313 9.68682 23.5312 9.5625V8.4375C23.5312 8.31318 23.5806 8.19395 23.6685 8.10604C23.7565 8.01814 23.8757 7.96875 24 7.96875C24.1243 7.96875 24.2435 8.01814 24.3315 8.10604C24.4194 8.19395 24.4688 8.31318 24.4688 8.4375V9.5625C24.4688 9.68682 24.4194 9.80605 24.3315 9.89396C24.2435 9.98186 24.1243 10.0312 24 10.0312Z" fill="#B0B0B0"/>
<path d="M12.8438 16.0312C12.7194 16.0312 12.6002 15.9819 12.5123 15.894C12.4244 15.806 12.375 15.6868 12.375 15.5625V14.4375C12.375 14.3132 12.4244 14.194 12.5123 14.106C12.6002 14.0181 12.7194 13.9688 12.8438 13.9688C12.9681 13.9688 13.0873 14.0181 13.1752 14.106C13.2631 14.194 13.3125 14.3132 13.3125 14.4375V15.5625C13.3125 15.6868 13.2631 15.806 13.1752 15.894C13.0873 15.9819 12.9681 16.0312 12.8438 16.0312Z" fill="#B0B0B0"/>
<path d="M35.25 16.0312C35.1257 16.0312 35.0065 15.9819 34.9185 15.894C34.8306 15.806 34.7812 15.6868 34.7812 15.5625V14.4375C34.7812 14.3132 34.8306 14.194 34.9185 14.106C35.0065 14.0181 35.1257 13.9688 35.25 13.9688C35.3743 13.9688 35.4935 14.0181 35.5815 14.106C35.6694 14.194 35.7188 14.3132 35.7188 14.4375V15.5625C35.7188 15.6868 35.6694 15.806 35.5815 15.894C35.4935 15.9819 35.3743 16.0312 35.25 16.0312Z" fill="#B0B0B0"/>
<path d="M29.625 14.4375C29.5007 14.4375 29.3815 14.3881 29.2935 14.3002C29.2056 14.2123 29.1562 14.0931 29.1562 13.9688V13.4062C29.1562 13.2819 29.2056 13.1627 29.2935 13.0748C29.3815 12.9869 29.5007 12.9375 29.625 12.9375C29.7493 12.9375 29.8685 12.9869 29.9565 13.0748C30.0444 13.1627 30.0938 13.2819 30.0938 13.4062V13.9688C30.0938 14.0931 30.0444 14.2123 29.9565 14.3002C29.8685 14.3881 29.7493 14.4375 29.625 14.4375Z" fill="url(#paint0_linear_171_1884)"/>
<path d="M29.625 20.4375C29.5007 20.4375 29.3815 20.3881 29.2935 20.3002C29.2056 20.2123 29.1562 20.0931 29.1562 19.9688V19.4062C29.1562 19.2819 29.2056 19.1627 29.2935 19.0748C29.3815 18.9869 29.5007 18.9375 29.625 18.9375C29.7493 18.9375 29.8685 18.9869 29.9565 19.0748C30.0444 19.1627 30.0938 19.2819 30.0938 19.4062V19.9688C30.0938 20.0931 30.0444 20.2123 29.9565 20.3002C29.8685 20.3881 29.7493 20.4375 29.625 20.4375Z" fill="url(#paint1_linear_171_1884)"/>
<path d="M29.625 26.4375C29.5007 26.4375 29.3815 26.3881 29.2935 26.3002C29.2056 26.2123 29.1562 26.0931 29.1562 25.9688V25.4062C29.1562 25.2819 29.2056 25.1627 29.2935 25.0748C29.3815 24.9869 29.5007 24.9375 29.625 24.9375C29.7493 24.9375 29.8685 24.9869 29.9565 25.0748C30.0444 25.1627 30.0938 25.2819 30.0938 25.4062V25.9688C30.0938 26.0931 30.0444 26.2123 29.9565 26.3002C29.8685 26.3881 29.7493 26.4375 29.625 26.4375Z" fill="url(#paint2_linear_171_1884)"/>
<path d="M29.625 32.4375C29.5007 32.4375 29.3815 32.3881 29.2935 32.3002C29.2056 32.2123 29.1562 32.0931 29.1562 31.9688V31.4062C29.1562 31.2819 29.2056 31.1627 29.2935 31.0748C29.3815 30.9869 29.5007 30.9375 29.625 30.9375C29.7493 30.9375 29.8685 30.9869 29.9565 31.0748C30.0444 31.1627 30.0938 31.2819 30.0938 31.4062V31.9688C30.0938 32.0931 30.0444 32.2123 29.9565 32.3002C29.8685 32.3881 29.7493 32.4375 29.625 32.4375Z" fill="url(#paint3_linear_171_1884)"/>
<path d="M29.625 38.4375C29.5007 38.4375 29.3815 38.3881 29.2935 38.3002C29.2056 38.2123 29.1562 38.0931 29.1562 37.9688V37.4062C29.1562 37.2819 29.2056 37.1627 29.2935 37.0748C29.3815 36.9869 29.5007 36.9375 29.625 36.9375C29.7493 36.9375 29.8685 36.9869 29.9565 37.0748C30.0444 37.1627 30.0938 37.2819 30.0938 37.4062V37.9688C30.0938 38.0931 30.0444 38.2123 29.9565 38.3002C29.8685 38.3881 29.7493 38.4375 29.625 38.4375Z" fill="url(#paint4_linear_171_1884)"/>
<path d="M18.375 14.4375C18.2507 14.4375 18.1315 14.3881 18.0435 14.3002C17.9556 14.2123 17.9063 14.0931 17.9062 13.9688V13.4062C17.9062 13.2819 17.9556 13.1627 18.0435 13.0748C18.1315 12.9869 18.2507 12.9375 18.375 12.9375C18.4993 12.9375 18.6185 12.9869 18.7065 13.0748C18.7944 13.1627 18.8438 13.2819 18.8438 13.4062V13.9688C18.8438 14.0931 18.7944 14.2123 18.7065 14.3002C18.6185 14.3881 18.4993 14.4375 18.375 14.4375Z" fill="url(#paint5_linear_171_1884)"/>
<path d="M18.375 20.4375C18.2507 20.4375 18.1315 20.3881 18.0435 20.3002C17.9556 20.2123 17.9063 20.0931 17.9062 19.9688V19.4062C17.9062 19.2819 17.9556 19.1627 18.0435 19.0748C18.1315 18.9869 18.2507 18.9375 18.375 18.9375C18.4993 18.9375 18.6185 18.9869 18.7065 19.0748C18.7944 19.1627 18.8438 19.2819 18.8438 19.4062V19.9688C18.8438 20.0931 18.7944 20.2123 18.7065 20.3002C18.6185 20.3881 18.4993 20.4375 18.375 20.4375Z" fill="#B0B0B0"/>
<path d="M18.375 26.4375C18.2507 26.4375 18.1315 26.3881 18.0435 26.3002C17.9556 26.2123 17.9063 26.0931 17.9062 25.9688V25.4062C17.9062 25.2819 17.9556 25.1627 18.0435 25.0748C18.1315 24.9869 18.2507 24.9375 18.375 24.9375C18.4993 24.9375 18.6185 24.9869 18.7065 25.0748C18.7944 25.1627 18.8438 25.2819 18.8438 25.4062V25.9688C18.8438 26.0931 18.7944 26.2123 18.7065 26.3002C18.6185 26.3881 18.4993 26.4375 18.375 26.4375Z" fill="#B0B0B0"/>
<path d="M18.375 32.4375C18.2507 32.4375 18.1315 32.3881 18.0435 32.3002C17.9556 32.2123 17.9063 32.0931 17.9062 31.9688V31.4062C17.9062 31.2819 17.9556 31.1627 18.0435 31.0748C18.1315 30.9869 18.2507 30.9375 18.375 30.9375C18.4993 30.9375 18.6185 30.9869 18.7065 31.0748C18.7944 31.1627 18.8438 31.2819 18.8438 31.4062V31.9688C18.8438 32.0931 18.7944 32.2123 18.7065 32.3002C18.6185 32.3881 18.4993 32.4375 18.375 32.4375Z" fill="url(#paint6_linear_171_1884)"/>
<path d="M18.375 38.4375C18.2507 38.4375 18.1315 38.3881 18.0435 38.3002C17.9556 38.2123 17.9063 38.0931 17.9062 37.9688V37.4062C17.9062 37.2819 17.9556 37.1627 18.0435 37.0748C18.1315 36.9869 18.2507 36.9375 18.375 36.9375C18.4993 36.9375 18.6185 36.9869 18.7065 37.0748C18.7944 37.1627 18.8438 37.2819 18.8438 37.4062V37.9688C18.8438 38.0931 18.7944 38.2123 18.7065 38.3002C18.6185 38.3881 18.4993 38.4375 18.375 38.4375Z" fill="#B0B0B0"/>
<path d="M40.7812 20.4375C40.6569 20.4375 40.5377 20.3881 40.4498 20.3002C40.3619 20.2123 40.3125 20.0931 40.3125 19.9688V19.4062C40.3125 19.2819 40.3619 19.1627 40.4498 19.0748C40.5377 18.9869 40.6569 18.9375 40.7812 18.9375C40.9056 18.9375 41.0248 18.9869 41.1127 19.0748C41.2006 19.1627 41.25 19.2819 41.25 19.4062V19.9688C41.25 20.0931 41.2006 20.2123 41.1127 20.3002C41.0248 20.3881 40.9056 20.4375 40.7812 20.4375Z" fill="url(#paint7_linear_171_1884)"/>
<path d="M40.7812 26.4375C40.6569 26.4375 40.5377 26.3881 40.4498 26.3002C40.3619 26.2123 40.3125 26.0931 40.3125 25.9688V25.4062C40.3125 25.2819 40.3619 25.1627 40.4498 25.0748C40.5377 24.9869 40.6569 24.9375 40.7812 24.9375C40.9056 24.9375 41.0248 24.9869 41.1127 25.0748C41.2006 25.1627 41.25 25.2819 41.25 25.4062V25.9688C41.25 26.0931 41.2006 26.2123 41.1127 26.3002C41.0248 26.3881 40.9056 26.4375 40.7812 26.4375Z" fill="url(#paint8_linear_171_1884)"/>
<path d="M40.7812 32.4375C40.6569 32.4375 40.5377 32.3881 40.4498 32.3002C40.3619 32.2123 40.3125 32.0931 40.3125 31.9688V31.4062C40.3125 31.2819 40.3619 31.1627 40.4498 31.0748C40.5377 30.9869 40.6569 30.9375 40.7812 30.9375C40.9056 30.9375 41.0248 30.9869 41.1127 31.0748C41.2006 31.1627 41.25 31.2819 41.25 31.4062V31.9688C41.25 32.0931 41.2006 32.2123 41.1127 32.3002C41.0248 32.3881 40.9056 32.4375 40.7812 32.4375Z" fill="url(#paint9_linear_171_1884)"/>
<path d="M40.7812 38.4375C40.6569 38.4375 40.5377 38.3881 40.4498 38.3002C40.3619 38.2123 40.3125 38.0931 40.3125 37.9688V37.4062C40.3125 37.2819 40.3619 37.1627 40.4498 37.0748C40.5377 36.9869 40.6569 36.9375 40.7812 36.9375C40.9056 36.9375 41.0248 36.9869 41.1127 37.0748C41.2006 37.1627 41.25 37.2819 41.25 37.4062V37.9688C41.25 38.0931 41.2006 38.2123 41.1127 38.3002C41.0248 38.3881 40.9056 38.4375 40.7812 38.4375Z" fill="url(#paint10_linear_171_1884)"/>
<path d="M7.3125 20.4375C7.18818 20.4375 7.06895 20.3881 6.98104 20.3002C6.89314 20.2123 6.84375 20.0931 6.84375 19.9688V19.4062C6.84375 19.2819 6.89314 19.1627 6.98104 19.0748C7.06895 18.9869 7.18818 18.9375 7.3125 18.9375C7.43682 18.9375 7.55605 18.9869 7.64396 19.0748C7.73186 19.1627 7.78125 19.2819 7.78125 19.4062V19.9688C7.78125 20.0931 7.73186 20.2123 7.64396 20.3002C7.55605 20.3881 7.43682 20.4375 7.3125 20.4375Z" fill="url(#paint11_linear_171_1884)"/>
<path d="M7.3125 26.4375C7.18818 26.4375 7.06895 26.3881 6.98104 26.3002C6.89314 26.2123 6.84375 26.0931 6.84375 25.9688V25.4062C6.84375 25.2819 6.89314 25.1627 6.98104 25.0748C7.06895 24.9869 7.18818 24.9375 7.3125 24.9375C7.43682 24.9375 7.55605 24.9869 7.64396 25.0748C7.73186 25.1627 7.78125 25.2819 7.78125 25.4062V25.9688C7.78125 26.0931 7.73186 26.2123 7.64396 26.3002C7.55605 26.3881 7.43682 26.4375 7.3125 26.4375Z" fill="url(#paint12_linear_171_1884)"/>
<path d="M7.3125 32.4375C7.18818 32.4375 7.06895 32.3881 6.98104 32.3002C6.89314 32.2123 6.84375 32.0931 6.84375 31.9688V31.4062C6.84375 31.2819 6.89314 31.1627 6.98104 31.0748C7.06895 30.9869 7.18818 30.9375 7.3125 30.9375C7.43682 30.9375 7.55605 30.9869 7.64396 31.0748C7.73186 31.1627 7.78125 31.2819 7.78125 31.4062V31.9688C7.78125 32.0931 7.73186 32.2123 7.64396 32.3002C7.55605 32.3881 7.43682 32.4375 7.3125 32.4375Z" fill="url(#paint13_linear_171_1884)"/>
<path d="M7.3125 38.4375C7.18818 38.4375 7.06895 38.3881 6.98104 38.3002C6.89314 38.2123 6.84375 38.0931 6.84375 37.9688V37.4062C6.84375 37.2819 6.89314 37.1627 6.98104 37.0748C7.06895 36.9869 7.18818 36.9375 7.3125 36.9375C7.43682 36.9375 7.55605 36.9869 7.64396 37.0748C7.73186 37.1627 7.78125 37.2819 7.78125 37.4062V37.9688C7.78125 38.0931 7.73186 38.2123 7.64396 38.3002C7.55605 38.3881 7.43682 38.4375 7.3125 38.4375Z" fill="url(#paint14_linear_171_1884)"/>
<defs>
<linearGradient id="paint0_linear_171_1884" x1="29.3056" y1="13.0601" x2="30.3419" y2="14.2876" gradientUnits="userSpaceOnUse">
<stop stop-color="#FF2425"/>
<stop offset="0.5" stop-color="#3246FF"/>
<stop offset="1" stop-color="#3246FF"/>
</linearGradient>
<linearGradient id="paint1_linear_171_1884" x1="29.3056" y1="19.0601" x2="30.3419" y2="20.2876" gradientUnits="userSpaceOnUse">
<stop stop-color="#FF2425"/>
<stop offset="0.5" stop-color="#3246FF"/>
<stop offset="1" stop-color="#3246FF"/>
</linearGradient>
<linearGradient id="paint2_linear_171_1884" x1="29.3056" y1="25.0601" x2="30.3419" y2="26.2876" gradientUnits="userSpaceOnUse">
<stop stop-color="#FF2425"/>
<stop offset="0.5" stop-color="#3246FF"/>
<stop offset="1" stop-color="#3246FF"/>
</linearGradient>
<linearGradient id="paint3_linear_171_1884" x1="29.3056" y1="31.0601" x2="30.3419" y2="32.2876" gradientUnits="userSpaceOnUse">
<stop stop-color="#FF2425"/>
<stop offset="0.5" stop-color="#3246FF"/>
<stop offset="1" stop-color="#3246FF"/>
</linearGradient>
<linearGradient id="paint4_linear_171_1884" x1="29.3056" y1="37.0601" x2="30.3419" y2="38.2876" gradientUnits="userSpaceOnUse">
<stop stop-color="#FF2425"/>
<stop offset="0.5" stop-color="#3246FF"/>
<stop offset="1" stop-color="#3246FF"/>
</linearGradient>
<linearGradient id="paint5_linear_171_1884" x1="18.0556" y1="13.0601" x2="19.0919" y2="14.2876" gradientUnits="userSpaceOnUse">
<stop stop-color="#FF2425"/>
<stop offset="0.5" stop-color="#3246FF"/>
<stop offset="1" stop-color="#3246FF"/>
</linearGradient>
<linearGradient id="paint6_linear_171_1884" x1="18.0556" y1="31.0601" x2="19.0919" y2="32.2876" gradientUnits="userSpaceOnUse">
<stop stop-color="#FF2425"/>
<stop offset="0.5" stop-color="#3246FF"/>
<stop offset="1" stop-color="#3246FF"/>
</linearGradient>
<linearGradient id="paint7_linear_171_1884" x1="40.4619" y1="19.0601" x2="41.4981" y2="20.2876" gradientUnits="userSpaceOnUse">
<stop stop-color="#FF2425"/>
<stop offset="0.5" stop-color="#3246FF"/>
<stop offset="1" stop-color="#3246FF"/>
</linearGradient>
<linearGradient id="paint8_linear_171_1884" x1="40.4619" y1="25.0601" x2="41.4981" y2="26.2876" gradientUnits="userSpaceOnUse">
<stop stop-color="#FF2425"/>
<stop offset="0.5" stop-color="#3246FF"/>
<stop offset="1" stop-color="#3246FF"/>
</linearGradient>
<linearGradient id="paint9_linear_171_1884" x1="40.4619" y1="31.0601" x2="41.4981" y2="32.2876" gradientUnits="userSpaceOnUse">
<stop stop-color="#FF2425"/>
<stop offset="0.5" stop-color="#3246FF"/>
<stop offset="1" stop-color="#3246FF"/>
</linearGradient>
<linearGradient id="paint10_linear_171_1884" x1="40.4619" y1="37.0601" x2="41.4981" y2="38.2876" gradientUnits="userSpaceOnUse">
<stop stop-color="#FF2425"/>
<stop offset="0.5" stop-color="#3246FF"/>
<stop offset="1" stop-color="#3246FF"/>
</linearGradient>
<linearGradient id="paint11_linear_171_1884" x1="6.99312" y1="19.0601" x2="8.02938" y2="20.2876" gradientUnits="userSpaceOnUse">
<stop stop-color="#FF2425"/>
<stop offset="0.5" stop-color="#3246FF"/>
<stop offset="1" stop-color="#3246FF"/>
</linearGradient>
<linearGradient id="paint12_linear_171_1884" x1="6.99312" y1="25.0601" x2="8.02938" y2="26.2876" gradientUnits="userSpaceOnUse">
<stop stop-color="#FF2425"/>
<stop offset="0.5" stop-color="#3246FF"/>
<stop offset="1" stop-color="#3246FF"/>
</linearGradient>
<linearGradient id="paint13_linear_171_1884" x1="6.99312" y1="31.0601" x2="8.02938" y2="32.2876" gradientUnits="userSpaceOnUse">
<stop stop-color="#FF2425"/>
<stop offset="0.5" stop-color="#3246FF"/>
<stop offset="1" stop-color="#3246FF"/>
</linearGradient>
<linearGradient id="paint14_linear_171_1884" x1="6.99312" y1="37.0601" x2="8.02938" y2="38.2876" gradientUnits="userSpaceOnUse">
<stop stop-color="#FF2425"/>
<stop offset="0.5" stop-color="#3246FF"/>
<stop offset="1" stop-color="#3246FF"/>
</linearGradient>
</defs>
</svg>
