<svg width="48" height="48" viewBox="0 0 48 48" fill="none" xmlns="http://www.w3.org/2000/svg">
<path d="M38.4384 26.2126V31.4926H9.1584V26.2126C8.0613 26.4529 7.09146 27.0896 6.43475 28.0007C5.77804 28.9118 5.48065 30.0332 5.59958 31.15C5.71852 32.2667 6.2454 33.3004 7.07927 34.0527C7.91313 34.8051 8.99531 35.2232 10.1184 35.227H37.4784C38.6015 35.2232 39.6837 34.8051 40.5175 34.0527C41.3514 33.3004 41.8783 32.2667 41.9972 31.15C42.1162 30.0332 41.8188 28.9118 41.1621 28.0007C40.5053 27.0896 39.5355 26.4529 38.4384 26.2126Z" stroke="#B0B0B0" stroke-miterlimit="10"/>
<path d="M35.4192 31.4686H12.6192V26.2126L11.6592 23.707H36.3792L35.4192 26.2126V31.4686Z" stroke="#B0B0B0" stroke-miterlimit="10"/>
<path d="M14.6592 24.667H33.8016" stroke="url(#paint0_linear_171_1787)" stroke-miterlimit="10"/>
<path d="M30.8928 23.707C29.4096 22.3774 26.88 21.499 24 21.499C21.12 21.499 18.5904 22.3774 17.1072 23.707H30.8928Z" stroke="#B0B0B0" stroke-miterlimit="10"/>
<path d="M28.1328 31.4688V31.416C28.1328 30.3161 27.6959 29.2612 26.9181 28.4835C26.1404 27.7057 25.0855 27.2688 23.9856 27.2688C22.8857 27.2688 21.8308 27.7057 21.0531 28.4835C20.2753 29.2612 19.8384 30.3161 19.8384 31.416V31.4688H28.1328Z" stroke="#B0B0B0" stroke-miterlimit="10"/>
<path d="M33.6432 31.4686V31.4398C33.6432 30.8899 33.4247 30.3624 33.0359 29.9736C32.647 29.5847 32.1196 29.3662 31.5696 29.3662C31.0196 29.3662 30.4922 29.5847 30.1033 29.9736C29.7145 30.3624 29.496 30.8899 29.496 31.4398V31.4686H33.6432Z" stroke="#B0B0B0" stroke-miterlimit="10"/>
<path d="M18.4752 31.4686V31.4398C18.4752 30.8899 18.2567 30.3624 17.8679 29.9736C17.479 29.5847 16.9516 29.3662 16.4016 29.3662C15.8516 29.3662 15.3242 29.5847 14.9353 29.9736C14.5465 30.3624 14.328 30.8899 14.328 31.4398V31.4686H18.4752Z" stroke="#B0B0B0" stroke-miterlimit="10"/>
<path d="M8.3616 26.2128C8.3616 26.2128 5.8992 14.5008 12.8016 10.6272" stroke="#B0B0B0" stroke-miterlimit="10"/>
<path d="M7.1616 12.4799C8.71264 10.2997 11.0249 8.78051 13.6416 8.2223C17.8992 7.2623 23.2416 15.4799 23.2416 15.4799L17.76 13.0847L16.0416 20.8511L15.2016 10.6271L10.56 19.0847C10.56 19.0847 12.7824 11.1071 13.9824 9.6671L7.1616 12.4799Z" stroke="#B0B0B0" stroke-miterlimit="10"/>
<path d="M39.9072 26.5006C39.9072 26.5006 42.3696 14.7886 35.4672 10.915" stroke="#B0B0B0" stroke-miterlimit="10"/>
<path d="M41.1072 12.7727C39.5562 10.5926 37.2439 9.07333 34.6272 8.51512C30.3696 7.55512 26.4672 15.1439 26.4672 15.1439L30.4944 13.3727L32.1264 19.5071L33.0864 10.9151L36.9264 17.9519C36.9264 17.9519 35.4864 11.3951 34.2816 9.95512L41.1072 12.7727Z" stroke="#B0B0B0" stroke-miterlimit="10"/>
<path d="M41.1072 35.6255H42.4416" stroke="#B0B0B0" stroke-miterlimit="10"/>
<path d="M24.2304 35.6255H38.3616" stroke="#B0B0B0" stroke-miterlimit="10"/>
<path d="M11.6592 35.6255H20.28" stroke="#B0B0B0" stroke-miterlimit="10"/>
<path d="M5.5584 35.6255H9.0816" stroke="#B0B0B0" stroke-miterlimit="10"/>
<path d="M41.5584 37.7375H42.4416" stroke="#B0B0B0" stroke-miterlimit="10"/>
<path d="M33.8016 37.7375H39.3984" stroke="#B0B0B0" stroke-miterlimit="10"/>
<path d="M17.88 37.7375H24.0192H25.1616H26.4624H31.5696" stroke="url(#paint1_linear_171_1787)" stroke-miterlimit="10"/>
<path d="M5.5584 37.7375H15.2016" stroke="#B0B0B0" stroke-miterlimit="10"/>
<path d="M41.1072 39.8496H42.4416" stroke="#B0B0B0" stroke-miterlimit="10"/>
<path d="M37.9008 39.8496H39.5616" stroke="#B0B0B0" stroke-miterlimit="10"/>
<path d="M28.1328 39.8496H35.4672" stroke="#B0B0B0" stroke-miterlimit="10"/>
<path d="M15.2016 39.8496H23.9856" stroke="#B0B0B0" stroke-miterlimit="10"/>
<path d="M5.5584 39.8496H11.16" stroke="#B0B0B0" stroke-miterlimit="10"/>
<defs>
<linearGradient id="paint0_linear_171_1787" x1="17.7092" y1="24.7488" x2="17.7665" y2="26.0881" gradientUnits="userSpaceOnUse">
<stop stop-color="#FF2425"/>
<stop offset="0.5" stop-color="#3246FF"/>
<stop offset="1" stop-color="#3246FF"/>
</linearGradient>
<linearGradient id="paint1_linear_171_1787" x1="20.0612" y1="37.8193" x2="20.1151" y2="39.2188" gradientUnits="userSpaceOnUse">
<stop stop-color="#FF2425"/>
<stop offset="0.5" stop-color="#3246FF"/>
<stop offset="1" stop-color="#3246FF"/>
</linearGradient>
</defs>
</svg>
