<svg width="48" height="48" viewBox="0 0 48 48" fill="none" xmlns="http://www.w3.org/2000/svg">
<path d="M8.25238 20.2362V22.1169C8.28463 23.0481 9.62681 23.0473 9.65878 22.1169V20.2362C9.62653 19.3051 8.28435 19.3057 8.25238 20.2362Z" fill="url(#paint0_linear_187_1404)"/>
<path d="M39.0444 22.8201C39.4327 22.8201 39.7476 22.5052 39.7476 22.1169V20.2362C39.7153 19.305 38.3732 19.3058 38.3412 20.2362V22.1169C38.3412 22.5052 38.656 22.8201 39.0444 22.8201Z" fill="url(#paint1_linear_187_1404)"/>
<path d="M45.8367 45.1309H45.3905V41.9994C45.3583 41.0682 44.0161 41.069 43.9841 41.9994V45.1309H41.5247V40.2331C41.5247 38.4811 40.4703 36.9232 38.8386 36.2641C38.6696 36.1958 38.4808 36.1958 38.3118 36.2641C36.68 36.9233 35.6257 38.4812 35.6257 40.2331V45.1309H33.7512C33.7509 45.1309 33.7506 45.1309 33.7502 45.1309H32.6439V33.0592H33.2481C33.8943 33.0592 34.4201 32.5335 34.4201 31.8872V29.7948C34.4201 29.1485 33.8943 28.6228 33.2481 28.6228H29.6256C28.6945 28.6551 28.6952 29.9972 29.6256 30.0292H33.0137V31.6528H31.9407H16.0594H14.9864V30.0292H26.344C27.2752 29.997 27.2744 28.6548 26.344 28.6228H14.752C14.1057 28.6228 13.58 29.1485 13.58 29.7948V31.8872C13.58 32.5335 14.1057 33.0592 14.752 33.0592H15.3562V45.1309H14.2498C14.2495 45.1309 14.2493 45.1309 14.2489 45.1309H12.3743V40.2331C12.3743 38.4812 11.3199 36.9233 9.68821 36.2641C9.51925 36.1958 9.33042 36.1958 9.16146 36.2641C7.52966 36.9232 6.47533 38.4811 6.47533 40.2331V45.1309H4.01591V26.4768H43.9841V38.7178C44.0164 39.6489 45.3586 39.6482 45.3905 38.7178V26.4768H45.8367C46.7678 26.4446 46.767 25.1024 45.8367 25.0704H42.6731V18.0082C43.2889 17.7716 43.7279 17.1756 43.7279 16.4775V15.7407C43.7279 14.836 42.9918 14.0998 42.0871 14.0998H41.8373V9.81586C42.4347 9.57039 42.8568 8.98289 42.8568 8.29807V7.5613C42.8568 7.00756 42.5803 6.51804 42.159 6.22082C42.8745 4.37777 41.6416 2.21267 39.7478 1.84691V0.698067C39.7155 -0.233064 38.3734 -0.232314 38.3414 0.698067V1.84682C36.4474 2.21248 35.2147 4.37796 35.9301 6.22072C35.5088 6.51804 35.2324 7.00756 35.2324 7.56121V8.29798C35.2324 8.9828 35.6544 9.5703 36.2518 9.81577V14.0998H36.002C35.0973 14.0998 34.3612 14.8359 34.3612 15.7406V16.4774C34.3612 17.1755 34.8002 17.7716 35.416 18.0081V25.0703H33.2709V24.4634C33.2709 23.4812 32.5962 22.6538 31.686 22.4199C34.4116 17.4108 30.6785 12.2903 24.7035 10.8929V7.80283C24.6713 6.8717 23.3291 6.87245 23.2971 7.80283V10.893C17.322 12.29 13.5884 17.4113 16.3142 22.42C15.404 22.6539 14.7293 23.4814 14.7293 24.4635V25.0704H12.5843V23.3411C12.552 22.41 11.2098 22.4107 11.1779 23.3411V25.0704H6.73327V18.1183H11.1778V20.0595C11.21 20.9907 12.5522 20.9899 12.5842 20.0595V18.0082C13.2 17.7716 13.639 17.1756 13.639 16.4775V15.7407C13.639 14.836 12.9029 14.0998 11.9982 14.0998H11.7483V9.81586C12.3456 9.57039 12.7678 8.98289 12.7678 8.29807V7.5613C12.7678 7.00728 12.491 6.51747 12.0692 6.22025C12.7859 4.3774 11.5523 2.21276 9.65867 1.84691V0.698067C9.62642 -0.233064 8.28424 -0.232314 8.25227 0.698067V1.84682C6.3586 2.21248 5.12509 4.37759 5.8417 6.22016C5.41997 6.51738 5.14319 7.00718 5.14319 7.56121V8.29798C5.14319 8.9828 5.5652 9.5703 6.16264 9.81577V14.0998H5.91286C5.00817 14.0998 4.27206 14.8359 4.27206 15.7406V16.4774C4.27206 17.1755 4.71105 17.7715 5.32686 18.0081V25.0703H2.1634C1.23227 25.1026 1.23302 26.4448 2.1634 26.4767H2.60951V45.1308H2.1634C1.23227 45.163 1.23302 46.5052 2.1634 46.5372H15.3562V46.8279C15.3562 47.4742 15.8819 47.9999 16.5282 47.9999H31.4718C32.1181 47.9999 32.6438 47.4742 32.6438 46.8279V46.5372H45.8366C46.7677 46.505 46.767 45.1628 45.8367 45.1309ZM41.2667 25.0704H36.8222V18.1183H41.2667V25.0704ZM39.0444 3.17746C40.4228 3.14586 41.3879 4.69909 40.7616 5.9205H37.3271C36.7009 4.699 37.6662 3.14586 39.0444 3.17746ZM36.6386 7.5613C36.6386 7.4321 36.7438 7.3269 36.873 7.3269H41.2159C41.3451 7.3269 41.4503 7.4321 41.4503 7.5613V8.29807C41.4503 8.42727 41.3451 8.53247 41.2159 8.53247H36.873C36.7438 8.53247 36.6386 8.42727 36.6386 8.29807V7.5613ZM40.4308 9.93897V14.0998H37.658V9.93897H40.4308ZM35.7674 15.7407C35.7674 15.6114 35.8726 15.5063 36.0018 15.5063H42.0871C42.2163 15.5063 42.3215 15.6114 42.3215 15.7407V16.4775C42.3215 16.6067 42.2163 16.7119 42.0871 16.7119H36.0018C35.8726 16.7119 35.7674 16.6067 35.7674 16.4775V15.7407ZM24 12.1766C29.5749 13.2977 33.1152 17.9678 30.0628 22.3539H17.9372C14.885 17.9675 18.4249 13.2982 24 12.1766ZM16.1357 24.4635C16.1357 24.0757 16.4512 23.7603 16.8389 23.7603H31.161C31.5487 23.7603 31.8642 24.0757 31.8642 24.4635V25.0704H16.1357V24.4635ZM8.95557 3.17746C10.3339 3.14586 11.2991 4.69909 10.6728 5.9205H7.23835C6.61203 4.699 7.57739 3.14586 8.95557 3.17746ZM6.54968 7.5613C6.54968 7.4321 6.65488 7.3269 6.78408 7.3269H11.127C11.2562 7.3269 11.3614 7.4321 11.3614 7.5613V8.29807C11.3614 8.42727 11.2562 8.53247 11.127 8.53247H6.78408C6.65488 8.53247 6.54968 8.42727 6.54968 8.29807V7.5613ZM10.342 9.93897V14.0998H7.56914V9.93897H10.342ZM5.67856 15.7407C5.67856 15.6114 5.78376 15.5063 5.91296 15.5063H11.9983C12.1275 15.5063 12.2327 15.6114 12.2327 15.7407V16.4775C12.2327 16.6067 12.1275 16.7119 11.9983 16.7119H5.91296C5.78376 16.7119 5.67856 16.6067 5.67856 16.4775V15.7407ZM10.9679 45.1309H7.88164V40.2331C7.88164 39.1544 8.47861 38.1848 9.42474 37.6898C10.3709 38.1848 10.9678 39.1544 10.9678 40.2331L10.9679 45.1309ZM26.5358 46.5936H21.4643V41.4448C21.4643 39.8747 22.4509 38.4649 24 37.7883C25.5491 38.4649 26.5358 39.8747 26.5358 41.4448V46.5936ZM31.2374 45.8342V46.5937H27.9421V41.4448C27.9421 39.2001 26.4911 37.2085 24.2456 36.3712C24.0872 36.3122 23.9126 36.3122 23.7543 36.3712C21.5087 37.2085 20.0578 39.2 20.0578 41.4448V46.5937H16.7625V45.8342V33.0592H31.2373V45.8342H31.2374ZM40.1183 45.1309H37.032V40.2331C37.032 39.1544 37.629 38.1848 38.5751 37.6898C39.5213 38.1848 40.1182 39.1544 40.1182 40.2331V45.1309H40.1183Z" fill="#B0B0B0"/>
<path d="M8.37867 28.8318C7.73238 28.8318 7.20667 29.3575 7.20667 30.0038V32.0961C7.20667 32.7424 7.73238 33.2681 8.37867 33.2681H10.471C11.1173 33.2681 11.643 32.7424 11.643 32.0961V30.0038C11.643 29.3575 11.1173 28.8318 10.471 28.8318H8.37867ZM10.2366 31.8617H8.61307V30.2382H10.2366V31.8617Z" fill="url(#paint2_linear_187_1404)"/>
<path d="M37.5291 28.8318C36.8828 28.8318 36.3571 29.3575 36.3571 30.0038V32.0961C36.3571 32.7424 36.8828 33.2681 37.5291 33.2681H39.6214C40.2677 33.2681 40.7934 32.7424 40.7934 32.0961V30.0038C40.7934 29.3575 40.2677 28.8318 39.6214 28.8318H37.5291ZM39.387 31.8617H37.7635V30.2382H39.387V31.8617Z" fill="url(#paint3_linear_187_1404)"/>
<path d="M18.7759 20.9393C19.1642 20.9393 19.4791 20.6244 19.4791 20.2361V19.6092C19.4468 18.6781 18.1047 18.6788 18.0727 19.6092V20.2361C18.0727 20.6244 18.3875 20.9393 18.7759 20.9393Z" fill="url(#paint4_linear_187_1404)"/>
<path d="M21.388 20.9393C21.7763 20.9393 22.0912 20.6244 22.0912 20.2361V19.6092C22.0589 18.6781 20.7167 18.6788 20.6848 19.6092V20.2361C20.6848 20.6244 20.9996 20.9393 21.388 20.9393Z" fill="url(#paint5_linear_187_1404)"/>
<path d="M24 20.9393C24.3884 20.9393 24.7032 20.6244 24.7032 20.2361V19.6092C24.671 18.6781 23.3288 18.6788 23.2968 19.6092V20.2361C23.2968 20.6244 23.6117 20.9393 24 20.9393Z" fill="url(#paint6_linear_187_1404)"/>
<path d="M26.6121 20.9393C27.0004 20.9393 27.3153 20.6244 27.3153 20.2361V19.6092C27.283 18.6781 25.9408 18.6788 25.9089 19.6092V20.2361C25.9089 20.6244 26.2236 20.9393 26.6121 20.9393Z" fill="url(#paint7_linear_187_1404)"/>
<path d="M29.2241 20.9393C29.6124 20.9393 29.9273 20.6244 29.9273 20.2361V19.6092C29.895 18.6781 28.5528 18.6788 28.5209 19.6092V20.2361C28.5209 20.6244 28.8357 20.9393 29.2241 20.9393Z" fill="url(#paint8_linear_187_1404)"/>
<path d="M18.4681 35.5769C18.8564 35.5769 19.1713 35.262 19.1713 34.8737V34.4813C19.139 33.5501 17.7969 33.5509 17.7649 34.4813V34.8737C17.7649 35.262 18.0797 35.5769 18.4681 35.5769Z" fill="url(#paint9_linear_187_1404)"/>
<path d="M21.234 35.5769C21.6224 35.5769 21.9372 35.262 21.9372 34.8737V34.4813C21.905 33.5501 20.5628 33.5509 20.5308 34.4813V34.8737C20.5308 35.262 20.8457 35.5769 21.234 35.5769Z" fill="url(#paint10_linear_187_1404)"/>
<path d="M24 35.5769C24.3883 35.5769 24.7032 35.262 24.7032 34.8737V34.4813C24.6709 33.5501 23.3287 33.5509 23.2968 34.4813V34.8737C23.2968 35.262 23.6116 35.5769 24 35.5769Z" fill="url(#paint11_linear_187_1404)"/>
<path d="M26.7659 35.5769C27.1543 35.5769 27.4691 35.262 27.4691 34.8737V34.4813C27.4369 33.5501 26.0947 33.5509 26.0627 34.4813V34.8737C26.0627 35.262 26.3776 35.5769 26.7659 35.5769Z" fill="url(#paint12_linear_187_1404)"/>
<path d="M29.5319 35.5769C29.9202 35.5769 30.2351 35.262 30.2351 34.8737V34.4813C30.2028 33.5501 28.8606 33.5509 28.8287 34.4813V34.8737C28.8287 35.262 29.1435 35.5769 29.5319 35.5769Z" fill="url(#paint13_linear_187_1404)"/>
<defs>
<linearGradient id="paint0_linear_187_1404" x1="8.47646" y1="19.806" x2="10.7247" y2="21.6346" gradientUnits="userSpaceOnUse">
<stop stop-color="#FF2425"/>
<stop offset="0.5" stop-color="#3246FF"/>
<stop offset="1" stop-color="#3246FF"/>
</linearGradient>
<linearGradient id="paint1_linear_187_1404" x1="38.5653" y1="19.8064" x2="40.8162" y2="21.6345" gradientUnits="userSpaceOnUse">
<stop stop-color="#FF2425"/>
<stop offset="0.5" stop-color="#3246FF"/>
<stop offset="1" stop-color="#3246FF"/>
</linearGradient>
<linearGradient id="paint2_linear_187_1404" x1="7.91351" y1="29.1945" x2="10.4798" y2="34.058" gradientUnits="userSpaceOnUse">
<stop stop-color="#FF2425"/>
<stop offset="0.5" stop-color="#3246FF"/>
<stop offset="1" stop-color="#3246FF"/>
</linearGradient>
<linearGradient id="paint3_linear_187_1404" x1="37.0639" y1="29.1945" x2="39.6302" y2="34.058" gradientUnits="userSpaceOnUse">
<stop stop-color="#FF2425"/>
<stop offset="0.5" stop-color="#3246FF"/>
<stop offset="1" stop-color="#3246FF"/>
</linearGradient>
<linearGradient id="paint4_linear_187_1404" x1="18.2968" y1="19.077" x2="19.6666" y2="20.8771" gradientUnits="userSpaceOnUse">
<stop stop-color="#FF2425"/>
<stop offset="0.5" stop-color="#3246FF"/>
<stop offset="1" stop-color="#3246FF"/>
</linearGradient>
<linearGradient id="paint5_linear_187_1404" x1="20.9088" y1="19.077" x2="22.2786" y2="20.8771" gradientUnits="userSpaceOnUse">
<stop stop-color="#FF2425"/>
<stop offset="0.5" stop-color="#3246FF"/>
<stop offset="1" stop-color="#3246FF"/>
</linearGradient>
<linearGradient id="paint6_linear_187_1404" x1="23.5209" y1="19.077" x2="24.8907" y2="20.8771" gradientUnits="userSpaceOnUse">
<stop stop-color="#FF2425"/>
<stop offset="0.5" stop-color="#3246FF"/>
<stop offset="1" stop-color="#3246FF"/>
</linearGradient>
<linearGradient id="paint7_linear_187_1404" x1="26.133" y1="19.077" x2="27.5028" y2="20.8771" gradientUnits="userSpaceOnUse">
<stop stop-color="#FF2425"/>
<stop offset="0.5" stop-color="#3246FF"/>
<stop offset="1" stop-color="#3246FF"/>
</linearGradient>
<linearGradient id="paint8_linear_187_1404" x1="28.745" y1="19.077" x2="30.1148" y2="20.8771" gradientUnits="userSpaceOnUse">
<stop stop-color="#FF2425"/>
<stop offset="0.5" stop-color="#3246FF"/>
<stop offset="1" stop-color="#3246FF"/>
</linearGradient>
<linearGradient id="paint9_linear_187_1404" x1="17.989" y1="33.9299" x2="19.1534" y2="35.6601" gradientUnits="userSpaceOnUse">
<stop stop-color="#FF2425"/>
<stop offset="0.5" stop-color="#3246FF"/>
<stop offset="1" stop-color="#3246FF"/>
</linearGradient>
<linearGradient id="paint10_linear_187_1404" x1="20.7549" y1="33.9299" x2="21.9193" y2="35.6601" gradientUnits="userSpaceOnUse">
<stop stop-color="#FF2425"/>
<stop offset="0.5" stop-color="#3246FF"/>
<stop offset="1" stop-color="#3246FF"/>
</linearGradient>
<linearGradient id="paint11_linear_187_1404" x1="23.5208" y1="33.9299" x2="24.6852" y2="35.6601" gradientUnits="userSpaceOnUse">
<stop stop-color="#FF2425"/>
<stop offset="0.5" stop-color="#3246FF"/>
<stop offset="1" stop-color="#3246FF"/>
</linearGradient>
<linearGradient id="paint12_linear_187_1404" x1="26.2868" y1="33.9299" x2="27.4512" y2="35.6601" gradientUnits="userSpaceOnUse">
<stop stop-color="#FF2425"/>
<stop offset="0.5" stop-color="#3246FF"/>
<stop offset="1" stop-color="#3246FF"/>
</linearGradient>
<linearGradient id="paint13_linear_187_1404" x1="29.0528" y1="33.9299" x2="30.2171" y2="35.6601" gradientUnits="userSpaceOnUse">
<stop stop-color="#FF2425"/>
<stop offset="0.5" stop-color="#3246FF"/>
<stop offset="1" stop-color="#3246FF"/>
</linearGradient>
</defs>
</svg>
