<svg width="44" height="39" viewBox="0 0 44 39" fill="none" xmlns="http://www.w3.org/2000/svg">
<mask id="mask0_171_1856" style="mask-type:luminance" maskUnits="userSpaceOnUse" x="0" y="0" width="44" height="39">
<path d="M43.2 0H0V38.1209H43.2V0Z" fill="white"/>
</mask>
<g mask="url(#mask0_171_1856)">
<path d="M12.3984 20.3696H4.02562V37.569H12.3984V20.3696Z" fill="white"/>
<path d="M34.7988 12.7209H25.005V37.5699H34.7988V12.7209Z" fill="white"/>
<path d="M25.1361 0.782715H12.7894V37.5698H25.1361V0.782715Z" fill="white"/>
<path d="M22.7048 5.37183H15.286V10.4443H22.7048V5.37183Z" fill="url(#paint0_linear_171_1856)"/>
<path d="M42.6479 38.1209H0.552077C0.405658 38.1209 0.265239 38.0629 0.161702 37.9593C0.0581665 37.8558 0 37.7153 0 37.5689C0 37.4224 0.0581665 37.2821 0.161702 37.1785C0.265239 37.075 0.405658 37.0168 0.552077 37.0168H42.6479C42.7943 37.0168 42.9348 37.075 43.0383 37.1785C43.1418 37.2821 43.2 37.4224 43.2 37.5689C43.2 37.7153 43.1418 37.8558 43.0383 37.9593C42.9348 38.0629 42.7943 38.1209 42.6479 38.1209Z" fill="#B0B0B0"/>
<path d="M38.9895 37.8561C38.8431 37.8561 38.7027 37.7979 38.5992 37.6943C38.4957 37.5908 38.4375 37.4504 38.4375 37.304V33.0685C38.4375 32.9221 38.4957 32.7816 38.5992 32.678C38.7027 32.5745 38.8431 32.5164 38.9895 32.5164C39.136 32.5164 39.2764 32.5745 39.38 32.678C39.4835 32.7816 39.5416 32.9221 39.5416 33.0685V37.304C39.5416 37.4504 39.4835 37.5908 39.38 37.6943C39.2764 37.7979 39.136 37.8561 38.9895 37.8561Z" fill="#B0B0B0"/>
<path d="M25.1879 38.1209H12.6833C12.5369 38.1209 12.3965 38.0628 12.293 37.9592C12.1894 37.8557 12.1312 37.7152 12.1312 37.5688V0.552077C12.1312 0.405658 12.1894 0.265238 12.293 0.161702C12.3965 0.0581663 12.5369 0 12.6833 0H25.1879C25.3343 0 25.4747 0.0581663 25.5782 0.161702C25.6817 0.265238 25.7399 0.405658 25.7399 0.552077V37.5688C25.7399 37.7152 25.6817 37.8557 25.5782 37.9592C25.4747 38.0628 25.3343 38.1209 25.1879 38.1209ZM13.2354 37.0167H24.6358V1.10415H13.2354V37.0167Z" fill="#B0B0B0"/>
<path d="M34.9871 38.121H25.1877C25.0413 38.121 24.9009 38.0629 24.7973 37.9594C24.6938 37.8558 24.6356 37.7155 24.6356 37.569V12.4771C24.6356 12.3306 24.6938 12.1903 24.7973 12.0867C24.9009 11.9832 25.0413 11.925 25.1877 11.925H34.9871C35.1335 11.925 35.274 11.9832 35.3774 12.0867C35.4809 12.1903 35.5391 12.3306 35.5391 12.4771V37.569C35.5391 37.7155 35.4809 37.8558 35.3774 37.9594C35.274 38.0629 35.1335 38.121 34.9871 38.121ZM25.7398 37.017H34.435V13.0291H25.7398V37.017Z" fill="#B0B0B0"/>
<path d="M12.6831 38.1208H4.02551C3.87909 38.1208 3.73867 38.0627 3.63514 37.9591C3.5316 37.8556 3.47343 37.7152 3.47343 37.5688V20.1993C3.47343 20.0529 3.5316 19.9125 3.63514 19.809C3.73867 19.7054 3.87909 19.6472 4.02551 19.6472H12.6831C12.8296 19.6472 12.97 19.7054 13.0736 19.809C13.1771 19.9125 13.2352 20.0529 13.2352 20.1993V37.5688C13.2352 37.7152 13.1771 37.8556 13.0736 37.9591C12.97 38.0627 12.8296 38.1208 12.6831 38.1208ZM4.57759 37.0167H12.1311V20.7514H4.57759V37.0167Z" fill="#B0B0B0"/>
<path d="M22.6163 11.1683H15.2549C15.1085 11.1683 14.968 11.1102 14.8646 11.0066C14.761 10.9031 14.7028 10.7626 14.7028 10.6162V5.27988C14.7028 5.13348 14.761 4.99303 14.8646 4.88945C14.968 4.78595 15.1085 4.72778 15.2549 4.72778H22.6163C22.7627 4.72778 22.9031 4.78595 23.0067 4.88945C23.1102 4.99303 23.1684 5.13348 23.1684 5.27988V10.6162C23.1684 10.7626 23.1102 10.9031 23.0067 11.0066C22.9031 11.1102 22.7627 11.1683 22.6163 11.1683ZM15.807 10.0641H22.0642V5.83198H15.807V10.0641Z" fill="#B0B0B0"/>
<path d="M31.1663 16.5524H29.0099C28.8635 16.5524 28.723 16.4943 28.6195 16.3907C28.5159 16.2872 28.4579 16.1467 28.4579 16.0003C28.4579 15.8539 28.5159 15.7135 28.6195 15.6099C28.723 15.5064 28.8635 15.4482 29.0099 15.4482H31.1663C31.3127 15.4482 31.4531 15.5064 31.5566 15.6099C31.6602 15.7135 31.7184 15.8539 31.7184 16.0003C31.7184 16.1467 31.6602 16.2872 31.5566 16.3907C31.4531 16.4943 31.3127 16.5524 31.1663 16.5524Z" fill="url(#paint1_linear_171_1856)"/>
<path d="M31.1663 25.5775H29.0099C28.8635 25.5775 28.723 25.5193 28.6195 25.4158C28.5159 25.3122 28.4579 25.1719 28.4579 25.0254C28.4579 24.879 28.5159 24.7385 28.6195 24.6351C28.723 24.5316 28.8635 24.4734 29.0099 24.4734H31.1663C31.3127 24.4734 31.4531 24.5316 31.5566 24.6351C31.6602 24.7385 31.7184 24.879 31.7184 25.0254C31.7184 25.1719 31.6602 25.3122 31.5566 25.4158C31.4531 25.5193 31.3127 25.5775 31.1663 25.5775Z" fill="url(#paint2_linear_171_1856)"/>
<path d="M9.43315 28.675H7.2768C7.1303 28.675 6.98995 28.6168 6.88636 28.5132C6.78288 28.4097 6.7247 28.2693 6.7247 28.1229C6.7247 27.9765 6.78288 27.836 6.88636 27.7326C6.98995 27.629 7.1303 27.5708 7.2768 27.5708H9.43315C9.57955 27.5708 9.72 27.629 9.82358 27.7326C9.92707 27.836 9.98525 27.9765 9.98525 28.1229C9.98525 28.2693 9.92707 28.4097 9.82358 28.5132C9.72 28.6168 9.57955 28.675 9.43315 28.675Z" fill="url(#paint3_linear_171_1856)"/>
<path d="M9.43315 34.6019H7.2768C7.1303 34.6019 6.98995 34.5437 6.88636 34.4402C6.78288 34.3367 6.7247 34.1963 6.7247 34.0498C6.7247 33.9034 6.78288 33.763 6.88636 33.6595C6.98995 33.5559 7.1303 33.4978 7.2768 33.4978H9.43315C9.57955 33.4978 9.72 33.5559 9.82358 33.6595C9.92707 33.763 9.98525 33.9034 9.98525 34.0498C9.98525 34.1963 9.92707 34.3367 9.82358 34.4402C9.72 34.5437 9.57955 34.6019 9.43315 34.6019Z" fill="url(#paint4_linear_171_1856)"/>
<path d="M31.1663 28.6131H29.0099C28.8635 28.6131 28.723 28.555 28.6195 28.4515C28.5159 28.3479 28.4579 28.2075 28.4579 28.0611C28.4579 27.9146 28.5159 27.7743 28.6195 27.6707C28.723 27.5672 28.8635 27.509 29.0099 27.509H31.1663C31.3127 27.509 31.4531 27.5672 31.5566 27.6707C31.6602 27.7743 31.7184 27.9146 31.7184 28.0611C31.7184 28.2075 31.6602 28.3479 31.5566 28.4515C31.4531 28.555 31.3127 28.6131 31.1663 28.6131Z" fill="#B0B0B0"/>
<path d="M31.1663 34.5393H29.0099C28.8635 34.5393 28.723 34.4811 28.6195 34.3775C28.5159 34.274 28.4579 34.1336 28.4579 33.9872C28.4579 33.8408 28.5159 33.7003 28.6195 33.5968C28.723 33.4932 28.8635 33.4351 29.0099 33.4351H31.1663C31.3127 33.4351 31.4531 33.4932 31.5566 33.5968C31.6602 33.7003 31.7184 33.8408 31.7184 33.9872C31.7184 34.1336 31.6602 34.274 31.5566 34.3775C31.4531 34.4811 31.3127 34.5393 31.1663 34.5393Z" fill="#B0B0B0"/>
<path d="M17.4113 16.5524H15.2549C15.1085 16.5524 14.968 16.4943 14.8646 16.3907C14.761 16.2872 14.7028 16.1467 14.7028 16.0003C14.7028 15.8539 14.761 15.7135 14.8646 15.6099C14.968 15.5064 15.1085 15.4482 15.2549 15.4482H17.4113C17.5577 15.4482 17.6982 15.5064 17.8017 15.6099C17.9053 15.7135 17.9634 15.8539 17.9634 16.0003C17.9634 16.1467 17.9053 16.2872 17.8017 16.3907C17.6982 16.4943 17.5577 16.5524 17.4113 16.5524Z" fill="url(#paint5_linear_171_1856)"/>
<path d="M17.4113 19.6539H15.2549C15.1085 19.6539 14.968 19.5957 14.8646 19.4922C14.761 19.3887 14.7028 19.2483 14.7028 19.1018C14.7028 18.9554 14.761 18.815 14.8646 18.7115C14.968 18.6079 15.1085 18.5498 15.2549 18.5498H17.4113C17.5577 18.5498 17.6982 18.6079 17.8017 18.7115C17.9053 18.815 17.9634 18.9554 17.9634 19.1018C17.9634 19.2483 17.9053 19.3887 17.8017 19.4922C17.6982 19.5957 17.5577 19.6539 17.4113 19.6539Z" fill="url(#paint6_linear_171_1856)"/>
<path d="M17.4113 31.7101H15.2549C15.1085 31.7101 14.968 31.652 14.8646 31.5485C14.761 31.4449 14.7028 31.3045 14.7028 31.1581C14.7028 31.0117 14.761 30.8712 14.8646 30.7677C14.968 30.6641 15.1085 30.606 15.2549 30.606H17.4113C17.5577 30.606 17.6982 30.6641 17.8017 30.7677C17.9053 30.8712 17.9634 31.0117 17.9634 31.1581C17.9634 31.3045 17.9053 31.4449 17.8017 31.5485C17.6982 31.652 17.5577 31.7101 17.4113 31.7101Z" fill="url(#paint7_linear_171_1856)"/>
<path d="M17.4113 34.5393H15.2549C15.1085 34.5393 14.968 34.4811 14.8646 34.3775C14.761 34.274 14.7028 34.1336 14.7028 33.9872C14.7028 33.8408 14.761 33.7003 14.8646 33.5968C14.968 33.4932 15.1085 33.4351 15.2549 33.4351H17.4113C17.5577 33.4351 17.6982 33.4932 17.8017 33.5968C17.9053 33.7003 17.9634 33.8408 17.9634 33.9872C17.9634 34.1336 17.9053 34.274 17.8017 34.3775C17.6982 34.4811 17.5577 34.5393 17.4113 34.5393Z" fill="#B0B0B0"/>
<path d="M22.6163 16.5524H20.4599C20.3135 16.5524 20.1731 16.4943 20.0695 16.3907C19.966 16.2872 19.9078 16.1467 19.9078 16.0003C19.9078 15.8539 19.966 15.7135 20.0695 15.6099C20.1731 15.5064 20.3135 15.4482 20.4599 15.4482H22.6163C22.7627 15.4482 22.9031 15.5064 23.0067 15.6099C23.1102 15.7135 23.1683 15.8539 23.1683 16.0003C23.1683 16.1467 23.1102 16.2872 23.0067 16.3907C22.9031 16.4943 22.7627 16.5524 22.6163 16.5524Z" fill="#B0B0B0"/>
<path d="M22.6163 22.4797H20.4599C20.3135 22.4797 20.1731 22.4215 20.0695 22.3179C19.966 22.2144 19.9078 22.074 19.9078 21.9276C19.9078 21.7812 19.966 21.6407 20.0695 21.5372C20.1731 21.4337 20.3135 21.3755 20.4599 21.3755H22.6163C22.7627 21.3755 22.9031 21.4337 23.0067 21.5372C23.1102 21.6407 23.1683 21.7812 23.1683 21.9276C23.1683 22.074 23.1102 22.2144 23.0067 22.3179C22.9031 22.4215 22.7627 22.4797 22.6163 22.4797Z" fill="url(#paint8_linear_171_1856)"/>
<path d="M22.6163 25.5775H20.4599C20.3135 25.5775 20.1731 25.5193 20.0695 25.4158C19.966 25.3122 19.9078 25.1719 19.9078 25.0254C19.9078 24.879 19.966 24.7385 20.0695 24.6351C20.1731 24.5316 20.3135 24.4734 20.4599 24.4734H22.6163C22.7627 24.4734 22.9031 24.5316 23.0067 24.6351C23.1102 24.7385 23.1683 24.879 23.1683 25.0254C23.1683 25.1719 23.1102 25.3122 23.0067 25.4158C22.9031 25.5193 22.7627 25.5775 22.6163 25.5775Z" fill="#B0B0B0"/>
<path d="M22.6163 28.6131H20.4599C20.3135 28.6131 20.1731 28.555 20.0695 28.4515C19.966 28.3479 19.9078 28.2075 19.9078 28.0611C19.9078 27.9146 19.966 27.7743 20.0695 27.6707C20.1731 27.5672 20.3135 27.509 20.4599 27.509H22.6163C22.7627 27.509 22.9031 27.5672 23.0067 27.6707C23.1102 27.7743 23.1683 27.9146 23.1683 28.0611C23.1683 28.2075 23.1102 28.3479 23.0067 28.4515C22.9031 28.555 22.7627 28.6131 22.6163 28.6131Z" fill="#B0B0B0"/>
</g>
<defs>
<linearGradient id="paint0_linear_171_1856" x1="16.468" y1="5.78657" x2="18.7375" y2="12.077" gradientUnits="userSpaceOnUse">
<stop stop-color="#FF2425"/>
<stop offset="0.5" stop-color="#3246FF"/>
<stop offset="1" stop-color="#3246FF"/>
</linearGradient>
<linearGradient id="paint1_linear_171_1856" x1="28.9774" y1="15.5385" x2="29.2453" y2="17.0382" gradientUnits="userSpaceOnUse">
<stop stop-color="#FF2425"/>
<stop offset="0.5" stop-color="#3246FF"/>
<stop offset="1" stop-color="#3246FF"/>
</linearGradient>
<linearGradient id="paint2_linear_171_1856" x1="28.9774" y1="24.5637" x2="29.2453" y2="26.0632" gradientUnits="userSpaceOnUse">
<stop stop-color="#FF2425"/>
<stop offset="0.5" stop-color="#3246FF"/>
<stop offset="1" stop-color="#3246FF"/>
</linearGradient>
<linearGradient id="paint3_linear_171_1856" x1="7.2442" y1="27.6611" x2="7.51219" y2="29.1607" gradientUnits="userSpaceOnUse">
<stop stop-color="#FF2425"/>
<stop offset="0.5" stop-color="#3246FF"/>
<stop offset="1" stop-color="#3246FF"/>
</linearGradient>
<linearGradient id="paint4_linear_171_1856" x1="7.2442" y1="33.5881" x2="7.51214" y2="35.0876" gradientUnits="userSpaceOnUse">
<stop stop-color="#FF2425"/>
<stop offset="0.5" stop-color="#3246FF"/>
<stop offset="1" stop-color="#3246FF"/>
</linearGradient>
<linearGradient id="paint5_linear_171_1856" x1="15.2223" y1="15.5385" x2="15.4903" y2="17.0382" gradientUnits="userSpaceOnUse">
<stop stop-color="#FF2425"/>
<stop offset="0.5" stop-color="#3246FF"/>
<stop offset="1" stop-color="#3246FF"/>
</linearGradient>
<linearGradient id="paint6_linear_171_1856" x1="15.2223" y1="18.6401" x2="15.4902" y2="20.1396" gradientUnits="userSpaceOnUse">
<stop stop-color="#FF2425"/>
<stop offset="0.5" stop-color="#3246FF"/>
<stop offset="1" stop-color="#3246FF"/>
</linearGradient>
<linearGradient id="paint7_linear_171_1856" x1="15.2223" y1="30.6962" x2="15.4903" y2="32.1959" gradientUnits="userSpaceOnUse">
<stop stop-color="#FF2425"/>
<stop offset="0.5" stop-color="#3246FF"/>
<stop offset="1" stop-color="#3246FF"/>
</linearGradient>
<linearGradient id="paint8_linear_171_1856" x1="20.4273" y1="21.4658" x2="20.6953" y2="22.9654" gradientUnits="userSpaceOnUse">
<stop stop-color="#FF2425"/>
<stop offset="0.5" stop-color="#3246FF"/>
<stop offset="1" stop-color="#3246FF"/>
</linearGradient>
</defs>
</svg>
